<svg xmlns="http://www.w3.org/2000/svg" width="53.844" height="54.386" viewBox="0 0 53.844 54.386">
  <g id="Group_50062" data-name="Group 50062" transform="translate(0 -0.001)">
    <g id="Group_50063" data-name="Group 50063" transform="translate(0.7 0.701)">
      <path id="Path_74386" data-name="Path 74386" d="M28.952,3.16A10.159,10.159,0,0,1,35.716.7,11.019,11.019,0,0,1,43.73,4.2,11.018,11.018,0,0,1,51.744.7c5.52,0,9.794,4,9.794,9.16,0,6.328-6.055,11.491-15.315,19.153a3.651,3.651,0,0,1-4.986,0c-9.26-7.662-15.315-12.825-15.315-19.153A8.82,8.82,0,0,1,27.7,4.507" transform="translate(-12.817 -0.701)" fill="none" stroke="#f40f34" stroke-width="1.4"/>
      <path id="Path_74388" data-name="Path 74388" d="M10.953,62.47l14.695-2.532a16.623,16.623,0,0,1,6.028,0c3.273.614,8.632,1.677,8.632,1.677a2.928,2.928,0,0,1,2.023,3.634,3.061,3.061,0,0,1-3.5,2.114l-8.755-.757s-2.229.123-2.229,2.209c0,1.289.777,2.414,3.845,2.864s6.934,1.227,10.248.736,12.109-2.659,12.109-2.659v0a3.159,3.159,0,1,1,1.7,6.085s-14.012,4.631-18.226,5.7a19.574,19.574,0,0,1-8.836-.246L11.029,76.3" transform="translate(-5.626 -29.029)" fill="none" stroke="#f40f34" stroke-width="1.4"/>
      <path id="Path_74389" data-name="Path 74389" d="M81.2,48.231a5.713,5.713,0,1,1-.828.845" transform="translate(-38.382 -22.905)" fill="none" stroke="#f40f34" stroke-width="1.4"/>
      <line id="Line_176" data-name="Line 176" y2="4.277" transform="translate(46.464 27.588)" fill="none" stroke="#f40f34" stroke-width="1.4"/>
      <line id="Line_177" data-name="Line 177" x2="4.277" transform="translate(44.326 29.726)" fill="none" stroke="#f40f34" stroke-width="1.4"/>
      <path id="Path_74390" data-name="Path 74390" d="M38.806,21.35h4.12l1.665-2.538,2.156,3.111,2.974-5.1,3.9,6.947,2.483-3.836h5.1" transform="translate(-19.007 -8.445)" fill="none" stroke="#f40f34" stroke-width="1.4"/>
      <path id="Path_74391" data-name="Path 74391" d="M6.1,76.835A2.507,2.507,0,0,1,3.6,79.343H.7V61.4H3.6A2.508,2.508,0,0,1,6.1,63.9Z" transform="translate(-0.7 -29.861)" fill="none" stroke="#f40f34" stroke-width="1.4"/>
      <path id="Path_74392" data-name="Path 74392" d="M90.434,14.426a9.729,9.729,0,0,1-.78,6.412" transform="translate(-43.436 -7.295)" fill="none" stroke="#f40f34" stroke-width="1.4"/>
    </g>
  </g>
</svg>
