<svg xmlns="http://www.w3.org/2000/svg" xmlns:xlink="http://www.w3.org/1999/xlink" width="52.172" height="42.22" viewBox="0 0 52.172 42.22">
  <defs>
    <clipPath id="clip-path">
      <rect id="Rectangle_14288" data-name="Rectangle 14288" width="52.172" height="42.22" fill="none" stroke="#fff" stroke-width="1"/>
    </clipPath>
  </defs>
  <g id="Group_50057" data-name="Group 50057" transform="translate(0 0)" opacity="0.8">
    <g id="Group_50056" data-name="Group 50056" transform="translate(0 0)" clip-path="url(#clip-path)">
      <path id="Path_74381" data-name="Path 74381" d="M32.088,8.667v-4.6A2.573,2.573,0,0,1,34.661,1.49H54.446a2.573,2.573,0,0,1,2.573,2.573V16.815a2.572,2.572,0,0,1-2.573,2.572H49.5l-5.277,4.6v-4.6H39.646" transform="translate(-5.429 -0.252)" fill="none" stroke="#fff" stroke-width="1.4"/>
      <line id="Line_171" data-name="Line 171" x1="14.927" transform="translate(32.161 8.128)" fill="none" stroke="#fff" stroke-width="1.4"/>
      <line id="Line_172" data-name="Line 172" x1="8.939" transform="translate(38.149 12.398)" fill="none" stroke="#fff" stroke-width="1.4"/>
      <path id="Path_74382" data-name="Path 74382" d="M21.022,9.36V2.8a2.1,2.1,0,0,0-2.1-2.1H2.8A2.1,2.1,0,0,0,.7,2.8V13.191a2.1,2.1,0,0,0,2.1,2.1l5.286.04.22,3.713,4.985-3.753" transform="translate(-0.118 -0.118)" fill="none" stroke="#fff" stroke-width="1.4"/>
      <line id="Line_173" data-name="Line 173" x2="9.675" transform="translate(3.69 6.198)" fill="none" stroke="#fff" stroke-width="1.4"/>
      <line id="Line_174" data-name="Line 174" x2="4.717" transform="translate(3.69 9.678)" fill="none" stroke="#fff" stroke-width="1.4"/>
      <path id="Path_74383" data-name="Path 74383" d="M35.36,20.63a7.274,7.274,0,1,1-7.274-7.274A7.274,7.274,0,0,1,35.36,20.63Z" transform="translate(-3.521 -2.259)" fill="none" stroke="#fff" stroke-width="1.4"/>
      <path id="Path_74384" data-name="Path 74384" d="M11.025,48.171V42.4a7.23,7.23,0,0,1,7.23-7.23H34.606a7.23,7.23,0,0,1,7.23,7.23v5.767" transform="translate(-1.865 -5.951)" fill="none" stroke="#fff" stroke-width="1.4"/>
      <line id="Line_175" data-name="Line 175" y1="5.107" transform="translate(16.372 37.113)" fill="none" stroke="#fff" stroke-width="1.4"/>
    </g>
  </g>
</svg>
