<svg xmlns="http://www.w3.org/2000/svg" xmlns:xlink="http://www.w3.org/1999/xlink" width="46.619" height="45.072" viewBox="0 0 46.619 45.072">
  <defs>
    <clipPath id="clip-path">
      <rect id="Rectangle_14287" data-name="Rectangle 14287" width="46.619" height="45.072" fill="none" stroke="#fff" stroke-width="1"/>
    </clipPath>
  </defs>
  <g id="Group_50055" data-name="Group 50055" opacity="0.8">
    <g id="Group_50054" data-name="Group 50054" transform="translate(0 0)" clip-path="url(#clip-path)">
      <path id="Path_74373" data-name="Path 74373" d="M40.335,15.148l-3.757.049a14.546,14.546,0,0,0-1.185-2.755l2.625-2.693A1.044,1.044,0,0,0,38,8.271L33.507,3.892a1.045,1.045,0,0,0-1.478.019L29.4,6.6a14.47,14.47,0,0,0-2.783-1.114L26.57,1.732A1.045,1.045,0,0,0,25.512.7L19.24.781A1.043,1.043,0,0,0,18.209,1.84L18.255,5.6A14.464,14.464,0,0,0,15.5,6.783L12.808,4.158a1.044,1.044,0,0,0-1.477.019L6.952,8.67a1.044,1.044,0,0,0,.018,1.478l2.694,2.625a14.45,14.45,0,0,0-1.114,2.784L4.792,15.6" transform="translate(0.92 0.134)" fill="none" stroke="#fff" stroke-width="1.4"/>
      <path id="Path_74374" data-name="Path 74374" d="M14.732,16.467a5.962,5.962,0,0,1,11.922-.154" transform="translate(2.828 2.002)" fill="none" stroke="#fff" stroke-width="1.4"/>
      <path id="Path_74375" data-name="Path 74375" d="M20.589,17.254a5.168,5.168,0,1,1-5.177,5.159A5.168,5.168,0,0,1,20.589,17.254Z" transform="translate(2.959 3.312)" fill="none" stroke="#fff" stroke-width="1.4"/>
      <path id="Path_74376" data-name="Path 74376" d="M31.706,38.653V35.66a7.161,7.161,0,0,0-7.148-7.177h0l-6.637-.012a7.163,7.163,0,0,0-7.177,7.151h0v3.149" transform="translate(2.062 5.466)" fill="none" stroke="#fff" stroke-width="1.4"/>
      <path id="Path_74377" data-name="Path 74377" d="M9.116,17.918a4.417,4.417,0,1,1-4.425,4.409A4.417,4.417,0,0,1,9.116,17.918Z" transform="translate(0.901 3.44)" fill="none" stroke="#fff" stroke-width="1.4"/>
      <path id="Path_74378" data-name="Path 74378" d="M12.508,27.516h0l-5.673-.01A6.122,6.122,0,0,0,.7,33.617h0v.653" transform="translate(0.134 5.28)" fill="none" stroke="#fff" stroke-width="1.4"/>
      <path id="Path_74379" data-name="Path 74379" d="M31.418,17.7a4.417,4.417,0,1,0,4.425,4.409A4.417,4.417,0,0,0,31.418,17.7Z" transform="translate(5.185 3.397)" fill="none" stroke="#fff" stroke-width="1.4"/>
      <path id="Path_74380" data-name="Path 74380" d="M28.5,27.295h0l5.673-.01A6.122,6.122,0,0,1,40.311,33.4h0v.653" transform="translate(5.472 5.238)" fill="none" stroke="#fff" stroke-width="1.4"/>
      <line id="Line_170" data-name="Line 170" x2="27.163" transform="translate(10.009 44.238)" fill="none" stroke="#fff" stroke-width="1.4"/>
    </g>
  </g>
</svg>
