<svg xmlns="http://www.w3.org/2000/svg" xmlns:xlink="http://www.w3.org/1999/xlink" width="140" height="140" viewBox="0 0 140 140">
  <defs>
    <clipPath id="clip-Safe_sustainable_accommodation">
      <rect width="140" height="140"/>
    </clipPath>
  </defs>
  <g id="Safe_sustainable_accommodation" data-name="Safe &amp; sustainable accommodation" clip-path="url(#clip-Safe_sustainable_accommodation)">
    <g id="Group_50624" data-name="Group 50624" transform="translate(22.015 21.998)" opacity="0.7">
      <g id="Group_49766" data-name="Group 49766" transform="translate(0 0)">
        <path id="Path_73962" data-name="Path 73962" d="M47.586,0h.375c.034.256.265.328.433.452Q57.576,7.231,66.767,14c.183.135.337.379.683.286,0-2.456.026-4.917-.016-7.376-.012-.713.151-.945.911-.939q7.535.055,15.07,0c.747-.005.921.208.918.932-.028,6.4-.01,12.793-.027,19.189a1.415,1.415,0,0,0,.624,1.325C88.339,29.888,91.718,32.4,95.11,34.9c.193.141.348.372.638.336v.187c-.969,1.3-1.96,2.586-2.9,3.91-.34.48-.586.5-1.037.15a6.865,6.865,0,0,0-1.873-1.246v1.206q0,27.686.024,55.372c0,.951-.233,1.162-1.169,1.161q-40.99-.042-81.981,0c-.933,0-1.237-.173-1.235-1.188q.053-27.733.022-55.466a2.2,2.2,0,0,0-.122-1.124c-.58.421-1.14.765-1.624,1.194-.518.46-.835.445-1.239-.158A39.077,39.077,0,0,0,.284,36.062c-.478-.579-.317-.825.213-1.215q22.515-16.568,45-33.173A9.291,9.291,0,0,0,47.586,0m.161,90.322q17.754,0,35.508.018c.829,0,1.086-.175,1.084-1.056Q84.3,62.066,84.333,34.85a1.6,1.6,0,0,0-.725-1.468Q66.1,20.514,48.636,7.594a1.213,1.213,0,0,0-1.753.033Q29.421,20.551,11.91,33.412a1.515,1.515,0,0,0-.7,1.386q.024,27.263-.008,54.527c0,.842.222,1.017,1.032,1.015q17.754-.042,35.508-.019m30.8-67.644c.081-.128.136-.175.136-.222.008-3.431,0-6.863.024-10.295,0-.486-.21-.559-.619-.555-1.466.016-2.933.026-4.4,0-.511-.011-.626.18-.621.651.021,1.965.008,3.931.01,5.9,0,.245-.028.49.219.671q2.628,1.92,5.251,3.857" transform="translate(0 0.001)" fill="#fff"/>
        <path id="Path_73963" data-name="Path 73963" d="M98.119,197.933c-8.089,0-16.178.014-24.267-.021-.83,0-1.067.2-1.02,1.026.075,1.307,0,2.623.031,3.934.013.523-.137.707-.679.694-1.436-.034-2.873-.027-4.31,0-.471.008-.713-.111-.647-.623a4.42,4.42,0,0,0,0-.562q0-21.316-.026-42.632c0-1.014.3-1.25,1.237-1.188a34.7,34.7,0,0,0,3.652.005c.629-.025.777.193.772.791-.027,3.185.011,6.372-.03,9.557-.01.736.188.942.927.928,2.5-.047,5-.039,7.5-.011a8.383,8.383,0,0,1,8.22,10.3c-.2.879.018.95.786.949,12.555-.02,25.111,0,37.666-.037.937,0,1.177.211,1.17,1.163-.046,6.808-.035,13.617-.01,20.426,0,.712-.146.984-.913.942a35.759,35.759,0,0,0-3.746,0c-.753.038-1.045-.137-1-.954.074-1.276-.028-2.562.038-3.839.038-.736-.225-.862-.9-.86q-12.227.034-24.455.015m-.067-5.622c8.179,0,16.358-.009,24.538.016.7,0,.913-.176.878-.88a31.494,31.494,0,0,1,0-3.65c.06-.891-.181-1.133-1.1-1.131q-24.21.048-48.42.023a3.689,3.689,0,0,1-.468,0c-.489-.063-.649.135-.638.629.03,1.342.056,2.687-.008,4.026-.036.765.162.992.961.989,8.085-.032,16.171-.02,24.257-.02M77.394,175.444c-1.278,0-2.556.031-3.832-.014-.594-.021-.737.181-.722.743q.056,2.055,0,4.112c-.017.593.134.8.767.8,2.492-.036,4.985,0,7.477-.019a2.816,2.816,0,1,0-.045-5.616c-1.215-.01-2.43,0-3.645,0" transform="translate(-50.379 -118.855)" fill="#fff"/>
        <path id="Path_73964" data-name="Path 73964" d="M148.669,91.239c4.4,0,8.8.018,13.205-.018.715-.006.871.2.868.887q-.039,10.4,0,20.791c0,.635-.138.847-.814.845q-13.252-.035-26.5,0c-.67,0-.822-.2-.82-.84q.034-10.4-.007-20.791c0-.8.287-.891.962-.887,4.37.025,8.741.013,13.111.013m-.029,16.867c2.559,0,5.117-.015,7.676.012.58.006.811-.113.8-.759q-.05-4.867,0-9.735c.006-.622-.183-.777-.786-.774q-7.676.033-15.352,0c-.54,0-.763.1-.757.708q.047,4.914,0,9.829c0,.583.167.737.739.73,2.558-.029,5.117-.013,7.676-.013" transform="translate(-100.898 -68.383)" fill="#fff"/>
      </g>
    </g>
  </g>
</svg>
