<svg xmlns="http://www.w3.org/2000/svg" xmlns:xlink="http://www.w3.org/1999/xlink" width="140" height="140" viewBox="0 0 140 140">
  <defs>
    <clipPath id="clip-path">
      <rect id="Rectangle_14407" data-name="Rectangle 14407" width="127.377" height="102.567" fill="#f2f2f2"/>
    </clipPath>
    <clipPath id="clip-Agency_Building">
      <rect width="140" height="140"/>
    </clipPath>
  </defs>
  <g id="Agency_Building" data-name="Agency Building" clip-path="url(#clip-Agency_Building)">
    <g id="Group_50618" data-name="Group 50618" transform="translate(6.134 18.692)" opacity="0.7">
      <g id="Group_50154" data-name="Group 50154" clip-path="url(#clip-path)">
        <path id="Path_74428" data-name="Path 74428" d="M56.413,130.117a23.109,23.109,0,0,1,1.782-12.6,10.024,10.024,0,0,1,4.981-4.724c5.322-2.588,10.916-4.585,16.133-7.405a44.09,44.09,0,0,0,6.834-4.279,13.88,13.88,0,0,0,1.839-1.7c.864-1.005,1.9-2.263,1.4-3.493-.414-1.026-1.939-.4-2.953-.408-6.823-.049-13.646-.025-20.47-.025H63.823c1.072-1.443,1.939-2.616,2.812-3.784,4.154-5.557,7.574-11.471,9.008-18.366a62.171,62.171,0,0,0,.8-11.618c.13-7.107,8.821-16.536,17.439-15.477a2.013,2.013,0,0,0,1.486-.462,14.342,14.342,0,0,1,16.266-.494c6.6,4.006,9.777,10.063,10.87,17.486.706,4.791.813,9.66,1.869,14.4,1.311,5.886,3.839,11.3,6.588,16.616.24.464.457.94.691,1.426a3.047,3.047,0,0,1-1.984.26c-6.225.02-12.449.011-18.674.018-1.849,0-2.12.427-1.253,2.078a9.089,9.089,0,0,0,2.686,2.855c4.993,3.849,10.845,6.03,16.54,8.516,1.973.861,3.932,1.754,5.9,2.617,4.972,2.178,7.234,6.221,7.745,11.4.234,2.375.266,4.771.389,7.157Zm15.98-38.732h1.849q9.067.007,18.135.017c.686,0,1.447-.207,1.5.96.18,3.968-.458,7.627-3.473,10.545a33.219,33.219,0,0,1-6.849,4.88,126.021,126.021,0,0,1-16.08,7.507c-3.974,1.568-6.444,4.011-6.912,8.463-.2,1.88.233,2.136,1.943,2.133q37.077-.078,74.155-.035c.419,0,.838-.017,1.257,0,.62.021.771-.283.808-.874a9.715,9.715,0,0,0-5.432-9.55c-2.69-1.3-5.447-2.46-8.193-3.639-5.61-2.41-11.208-4.815-16.012-8.723a9.667,9.667,0,0,1-3.648-10.191c.229-1.112.64-1.542,1.867-1.523,5.385.085,10.773.008,16.159.071,1.411.017,1.611-.294,1-1.572a52.87,52.87,0,0,1-5.011-17.308c-.367-3.387-.631-6.783-1.207-10.148-1.16-6.775-4.463-12.022-11.009-14.59-3.117-1.223-6.441-1.269-9.28,1.187a5.476,5.476,0,0,1-4.321,1.368,9.968,9.968,0,0,0-7.343,2.3c-3.806,2.941-6.064,6.671-5.859,11.679A42.386,42.386,0,0,1,72.86,90.05a1.611,1.611,0,0,0-.467,1.335" transform="translate(-36.023 -27.55)" fill="#f2f2f2"/>
        <path id="Path_74429" data-name="Path 74429" d="M6.84,48.895c1.891-2.648,3.606-4.945,5.212-7.317a34.488,34.488,0,0,0,6.325-20.935C18.138,13.66,21.317,8.5,27.3,5.227,31.374,3,36.117,2.408,40.517,1.118c7.32-2.144,12.669,2.088,16.875,7.8.142.192.266.4.391.6,1.707,2.788,1.658,2.846-1.454,3.889-.84.282-1.111.041-1.469-.672a16.222,16.222,0,0,0-5.93-6.351,8.974,8.974,0,0,0-10.806.269,5.645,5.645,0,0,1-3.538,1.038A11.881,11.881,0,0,0,22.546,19.357c-.063,5.483-.461,10.872-2.555,16.017a50.758,50.758,0,0,1-4.769,8.968c.475.649,1.061.386,1.545.387,5.448.014,10.9.048,16.344-.042,1.382-.023,1.653.434,1.7,1.72a12.15,12.15,0,0,1-5.62,11.147c-4.759,3.283-10,5.616-15.252,7.939-1.258.557-2.5,1.155-3.8,1.607A8.1,8.1,0,0,0,4.4,74.377c-.185,1.484.088,1.868,1.553,1.859,8.262-.051,16.525-.024,24.787-.024a9.321,9.321,0,0,0,1.435-.011c1.745-.275,2.224.435,2.2,2.165-.022,1.565-.4,2.014-2,2C22.2,80.29,12.022,80.3,1.847,80.348.5,80.354-.148,80.1.028,78.6c.2-1.72.2-3.465.38-5.188.58-5.567,4.041-8.608,9-10.533a91.113,91.113,0,0,0,15.5-7.471c1.977-1.237,4-2.469,5.092-4.67.779-1.574.6-1.837-1.133-1.839q-9.879-.013-19.758,0H6.84" transform="translate(0 -0.354)" fill="#f2f2f2"/>
        <path id="Path_74430" data-name="Path 74430" d="M239.793,48.269c-6.457,0-12.613-.007-18.77.011-.566,0-1.334-.31-1.662.269-.409.723.176,1.4.615,1.931a19.58,19.58,0,0,0,5.671,4.33A97.233,97.233,0,0,0,240.175,61.4c6.83,2.546,9.486,7.545,9.549,14.431.033,3.695.065,3.712-3.692,3.719-8.917.016-17.835-.05-26.75.071-1.866.026-1.783-.846-1.815-2.142-.033-1.328.1-2.038,1.771-2.019,8.139.09,16.28-.006,24.42.078,1.675.017,1.979-.481,1.788-2.052a9.011,9.011,0,0,0-5.921-7.824c-4.955-2.089-9.983-4.033-14.726-6.6a32.955,32.955,0,0,1-7.061-4.884c-2.766-2.607-3.149-5.737-2.294-9.226.25-1.02.994-.85,1.689-.851q7.452-.012,14.9-.017c.235,0,.47-.044.8-.078a21.825,21.825,0,0,0-1.615-4.157,54.967,54.967,0,0,1-3.609-16.759,47.072,47.072,0,0,0-1.374-7.942,14.7,14.7,0,0,0-8.034-9.818c-3.167-1.573-6.541-1.813-9.568.706a4.34,4.34,0,0,1-3.294,1.2c-4.178-.566-7.11,1.493-9.642,4.41-1.823,2.1-1.77,2.109-4.16.463-.636-.437-.767-.763-.3-1.416,3.3-4.6,7.369-7.834,13.394-7.638a2.377,2.377,0,0,0,1.672-.43c4.528-3.482,9.4-3.244,14.144-.775,6.442,3.349,9.692,9.01,10.622,16.094.536,4.088.887,8.207,1.593,12.265.973,5.592,3.341,10.705,5.941,15.709.354.68.691,1.37,1.186,2.353" transform="translate(-122.353 0)" fill="#f2f2f2"/>
      </g>
    </g>
  </g>
</svg>
