<svg xmlns="http://www.w3.org/2000/svg" xmlns:xlink="http://www.w3.org/1999/xlink" width="140" height="140" viewBox="0 0 140 140">
  <defs>
    <clipPath id="clip-career_progression_for_women">
      <rect width="140" height="140"/>
    </clipPath>
  </defs>
  <g id="career_progression_for_women" data-name="career progression for women" clip-path="url(#clip-career_progression_for_women)">
    <g id="Group_50625" data-name="Group 50625" transform="translate(22 18)">
      <g id="Group_50208" data-name="Group 50208" transform="translate(0)">
        <path id="Path_74488" data-name="Path 74488" d="M45.281,0A40.441,40.441,0,0,1,49.87,1.11c7.965,2.977,12.667,9.857,12.676,18.641q.021,20.6-.019,41.192a1.635,1.635,0,0,0,1.112,1.719,9.53,9.53,0,0,0,4.845,1.023c2.452-.111,4.912-.063,7.369-.063,2.836,0,4.379,1.536,4.389,4.341.008,2.33.008,2.33,2.37,2.33,2.087,0,4.173-.014,6.26,0A6.262,6.262,0,0,1,95.266,78.1a11.236,11.236,0,0,1-11.171,9.337q-2.675.025-5.35,0c-.52-.006-.84.03-.966.686a2.015,2.015,0,0,1-2.07,1.73q-4.189.071-8.379.006a2.024,2.024,0,0,1-1.981-1.6c-.189-.778-.563-.828-1.189-.821-1.884.022-3.772.071-5.653-.014a10.929,10.929,0,0,1-9.244-5.431c-.193-.31-.391-.617-.624-.984-2.67,2.75-5.293,5.45-7.914,8.152-.773.8-1.524,1.617-2.321,2.389a1.546,1.546,0,0,1-2.474-.014Q28.386,83.8,20.88,76.031c-.945-.978-.954-1.936-.186-3.213,1.073-1.782,1.072-1.782-.91-2.514-1.261-.466-2.522-.93-3.78-1.4-2.174-.816-2.579-2.393-1.064-4.126.175-.2.345-.406.526-.62-.313-.24-.532.022-.745.1A52.26,52.26,0,0,0,9,66.76a10.165,10.165,0,0,0-5.913,9.271c-.066,1.916-.011,3.836-.016,5.754a4.151,4.151,0,0,1-.053.9,1.4,1.4,0,0,1-1.422,1.2,1.3,1.3,0,0,1-1.481-1.22c0-3.682-.546-7.408.715-11.009a13.144,13.144,0,0,1,6.908-7.651c1.054-.52,2.116-1.034,3.207-1.467a1.218,1.218,0,0,0,.844-1.36q-.031-20.8,0-41.6A18.86,18.86,0,0,1,20.813,2.88,18.257,18.257,0,0,1,28.145.2c.329-.049.654-.135.98-.2h3.837a13.891,13.891,0,0,0,3.887.249A18.551,18.551,0,0,0,41.444,0Zm8.433,30.353c0-1.752-.018-4.14.012-6.528.008-.636-.129-.935-.834-1.07a32.259,32.259,0,0,1-15.15-7.107.721.721,0,0,0-1.116-.029,32.212,32.212,0,0,1-15.239,7.146c-.692.131-.756.451-.752,1.017.024,4.2,0,8.409.045,12.614A14.658,14.658,0,0,0,22.2,43.113a18.229,18.229,0,0,0,9.464,8.381c2.292.982,4.658,1.783,7.229,1.212a20.218,20.218,0,0,0,5.375-1.958c4.725-2.589,8.235-6.166,9.159-11.7.444-2.661.164-5.371.284-8.7m5.8-10.628.033,0c-.06-.94-.047-1.891-.189-2.818A16.067,16.067,0,0,0,41.682,3.1a56.043,56.043,0,0,1-9.074.009c-6.565-.455-11.757,1.978-15.376,7.53a17.246,17.246,0,0,0-2.424,10.44c.022.565-.243,1.284.124,1.652.339.34.892-.279,1.393-.31.235-.015.468-.053.7-.072a.654.654,0,0,0,.669-.6,2.254,2.254,0,0,1,1.986-1.751c.922-.183,1.855-.326,2.767-.551a29.367,29.367,0,0,0,12.685-6.542c1.6-1.418,2.4-1.382,4.056-.019.779.641,1.541,1.306,2.361,1.89a30.242,30.242,0,0,0,12.881,5.188c.791.129,1.653.337,1.9,1.126a1.8,1.8,0,0,0,1.962,1.4,1.492,1.492,0,0,1,.565.207c.5.243.666.033.66-.462-.01-.841,0-1.683,0-2.524m12.016,53.6H68.706c-4.909,0-9.819-.014-14.728.008a3.094,3.094,0,0,0-3.307,3.262,8.169,8.169,0,0,0,7.012,7.686,67.4,67.4,0,0,0,6.952.142c.45.015.537-.235.633-.6A2.131,2.131,0,0,1,67.477,82q4.034-.061,8.07,0a2.094,2.094,0,0,1,2.219,1.809c.115.541.357.62.816.616,1.883-.017,3.768.04,5.649-.022a8.273,8.273,0,0,0,7.994-6.583c.595-2.866-.721-4.492-3.644-4.493q-8.524,0-17.049,0M37.19,71.86a13.586,13.586,0,0,0,2.875-.479,1.759,1.759,0,0,0,1.354-1.407q1.3-4.919,2.723-9.8a2.722,2.722,0,0,0-.19-2.649,3.46,3.46,0,0,1-.547-2.021c0-.8-.254-.92-1.012-.643a13.037,13.037,0,0,1-7.406.866,20.588,20.588,0,0,1-3.287-.952c-.508-.2-.742-.093-.73.5a4.494,4.494,0,0,1-.792,2.666,1.7,1.7,0,0,0-.165,1.6q1.274,4.455,2.514,8.921c.81,2.9,1.049,3.1,4.057,3.367.2.018.4.025.606.038m-22.385-23.8v.909c0,3.7-.007,7.4.016,11.105,0,.259-.308.924.413.716,1.514-.437,3.22-.657,4.452-1.525a14.148,14.148,0,0,1,6.759-2.345c.329-.039.723,0,.941-.286.712-.926.57-2.032.6-3.1.018-.727-.622-.809-1.039-1.083-5.31-3.5-8.813-8.122-9.2-14.7a3.9,3.9,0,0,0-.2-1.675c-.29-.478-1.057-.218-1.584-.416a1.848,1.848,0,0,1-.284-.1c-.708-.413-.885-.172-.879.592.028,3.971.013,7.942.013,11.913m44.712.083V36.737c0-1.417,0-1.415-1.4-1.054a3.833,3.833,0,0,1-.794.143c-.525.02-.655.29-.663.78a18.372,18.372,0,0,1-.569,4.593A19.039,19.039,0,0,1,47.231,52.51a1.54,1.54,0,0,0-.9,1.687c.06.4.089.8.126,1.2A1.555,1.555,0,0,0,48.14,56.97a9.786,9.786,0,0,1,5.183,1.472c1.612,1.177,3.465,1.553,5.242,2.219.778.292.974.118.967-.7-.034-3.938-.015-7.876-.015-11.814M34,84.969c-.754-2.689-1.5-5.335-2.237-7.982-1.5-5.371-2.995-10.745-4.516-16.11-.1-.353.007-1.01-.686-.908-1.823.269-3.708.4-5.053,1.931-1.089,1.238-2.162,2.491-3.277,3.706-.466.507-.512.75.229,1,1.685.573,3.349,1.211,5.013,1.844,1.812.689,2.248,2.015,1.23,3.686a11.1,11.1,0,0,1-.868,1.359c-.476.572-.325.938.163,1.433,3.095,3.14,6.153,6.316,9.23,9.475.2.207.35.5.773.564m6.5-.04a1.121,1.121,0,0,0,.257-.148c2.2-2.266,4.4-4.54,6.613-6.8a1.073,1.073,0,0,0,.323-.9A6.455,6.455,0,0,1,49.181,72.4a.822.822,0,0,0,.154-.891c-.473-1.556.008-2.473,1.566-3.063,1.633-.619,3.267-1.234,4.913-1.813.651-.229.9-.416.292-1.03a22.457,22.457,0,0,1-2.392-2.729c-1.344-1.9-3.27-2.56-5.431-2.875-.7-.1-.993.062-1.189.773-2.142,7.768-4.322,15.526-6.49,23.287-.078.278-.266.545-.109.875m-3.436-.286h.216q1.36-4.831,2.717-9.663c.084-.3-.019-.459-.357-.381a13.136,13.136,0,0,1-5.405-.058l2.829,10.1M55.186,70.09c.009.068.018.135.026.2,2.285,0,4.57-.017,6.855.012.585.007.737-.2.743-.758a10.369,10.369,0,0,1,.239-3.5.342.342,0,0,0-.235-.474q-1.94-.788-3.876-1.584a2.286,2.286,0,0,0,.5.829c1.433,1.694,1.015,3.286-1.072,4.075q-1.589.6-3.179,1.2m15.275-3.442a12.463,12.463,0,0,1,1.583,2.14,2.43,2.43,0,0,0,2.739,1.537c2.488-.112,2.463-.032,2.444-2.484-.007-.892-.413-1.2-1.223-1.2-1.779.006-3.558,0-5.543,0M17.63,29.154h-.011c0-.906,0-1.813,0-2.719,0-1.231-.265-1.38-1.366-.777a2.663,2.663,0,0,0-.9.792,6.119,6.119,0,0,0-.025,5.217,2.7,2.7,0,0,0,1.532,1.074c.53.151.809.1.781-.566-.044-1.005-.012-2.014-.012-3.021m39.108-.022H56.7c0,.739-.028,1.479.01,2.216.025.48-.285,1.187.2,1.39.6.253,1.221-.19,1.706-.63a2.378,2.378,0,0,0,.815-1.466,11.2,11.2,0,0,0,0-3.113A2.664,2.664,0,0,0,57.406,25.4c-.482-.107-.684-.009-.674.513.02,1.074.006,2.149.006,3.224m14.7,57.725c.8,0,1.609-.041,2.408.012.737.049,1.064-.115,1.055-.963-.008-.8-.305-.932-1-.913-1.6.044-3.213.057-4.818,0-.779-.03-.93.242-.95.967-.021.81.3.961,1,.913.766-.052,1.539-.012,2.308-.012M69.481,70.292a9.8,9.8,0,0,0-3.646-3.229c0,1.028.011,1.891,0,2.754-.007.436.247.48.585.478.935-.007,1.871,0,3.065,0" transform="translate(0)" fill="#fff"/>
        <path id="Path_74489" data-name="Path 74489" d="M3.122,439.547c-2.315-.855-3.145-2.553-3.055-4.958C.175,431.7.081,428.8.1,425.91c.008-1.241.757-1.948,1.8-1.729.977.2,1.225.929,1.224,1.818q-.006,4.441,0,8.882c0,1.511.121,1.636,1.585,1.638,1.951,0,3.9-.027,5.854.015.67.015.846-.2.84-.85-.029-3.566-.013-7.133-.014-10.7a1.993,1.993,0,0,1,.354-1.432,1.425,1.425,0,0,1,1.539-.5,1.453,1.453,0,0,1,1.111,1.407c.053.939.025,1.883.026,2.825,0,2.793.016,5.585-.012,8.378-.006.62.112.871.814.87q16.3-.035,32.6-.018c.161,0,.322-.027.586-.05-1.2-2.47-.693-5.056-.766-7.584-.058-2.017-.037-4.038.013-6.055a1.534,1.534,0,0,1,1.576-1.611,1.553,1.553,0,0,1,1.42,1.658c.017.268.009.538.009.807q0,4.441,0,8.882c0,2.862,1.1,3.955,3.974,3.956q17.008,0,34.015,0c2.665,0,3.8-1.131,3.8-3.8.005-3.028,0-6.056,0-9.084a7.491,7.491,0,0,1,.067-1.1,1.378,1.378,0,0,1,1.531-1.29,1.361,1.361,0,0,1,1.4,1.436c.025,3.9.245,7.816-.1,11.7a5.588,5.588,0,0,1-3.962,4.789l-1.025.385Z" transform="translate(-0.048 -336.148)" fill="#fff"/>
        <path id="Path_74490" data-name="Path 74490" d="M154.5,208.9a8.652,8.652,0,0,1-7-3.132c-.742-.923-.737-1.822-.04-2.418.726-.621,1.592-.539,2.329.454,2.009,2.708,7.278,2.7,9.262.022.741-1,1.593-1.1,2.33-.505s.762,1.447.016,2.4a8.514,8.514,0,0,1-6.9,3.177" transform="translate(-117.267 -161.965)" fill="#fff"/>
        <path id="Path_74491" data-name="Path 74491" d="M174.937,154.839c0-.7-.031-1.41.008-2.111a1.465,1.465,0,0,1,2.922-.077c.076.832.064,1.673.064,2.51,0,.434.02.744.587.832a1.386,1.386,0,0,1,1.3,1.7c-.145.974-.849,1.289-1.755,1.271-.4-.008-.808.013-1.206-.032a2,2,0,0,1-1.89-1.883c-.069-.73-.013-1.473-.013-2.21h-.019" transform="translate(-139.598 -120.767)" fill="#fff"/>
        <path id="Path_74492" data-name="Path 74492" d="M222.179,135.173c0-.235-.009-.472,0-.706a1.512,1.512,0,1,1,3.016-.069,14.216,14.216,0,0,1,.005,1.513,1.581,1.581,0,0,1-1.481,1.721c-.9.022-1.5-.664-1.542-1.753-.008-.235,0-.471,0-.706" transform="translate(-177.307 -105.996)" fill="#fff"/>
        <path id="Path_74493" data-name="Path 74493" d="M134.044,135.238a4.257,4.257,0,0,1-.153,1.4,1.388,1.388,0,0,1-1.472.991,1.346,1.346,0,0,1-1.369-1.241,13.048,13.048,0,0,1-.033-2.015,1.44,1.44,0,0,1,1.412-1.526,1.459,1.459,0,0,1,1.561,1.388,9.182,9.182,0,0,1,.053,1.005" transform="translate(-104.54 -106.015)" fill="#fff"/>
      </g>
    </g>
  </g>
</svg>
