<svg xmlns="http://www.w3.org/2000/svg" xmlns:xlink="http://www.w3.org/1999/xlink" width="140" height="140" viewBox="0 0 140 140">
  <defs>
    <clipPath id="clip-path">
      <rect id="Rectangle_13891" data-name="Rectangle 13891" width="111.658" height="101.59" fill="#fff"/>
    </clipPath>
    <clipPath id="clip-Just_Transition_Climate_actions">
      <rect width="140" height="140"/>
    </clipPath>
  </defs>
  <g id="Just_Transition_Climate_actions" data-name="Just Transition &amp; Climate actions" clip-path="url(#clip-Just_Transition_Climate_actions)">
    <g id="Group_50622" data-name="Group 50622" transform="translate(14.171 19.205)" opacity="0.6">
      <g id="Group_49722" data-name="Group 49722" transform="translate(0 0)" clip-path="url(#clip-path)">
        <path id="Path_73924" data-name="Path 73924" d="M85.355,146.16c0-.479,0-.76,0-1.041.03-2.207-.1-4.43.125-6.617a8.847,8.847,0,0,1,9.386-7.732,8.937,8.937,0,0,1,8.454,8.68c.028,2.327.005,4.654.005,7.095h3c.4,0,.795-.014,1.191.005a1.717,1.717,0,1,1,0,3.43c-1.067.027-2.134.006-3.2.006h-.936v5.5h2.126c.72,0,1.441-.024,2.159.011a1.675,1.675,0,0,1,1.646,1.737,1.642,1.642,0,0,1-1.645,1.654c-1.141.036-2.283.012-3.425.014h-.859v5.54c1.418,0,2.8-.019,4.185.006a1.7,1.7,0,1,1-.027,3.4c-1.362.015-2.725,0-4.172,0-.015.3-.039.561-.039.819,0,2.331.015,4.663-.015,6.994a1.191,1.191,0,0,0,.606,1.125c5.932,4.158,8.625,9.858,7.477,16.944-1.18,7.281-5.668,11.986-12.858,13.914a17.236,17.236,0,0,1-19.1-7.845c-.151-.252-.3-.5-.494-.82a39.714,39.714,0,0,1-29.645,8.973,38.847,38.847,0,0,1-20.972-8.675,38.068,38.068,0,0,1-10.352-12.946,38.695,38.695,0,0,1-.934-32.347c-.4,0-.68,0-.964,0-2.331-.034-4.683.112-6.989-.142A10.3,10.3,0,0,1,.022,142.907a10.449,10.449,0,0,1,10.318-9.676c.321,0,.642,0,.969,0,1.705-5.354,5.237-8.476,11.044-8.175,5.14.266,8.226,3.326,9.629,7.963,1.511.274,2.957.552,4.41.783a1.528,1.528,0,0,0,.761-.209,39.829,39.829,0,0,1,47.613,11.853c.146.184.3.363.59.715M45.139,165.991c.174.679.336,1.267.475,1.86a5.8,5.8,0,0,1-5.174,7.373,8.118,8.118,0,0,1-7.106-2.446,5.445,5.445,0,0,0-3.1-1.569,42.387,42.387,0,0,0-10.244-.2c-.829.055-1.655.143-2.6.226,1.4,13.337,7.69,23.4,19.694,29.582,9.322,4.8,19.048,5.063,29.1,1.64-.764-.441-1.35-.758-1.915-1.11a7.076,7.076,0,0,0-4.094-1.13c-.965.038-1.927.151-2.89.231-2.74.226-5.477.51-8.221.653a6.451,6.451,0,0,1-3.756-1.014,3.681,3.681,0,0,1-1.178-5.429,5.7,5.7,0,0,1,1.928-1.782,21.25,21.25,0,0,1,3.681-1.306c1.376-.4,2.8-.637,4.168-1.067,1.067-.336,1.342-.9.967-1.941a27.166,27.166,0,0,0-1.354-2.852c-.317-.637-.719-1.237-.989-1.891-1.25-3.029-.149-5.571,2.919-6.806a8.42,8.42,0,0,1,.985-.332,19,19,0,0,1,8.192-.341,33.513,33.513,0,0,0,12.281.309c2.807-.55,5.556-1.392,8.386-2.117V162.244c-.97.858-1.844,1.651-2.739,2.418a27.581,27.581,0,0,1-6.739,4.542,10.851,10.851,0,0,1-9.615-.436c-2.443-1.215-3.052-3.505-1.622-5.822a10.528,10.528,0,0,1,1.757-2.177c1.464-1.358,3.015-2.624,4.531-3.928l1.306-1.126c-.046-.128-.05-.184-.08-.216-.219-.234-.437-.469-.668-.691a17.431,17.431,0,0,1-4.735-8.041,8.838,8.838,0,0,1,1.334-7.776c.405-.583.874-1.124,1.357-1.74a35.971,35.971,0,0,0-14.766-3.672c.1.437.166.769.244,1.1.611,2.59.519,4.957-1.87,6.772-.829.63-.841,1.057-.25,1.913a32.767,32.767,0,0,0,2.156,2.714c2.4,2.794,3.062,5.924,1.419,9.228a61.7,61.7,0,0,1-4.276,7.051,8.142,8.142,0,0,1-5.767,3.431c-.339.052-.676.121-1.132.2m-27.692,1.688a1.742,1.742,0,0,0,.307.054c.446-.028.891-.063,1.336-.094a52.011,52.011,0,0,1,10.993.07,8.766,8.766,0,0,1,5.768,2.711,4.564,4.564,0,0,0,3.985,1.431,2.435,2.435,0,0,0,2.409-3.251c-.141-.6-.331-1.183-.45-1.783-.48-2.406.528-3.834,2.972-4.241.367-.061.735-.112,1.1-.176a4.743,4.743,0,0,0,3.012-1.617,29.457,29.457,0,0,0,4.516-7.4A4.293,4.293,0,0,0,52.772,149c-.442-.59-.981-1.11-1.415-1.7a22.267,22.267,0,0,1-1.977-2.922,4.073,4.073,0,0,1,.641-4.794,8.512,8.512,0,0,1,1.08-1.114,1.47,1.47,0,0,0,.6-1.482c-.154-.917-.347-1.827-.508-2.743-.085-.48-.342-.65-.827-.559-2.311.433-4.633.81-6.931,1.3a33.837,33.837,0,0,0-3.285,1.048c.129.173.18.255.244.326,3.1,3.394,3.913,7.274,2.045,11.444-1.885,4.207-5.387,6.186-10.029,6.189-3.6,0-7.2.011-10.794-.012-.54,0-.871.106-1.058.648-.633,1.83-1.379,3.626-1.935,5.478a30.046,30.046,0,0,0-1.17,7.579m82.424-9.252q0-9.165,0-18.331a9.467,9.467,0,0,0-.085-1.32,5.518,5.518,0,0,0-10.948,1.232q0,18.331.021,36.662a2.556,2.556,0,0,1-1.449,2.544,13.546,13.546,0,0,0-6.17,16.262,13.894,13.894,0,0,0,26.7-1.753,13.593,13.593,0,0,0-6.827-14.618,2.179,2.179,0,0,1-1.255-2.127c.024-6.184.012-12.368.012-18.552M21.687,150.55v-.005c3.745,0,7.491.034,11.235-.01a6.963,6.963,0,1,0-1.779-13.688c-1.455.336-2.338-.3-2.417-1.752a7.039,7.039,0,0,0-14.047-.224c-.15,1.789-.851,2.3-2.657,1.923A6.966,6.966,0,1,0,10.6,150.543c3.7.031,7.391.007,11.087.007m60.249,28.476a2.517,2.517,0,0,0-.388.044,33.8,33.8,0,0,1-16.111.852,19.247,19.247,0,0,0-7.752-.029c-2.376.562-2.743,1.462-1.523,3.554a28.611,28.611,0,0,1,1.557,2.841c1.719,3.909.457,6.6-3.673,7.8-1.448.42-2.959.621-4.416,1.011a9.565,9.565,0,0,0-2.157.926,1.192,1.192,0,0,0-.541.871c0,.184.48.472.783.538a7.746,7.746,0,0,0,2.2.279c2.617-.209,5.229-.492,7.839-.784a12.572,12.572,0,0,1,8.189,1.419c1.226.736,2.517,1.372,3.812,1.986a1.283,1.283,0,0,0,1.065-.046c2.1-1.389,4.156-2.835,6.232-4.255a.966.966,0,0,0,.414-1.175,16.819,16.819,0,0,1,4-15.273c.138-.158.269-.322.466-.558m-9.276-40.11c-.528.55-.92.925-1.272,1.332a5.846,5.846,0,0,0-1.266,5.963,14.226,14.226,0,0,0,3.494,5.908,17.865,17.865,0,0,1,1.456,1.572,2.871,2.871,0,0,1,.04,3.8,14.634,14.634,0,0,1-1.891,1.861c-1.338,1.169-2.74,2.267-4.052,3.463a15.649,15.649,0,0,0-1.665,1.966c-.307.391-.194.736.263.942a8.2,8.2,0,0,0,4.969.866,10.091,10.091,0,0,0,4.513-2.16c2.657-2.168,5.228-4.44,7.813-6.692a1.145,1.145,0,0,0,.281-.769c.029-1.2.041-2.4,0-3.606a2.9,2.9,0,0,0-.324-1.246,33.591,33.591,0,0,0-7.528-9.417c-1.523-1.32-3.175-2.494-4.826-3.78" transform="translate(0 -106.624)" fill="#fff"/>
        <path id="Path_73925" data-name="Path 73925" d="M191.95,21.781c-2.7,0-5.407.02-8.11-.005A7.923,7.923,0,0,1,182.149,6.1c.647-.145,1.469.014,1.934-.332s.525-1.181.864-1.742A8.073,8.073,0,0,1,199.471,5.2a.943.943,0,0,0,.975.727,7.92,7.92,0,0,1,.87,15.739,15.838,15.838,0,0,1-2.6.114c-2.257.014-4.514,0-6.771,0m-.019-3.409c2.68,0,5.36.026,8.039-.009a4.355,4.355,0,0,0,4.107-2.566,4.225,4.225,0,0,0-.549-4.768,4.443,4.443,0,0,0-4.591-1.587c-1.5.289-2.289-.252-2.441-1.735a4.578,4.578,0,0,0-9.145.069C187.236,9.152,186.4,9.71,185,9.481a6,6,0,0,0-2.2,0,4.476,4.476,0,0,0-3.461,4.766,4.545,4.545,0,0,0,4.485,4.112c2.7.032,5.409.008,8.113.01" transform="translate(-149.663 0.001)" fill="#fff"/>
        <path id="Path_73926" data-name="Path 73926" d="M574.3,287.417a10.591,10.591,0,1,1-3.449-.025v-.935q0-16.927,0-33.853a7.026,7.026,0,0,1,.018-.809,1.72,1.72,0,0,1,3.41-.013,6.783,6.783,0,0,1,.019.808q0,16.964,0,33.927v.9m5.481,10.457a7.2,7.2,0,1,0-7.206,7.119,7.195,7.195,0,0,0,7.206-7.119" transform="translate(-478.234 -213.442)" fill="#fff"/>
      </g>
    </g>
  </g>
</svg>
