<svg xmlns="http://www.w3.org/2000/svg" xmlns:xlink="http://www.w3.org/1999/xlink" width="140" height="140" viewBox="0 0 140 140">
  <defs>
    <clipPath id="clip-path">
      <rect id="Rectangle_14408" data-name="Rectangle 14408" width="73.928" height="104.459" fill="#f2f2f2"/>
    </clipPath>
    <clipPath id="clip-Gender_Equality_Equity">
      <rect width="140" height="140"/>
    </clipPath>
  </defs>
  <g id="Gender_Equality_Equity" data-name="Gender Equality &amp; Equity" clip-path="url(#clip-Gender_Equality_Equity)">
    <g id="Group_50623" data-name="Group 50623" transform="translate(33.016 18.197)" opacity="0.7">
      <g id="Group_50156" data-name="Group 50156" clip-path="url(#clip-path)">
        <path id="Path_74431" data-name="Path 74431" d="M43.413,103.927c0,1.37.006,2.741,0,4.111a2.11,2.11,0,0,1-2.3,2.319c-1.87.007-3.741.028-5.611-.013-.648-.014-.812.21-.8.821.03,1.848.014,3.7,0,5.546a2.129,2.129,0,0,1-2.332,2.362q-4.144.026-8.287.009a2.152,2.152,0,0,1-2.3-2.34c-.007-1.871-.023-3.741.008-5.611.01-.581-.134-.8-.758-.788-1.892.039-3.785.02-5.677.01a2.105,2.105,0,0,1-2.288-2.27q-.02-4.176,0-8.352a2.072,2.072,0,0,1,2.189-2.3c1.978-.053,3.958-.041,5.936-.029.454,0,.6-.135.593-.593q-.029-4.208,0-8.417c0-.457-.158-.634-.6-.748A27.909,27.909,0,0,1,6.557,78.4,26.709,26.709,0,0,1,.454,65.4,27.591,27.591,0,0,1,7.8,40.867a27.218,27.218,0,0,1,18.22-8.7,27.621,27.621,0,0,1,18.371,5.013,2.113,2.113,0,0,1,1.03,2.283,2.054,2.054,0,0,1-1.713,1.667,2.256,2.256,0,0,1-1.819-.537,21.867,21.867,0,0,0-6.285-3.1c-8.471-2.519-16.271-1.139-22.965,4.639C5.606,48.194,2.9,56.065,4.772,65.177c1.857,9.043,7.5,14.968,16.18,18.015a28.737,28.737,0,0,0,3.224.8,2.116,2.116,0,0,1,1.83,2.131Q26.034,92.809,26,99.5a2.052,2.052,0,0,1-2.16,2.131c-1.935.032-3.872.03-5.807.008-.552-.006-.781.137-.756.732.045,1.042.033,2.088,0,3.132-.014.479.129.645.626.639,1.848-.026,3.7-.014,5.546-.008,1.754.006,2.562.814,2.563,2.552,0,1.849.015,3.7-.007,5.546-.005.488.16.643.642.63q1.6-.044,3.2,0c.494.015.648-.175.644-.642-.016-1.849-.015-3.7-.01-5.547,0-1.756.8-2.537,2.559-2.54,1.849,0,3.7-.016,5.546.011.493.007.651-.155.64-.634-.026-1.065-.029-2.132,0-3.2.012-.515-.184-.683-.688-.678-1.914.02-3.828.005-5.742.011a2.111,2.111,0,0,1-.542-4.182,5.718,5.718,0,0,1,.974-.067q3.883-.007,7.765,0a2.183,2.183,0,0,1,2.423,2.42c.011,1.37,0,2.741,0,4.111" transform="translate(0 -14.629)" fill="#f2f2f2"/>
        <path id="Path_74432" data-name="Path 74432" d="M99.5,14.152q0,5.807,0,11.613a2.147,2.147,0,0,1-2.395,2.423q-4.11.015-8.22,0a2.145,2.145,0,0,1-2.347-2.352c-.011-1,0-2-.009-3,0-.14.058-.33-.128-.4s-.277.093-.378.2c-2.628,2.626-5.246,5.262-7.888,7.875-.372.368-.145.619.026.908a27.75,27.75,0,0,1,3.1,7.64,27.414,27.414,0,0,1,.272,12.026A27.848,27.848,0,0,1,68.579,69.75a27.466,27.466,0,0,1-9.8,3.748,2.149,2.149,0,0,1-2.687-1.721,2.113,2.113,0,0,1,1.893-2.438,23.688,23.688,0,0,0,12.989-6.856,23.987,23.987,0,0,0,2.556-30.47,2.1,2.1,0,0,1,.3-3.131q6.6-6.623,13.217-13.237a2.06,2.06,0,0,1,2.364-.606,2.129,2.129,0,0,1,1.355,2.169c.007,2.022.015,4.045-.007,6.067-.005.523.134.745.7.726,1.064-.036,2.131-.022,3.2,0,.44.009.615-.131.614-.6q-.018-9.264,0-18.529c0-.487-.169-.639-.643-.638q-9.232.018-18.464,0c-.542,0-.661.213-.648.7.027,1.044.034,2.089,0,3.131-.018.526.175.682.678.678,2.022-.017,4.045,0,6.067-.005a2.426,2.426,0,0,1,1.317.295,2.108,2.108,0,0,1-.976,3.924q-4.631.038-9.264,0A2,2,0,0,1,71.345,11q-.053-4.533,0-9.068A2.07,2.07,0,0,1,73.37.007c.216-.013.435,0,.652,0l22.9,0C98.679,0,99.5.83,99.5,2.6q0,5.774,0,11.548" transform="translate(-25.573 0)" fill="#f2f2f2"/>
        <path id="Path_74433" data-name="Path 74433" d="M35.53,87.178A19.524,19.524,0,1,1,55.084,67.794,19.558,19.558,0,0,1,35.53,87.178m-.136-4.2A15.321,15.321,0,1,0,20.216,67.463,15.347,15.347,0,0,0,35.394,82.98" transform="translate(-7.297 -21.958)" fill="#f2f2f2"/>
        <path id="Path_74434" data-name="Path 74434" d="M44.711,72.145c2.173,0,4.347-.013,6.52.007a2.091,2.091,0,0,1,2.048,1.6,2.119,2.119,0,0,1-1.027,2.337,2.265,2.265,0,0,1-1.19.278c-4.217,0-8.433.012-12.65,0a2.139,2.139,0,0,1-2.265-1.489,2.1,2.1,0,0,1,.982-2.463,2.555,2.555,0,0,1,1.387-.271q3.1-.008,6.195,0" transform="translate(-16.45 -32.912)" fill="#f2f2f2"/>
        <path id="Path_74435" data-name="Path 74435" d="M44.651,92.384c-2.173,0-4.347.011-6.52-.005a2.044,2.044,0,0,1-2.007-1.548,2.1,2.1,0,0,1,.96-2.358,2.171,2.171,0,0,1,1.187-.286c4.282,0,8.563-.007,12.845.008a2.054,2.054,0,0,1,2.207,2.129,2.079,2.079,0,0,1-2.218,2.058c-2.152.009-4.3,0-6.455,0" transform="translate(-16.448 -40.232)" fill="#f2f2f2"/>
      </g>
    </g>
  </g>
</svg>
