<svg xmlns="http://www.w3.org/2000/svg" xmlns:xlink="http://www.w3.org/1999/xlink" width="140" height="140" viewBox="0 0 140 140">
  <defs>
    <clipPath id="clip-path">
      <rect id="Rectangle_13890" data-name="Rectangle 13890" width="115.47" height="92.923" fill="#fff"/>
    </clipPath>
    <clipPath id="clip-Preventive_and_promotive_health">
      <rect width="140" height="140"/>
    </clipPath>
  </defs>
  <g id="Preventive_and_promotive_health" data-name="Preventive and promotive health" clip-path="url(#clip-Preventive_and_promotive_health)">
    <g id="Group_50621" data-name="Group 50621" transform="translate(12 24)" opacity="0.6">
      <g id="Group_49720" data-name="Group 49720" clip-path="url(#clip-path)">
        <path id="Path_73922" data-name="Path 73922" d="M25.648,171.98c-.125.4-.264.929-.452,1.438a3.834,3.834,0,0,1-4.774,2.641c-5.694-1.406-11.386-2.823-17.055-4.325a4.878,4.878,0,0,1-2.112-7.9,1.9,1.9,0,0,1,1.771-.352,2.4,2.4,0,0,1,.9,1.737c.055,1-.678,2.449-.238,2.914.691.73,2.067.851,3.177,1.138,4.5,1.16,9.02,2.226,13.5,3.457,1.329.365,1.732-.064,2.026-1.233q3.728-14.848,7.542-29.675c.33-1.273.009-1.724-1.229-2.025-5.164-1.256-10.317-2.561-15.446-3.95-1.371-.371-1.831.033-2.146,1.319-1.53,6.231-3.138,12.443-4.719,18.662-.075.3-.159.59-.234.886-.279,1.1-1,1.921-2.073,1.4a2.493,2.493,0,0,1-.988-2.141c.561-2.874,1.37-5.7,2.092-8.542.978-3.85,1.94-7.7,2.943-11.547.758-2.9,2.551-3.99,5.49-3.263,5.279,1.306,10.543,2.674,15.814,4.011,3.42.867,4.381,2.4,3.673,5.886-.045.224-.1.445-.257,1.122,1.349-1.005,2.36-1.749,3.36-2.506a11.626,11.626,0,0,1,11.074-1.977c8.456,2.639,16.929,5.227,25.384,7.868,4.029,1.258,6.006,4.772,4.875,8.53-1.11,3.688-4.8,5.506-8.834,4.286-7.426-2.247-14.841-4.533-22.261-6.8-1.122-.343-2.235-.809-1.785-2.243s1.65-1.19,2.76-.855q11.052,3.341,22.1,6.689c2.52.76,4.223.035,4.9-2.045.648-1.989-.433-3.721-2.887-4.479q-12.87-3.978-25.755-7.914a7.889,7.889,0,0,0-7.292,1.29l-.149.107c-6.853,4.97-6.842,4.973-8.885,13.245-.936,3.789-1.928,7.564-3.015,11.817,3.856.824,7.555,2.045,11.327,2.342,12.62.994,25.264,1.68,37.9,2.4a5.052,5.052,0,0,0,2.88-.9q15.864-10.763,31.65-21.641c1.988-1.365,2.523-3.334,1.443-5.027-1.1-1.719-3.032-2.041-5.167-.827q-10.6,6.032-21.191,12.08a5.471,5.471,0,0,1-1.766.932,6.711,6.711,0,0,1-2.095-.42,9.368,9.368,0,0,1,.686-2.178c.246-.414.906-.582,1.382-.858,5.924-3.433,11.858-6.848,17.76-10.318a12.182,12.182,0,0,0,2.556-2.045,3.505,3.505,0,0,0,.146-4.952,3.43,3.43,0,0,0-5.064.154c-4,3.959-7.948,7.97-11.916,11.96-.561.564-1.135,1.115-1.678,1.7-.816.874-1.742,1.562-2.831.581s-.518-1.953.288-2.859c1.79-2.009,3.559-4.039,5.326-6.068,1.369-1.572,1.475-2.939.337-4.035-1.09-1.049-2.578-.858-4.015.553-1.266,1.243-2.511,2.506-3.751,3.776-.814.834-1.734,1.348-2.685.362s-.407-1.894.413-2.7c1.132-1.117,2.243-2.255,3.369-3.379,4.026-4.016,8.175-3.338,10.868,2.164,1.277-1.414,2.413-2.755,3.638-4.009,2.387-2.447,5.121-3.153,7.795-1.962a6.49,6.49,0,0,1,4.11,6.722,4.979,4.979,0,0,0,.069.647c.273.051.553.123.838.153a6.7,6.7,0,0,1,3.16,12.423q-8.08,5.571-16.192,11.1c-5.5,3.766-10.976,7.569-16.527,11.258a5.671,5.671,0,0,1-3.21.952c-12.336-.685-24.678-1.335-36.993-2.313-4.525-.36-8.984-1.564-13.668-2.418" transform="translate(0 -83.793)" fill="#fff"/>
        <path id="Path_73923" data-name="Path 73923" d="M79.5,25.37c-1.918-9.271-1.041-17.42,7.613-22.8,5.174-3.218,13.929-4.155,21.309,2.408,6.749-5.511,14.1-6.821,21.638-2.012,8.237,5.258,9.532,13.212,7.252,22.406,1.827,0,3.508,0,5.189,0,.612,0,1.331-.191,1.808.065a8.285,8.285,0,0,1,1.669,1.589c-.576.514-1.122,1.424-1.734,1.471-2.311.179-4.645.023-6.965.12a2.057,2.057,0,0,0-1.527.866,33.72,33.72,0,0,1-8.228,10.226,81.974,81.974,0,0,1-16.2,11.307,5.276,5.276,0,0,1-5.38.061A74.056,74.056,0,0,1,86.074,36.49a44.3,44.3,0,0,1-4.717-6.719c-.515-.813-.921-1.28-1.95-1.221a45.94,45.94,0,0,1-4.952,0c-1.347-.068-3.458.653-3.471-1.531-.014-2.333,2.18-1.544,3.569-1.631,1.576-.1,3.163-.023,4.947-.023m29.012-15.348c-.435-.478-.724-.789-1.005-1.107s-.54-.668-.84-.971A14.012,14.012,0,0,0,92.409,3.9,13.229,13.229,0,0,0,82.344,14.02a20.807,20.807,0,0,0,.236,9.994c.26,1.125.841,1.394,1.923,1.381,4.465-.055,8.932-.024,13.4-.024,3.184,0,3.184,0,4.428,3.044.183-.457.334-.76.428-1.08,1.28-4.4,2.507-8.817,3.877-13.189.206-.657,1.077-1.106,1.641-1.65.537.571,1.322,1.055,1.558,1.731a35.3,35.3,0,0,1,.971,4.285q1.648,7.693,3.3,15.386a34.367,34.367,0,0,0,2.072-6.308c.37-1.72,1.269-2.271,2.954-2.242,4.465.076,8.932-.011,13.4.048,1.071.014,1.623-.349,1.729-1.367.266-2.543.846-5.109.692-7.629-.483-7.891-8.134-13.913-15.99-12.9-4.4.57-7.707,2.879-10.443,6.519m10.724,18.614c-.239.784-.484,1.533-.7,2.292-.958,3.411-1.848,6.844-2.912,10.222-.207.656-1.081,1.1-1.648,1.645-.535-.579-1.348-1.074-1.552-1.753-.561-1.866-.865-3.81-1.273-5.722-1-4.67-2-9.34-3.1-14.517-.326.964-.5,1.41-.628,1.867-1.119,3.873-2.167,7.768-3.4,11.605-.246.767-1.178,1.314-1.794,1.963-.559-.639-1.352-1.191-1.63-1.935-.7-1.858-1.158-3.8-1.682-5.6H84.077c1.688,2.169,2.96,4.1,4.525,5.76a63.059,63.059,0,0,0,14.746,11.416c6.3,3.6,4.136,3.642,10.518-.1a62.373,62.373,0,0,0,14.977-12c1.352-1.5,2.445-3.234,3.868-5.144Z" transform="translate(-44.925 -0.001)" fill="#fff"/>
      </g>
    </g>
  </g>
</svg>
