<svg xmlns="http://www.w3.org/2000/svg" xmlns:xlink="http://www.w3.org/1999/xlink" width="140" height="140" viewBox="0 0 140 140">
  <defs>
    <clipPath id="clip-path">
      <rect id="Rectangle_14067" data-name="Rectangle 14067" width="111.603" height="94.642" fill="none" stroke="#fff" stroke-width="4"/>
    </clipPath>
    <clipPath id="clip-Inclusive_workplaces">
      <rect width="140" height="140"/>
    </clipPath>
  </defs>
  <g id="Inclusive_workplaces" data-name="Inclusive workplaces" clip-path="url(#clip-Inclusive_workplaces)">
    <g id="Group_50627" data-name="Group 50627" transform="translate(13.925 22.24)" opacity="0.7">
      <g id="Group_49831" data-name="Group 49831" transform="translate(0 0)" clip-path="url(#clip-path)">
        <path id="Path_74035" data-name="Path 74035" d="M75.42,37.745,91.7,20.925s4.8-3.392,9.022,0c1.529,1.606,3.6,4.359,1.529,8.64S81,54.872,81,54.872A21.141,21.141,0,0,1,65.939,60.6c-9.706-.077-28.211,0-28.211,0a13.987,13.987,0,0,0-9.546,5.747L6.849,45.774l.3-.843S17.7,24.748,42.891,32.7l26.031.075a7.414,7.414,0,0,1,6.5,7.493c0,3.593-2.751,6.651-5.808,6.8H43.883" transform="translate(7.056 20.003)" fill="none" stroke="#fff" stroke-miterlimit="10" stroke-width="4"/>
        <path id="Path_74036" data-name="Path 74036" d="M36.943,56.4h0A14.809,14.809,0,0,1,16,56.773L.7,42.011,10.981,31.353Z" transform="translate(0.721 32.299)" fill="none" stroke="#fff" stroke-linejoin="round" stroke-width="4"/>
        <path id="Path_74037" data-name="Path 74037" d="M40.766.7A21.974,21.974,0,1,1,18.791,22.675,21.974,21.974,0,0,1,40.766.7Z" transform="translate(19.358 0.721)" fill="none" stroke="#fff" stroke-miterlimit="10" stroke-width="4"/>
        <path id="Path_74038" data-name="Path 74038" d="M21.21,21.727a21.973,21.973,0,0,1,34.4.343" transform="translate(21.85 14.008)" fill="none" stroke="#fff" stroke-miterlimit="10" stroke-width="4"/>
        <path id="Path_74039" data-name="Path 74039" d="M32.841,4.317a6.357,6.357,0,1,1-6.358,6.358A6.358,6.358,0,0,1,32.841,4.317Z" transform="translate(27.282 4.447)" fill="none" stroke="#fff" stroke-miterlimit="10" stroke-width="4"/>
      </g>
    </g>
  </g>
</svg>
