<svg xmlns="http://www.w3.org/2000/svg" xmlns:xlink="http://www.w3.org/1999/xlink" width="140" height="140" viewBox="0 0 140 140">
  <defs>
    <clipPath id="clip-Safe_sustainable_workplaces">
      <rect width="140" height="140"/>
    </clipPath>
  </defs>
  <g id="Safe_sustainable_workplaces" data-name="Safe &amp; sustainable workplaces" clip-path="url(#clip-Safe_sustainable_workplaces)">
    <g id="Group_50626" data-name="Group 50626" transform="translate(33.3 24.3)">
      <path id="Path_74485" data-name="Path 74485" d="M14.562,29.209l12.88,12.88L45.663,23.869" transform="translate(8.897 14.87)" fill="none" stroke="#fff" stroke-linejoin="round" stroke-width="4"/>
      <g id="Group_50203" data-name="Group 50203" transform="translate(0.7 0.7)">
        <g id="Group_50205" data-name="Group 50205">
          <path id="Path_74486" data-name="Path 74486" d="M56.6,80.719A48.039,48.039,0,0,1,37.249,91.383a2.328,2.328,0,0,1-1.4.044C18.8,86.139,7.471,75.078,2.219,57.947A37.725,37.725,0,0,1,.7,46.845Q.7,39.922.7,33H.73V16.562c0-1.279,0-1.279,1.271-1.417A63.838,63.838,0,0,0,35.674,1.083c.681-.548,1.034-.478,1.665.025A63.705,63.705,0,0,0,71.57,15.16c.629.062.755.256.755.847,0,2.985,0,10.105,0,13.092V51.631" transform="translate(-0.7 -0.7)" fill="none" stroke="#fff" stroke-linejoin="round" stroke-width="4"/>
        </g>
      </g>
    </g>
  </g>
</svg>
