<svg xmlns="http://www.w3.org/2000/svg" xmlns:xlink="http://www.w3.org/1999/xlink" width="140" height="140" viewBox="0 0 140 140">
  <defs>
    <clipPath id="clip-path">
      <rect id="Rectangle_13889" data-name="Rectangle 13889" width="106.253" height="99.431" fill="#fff"/>
    </clipPath>
    <clipPath id="clip-Social_Protection">
      <rect width="140" height="140"/>
    </clipPath>
  </defs>
  <g id="Social_Protection" data-name="Social Protection" clip-path="url(#clip-Social_Protection)">
    <g id="Group_50620" data-name="Group 50620" transform="translate(17 20)" opacity="0.6">
      <g id="Group_49718" data-name="Group 49718" clip-path="url(#clip-path)">
        <path id="Path_73918" data-name="Path 73918" d="M0,82.041c.125-.389.253-.776.373-1.165a8.284,8.284,0,0,1,16.21,2.219c.056,5.175.017,10.35.019,15.526,0,.374,0,.748,0,1.226,3.064.006,5.237,1.6,7.155,3.7.86.943,1.869,1.755,2.694,2.725,3.045,3.58,7.094,5.131,11.582,5.8,2.324.347,4.663.59,6.712,1.9A12.5,12.5,0,0,1,50.983,124.6c.172,8.968.068,17.94.058,26.911a2.038,2.038,0,0,1-2.224,2.188q-10.838.022-21.676,0a2.06,2.06,0,0,1-2.233-2.284c-.017-3.312-.033-6.625.015-9.936a1.383,1.383,0,0,0-.935-1.47c-3.2-1.55-6.416-3.068-9.534-4.767A26.508,26.508,0,0,1,.189,114.526a8.142,8.142,0,0,0-.189-.8V82.041m46.774,67.5c.059-.143.107-.2.107-.264,0-8.213.09-16.428-.036-24.639a8.487,8.487,0,0,0-7.325-8.176c-.99-.152-1.982-.29-2.969-.458-4.93-.834-9.34-2.65-12.741-6.507-1.3-1.474-2.766-2.8-4.169-4.183a4.045,4.045,0,0,0-3.878-1.217,3.966,3.966,0,0,0-3.116,2.864,4.024,4.024,0,0,0,1.165,4.253q5.128,5.131,10.263,10.256a2.075,2.075,0,0,1,.226,3.112,2.122,2.122,0,0,1-3.127-.17c-3.48-3.457-6.976-6.9-10.409-10.4a8.251,8.251,0,0,1,1.063-12.671,1.656,1.656,0,0,0,.6-1.144q.057-8.386.02-16.772a4.146,4.146,0,1,0-8.288-.029c-.013,9.456-.146,18.914.042,28.367.174,8.778,4.285,15.415,11.983,19.685,3.678,2.04,7.505,3.817,11.285,5.672a2.577,2.577,0,0,1,1.6,2.619c-.048,2.9-.015,5.8-.015,8.7v1.109Z" transform="translate(0 -54.274)" fill="#fff"/>
        <path id="Path_73919" data-name="Path 73919" d="M250.529,113.831c-.347,1.678-.569,3.394-1.073,5.024a45.869,45.869,0,0,1-2.1,5.272,2.063,2.063,0,1,1-3.693-1.805,26.057,26.057,0,0,0,2.736-12.7c-.083-8.663-.016-17.328-.029-25.992a4.15,4.15,0,0,0-5.449-4.176,4.067,4.067,0,0,0-2.835,3.82q-.041,8.595.008,17.19a1.32,1.32,0,0,0,.485.9c4.5,3.414,4.908,9.011.913,13.021q-4.974,4.994-9.983,9.954a3.254,3.254,0,0,1-1.162.826,1.919,1.919,0,0,1-2.3-.711,1.94,1.94,0,0,1,.041-2.49,7.367,7.367,0,0,1,.712-.751q4.913-4.909,9.826-9.817a4.147,4.147,0,0,0,.225-6.087c-1.7-1.7-4.221-1.607-6.1.236-1.381,1.355-2.816,2.665-4.1,4.11-3.385,3.823-7.771,5.616-12.666,6.442-1.022.173-2.049.31-3.073.474a8.487,8.487,0,0,0-7.235,8.149c-.125,8.213-.039,16.429-.037,24.644a.9.9,0,0,0,.09.238h17.738v-1.073c0-2.934.025-5.868-.012-8.8a2.44,2.44,0,0,1,1.508-2.462c2.422-1.176,4.82-2.4,7.235-3.591,1.382-.681,2.54-.4,3.116.737s.116,2.272-1.239,2.958c-1.91.966-3.82,1.932-5.753,2.852a1.106,1.106,0,0,0-.717,1.183c.029,3.279.018,6.558.012,9.837,0,1.835-.736,2.558-2.594,2.559q-10.48.005-20.959,0c-1.857,0-2.59-.725-2.591-2.561,0-8.6-.025-17.19.007-25.785a12.927,12.927,0,0,1,9.809-12.783c2.221-.5,4.485-.812,6.706-1.314a13.661,13.661,0,0,0,7.106-4.016c1.443-1.534,3-2.958,4.458-4.483a8.929,8.929,0,0,1,6.362-2.928V98.842c0-5.212-.033-10.425.017-15.636a8.287,8.287,0,0,1,15.847-3.193c.3.685.5,1.418.739,2.13Z" transform="translate(-144.275 -54.376)" fill="#fff"/>
        <path id="Path_73920" data-name="Path 73920" d="M145.062,24.9c.9.184,1.809.335,2.7.558a18.63,18.63,0,0,1,14.083,17.817c.029,2.726.015,5.452,0,8.178a2.125,2.125,0,0,1-2.426,2.411q-16.233.009-32.466,0c-1.652,0-2.468-.773-2.452-2.381.036-3.482-.13-6.988.222-10.44a18.45,18.45,0,0,1,15.86-15.984,2.089,2.089,0,0,0,.711-.227,12.9,12.9,0,0,1-8.356-5.349,11.842,11.842,0,0,1-1.9-9.755A12.45,12.45,0,0,1,155.6,11.533,12.776,12.776,0,0,1,145.062,24.9M157.7,49.682c0-2.16.017-4.225,0-6.289a14.543,14.543,0,0,0-12.959-14.3c-6.755-.92-13.533,3.632-15.515,10.408-.979,3.348-.416,6.759-.591,10.186ZM134.877,12.4a8.3,8.3,0,1,0,8.361-8.243,8.314,8.314,0,0,0-8.361,8.243" transform="translate(-90.048 -0.001)" fill="#fff"/>
        <path id="Path_73921" data-name="Path 73921" d="M338.84,272.724a2.063,2.063,0,1,1,2.071-2.009,2.088,2.088,0,0,1-2.071,2.009" transform="translate(-243.589 -194.43)" fill="#fff"/>
      </g>
    </g>
  </g>
</svg>
