<svg xmlns="http://www.w3.org/2000/svg" xmlns:xlink="http://www.w3.org/1999/xlink" width="66.593" height="56.473" viewBox="0 0 66.593 56.473">
  <defs>
    <clipPath id="clip-path">
      <rect id="Rectangle_14067" data-name="Rectangle 14067" width="66.593" height="56.473" fill="none" stroke="#fff" stroke-width="2"/>
    </clipPath>
  </defs>
  <g id="Group_49832" data-name="Group 49832" opacity="0.7">
    <g id="Group_49831" data-name="Group 49831" transform="translate(0 0)" clip-path="url(#clip-path)">
      <path id="Path_74035" data-name="Path 74035" d="M47.765,30.353l9.717-10.036s2.864-2.024,5.383,0a4.182,4.182,0,0,1,.912,5.156c-1.232,2.554-12.681,15.1-12.681,15.1a12.615,12.615,0,0,1-8.989,3.421c-5.792-.046-16.834,0-16.834,0a8.346,8.346,0,0,0-5.7,3.429L6.849,35.145l.178-.5s6.3-12.044,21.328-7.3l15.533.045a4.424,4.424,0,0,1,3.878,4.471A3.993,3.993,0,0,1,44.3,35.919H28.947" transform="translate(1.448 4.105)" fill="none" stroke="#fff" stroke-width="2"/>
      <path id="Path_74036" data-name="Path 74036" d="M22.326,46.3h0a8.837,8.837,0,0,1-12.494.225L.7,37.713l6.135-6.36Z" transform="translate(0.148 6.628)" fill="none" stroke="#fff" stroke-linejoin="round" stroke-width="2"/>
      <path id="Path_74037" data-name="Path 74037" d="M31.9.7A13.112,13.112,0,1,1,18.791,13.812,13.112,13.112,0,0,1,31.9.7Z" transform="translate(3.973 0.148)" fill="none" stroke="#fff" stroke-width="2"/>
      <path id="Path_74038" data-name="Path 74038" d="M21.21,18.448a13.111,13.111,0,0,1,20.526.2" transform="translate(4.484 2.875)" fill="none" stroke="#fff" stroke-width="2"/>
      <path id="Path_74039" data-name="Path 74039" d="M30.277,4.317a3.794,3.794,0,1,1-3.794,3.794A3.794,3.794,0,0,1,30.277,4.317Z" transform="translate(5.599 0.913)" fill="none" stroke="#fff" stroke-width="2"/>
    </g>
  </g>
</svg>
