<svg id="Group_50155" data-name="Group 50155" xmlns="http://www.w3.org/2000/svg" xmlns:xlink="http://www.w3.org/1999/xlink" width="65.214" height="52.512" viewBox="0 0 65.214 52.512">
  <defs>
    <clipPath id="clip-path">
      <rect id="Rectangle_14407" data-name="Rectangle 14407" width="65.214" height="52.512" fill="#fff"/>
    </clipPath>
  </defs>
  <g id="Group_50154" data-name="Group 50154" clip-path="url(#clip-path)">
    <path id="Path_74428" data-name="Path 74428" d="M56.32,87.6a11.831,11.831,0,0,1,.912-6.449,5.132,5.132,0,0,1,2.55-2.419c2.725-1.325,5.589-2.347,8.26-3.791a22.572,22.572,0,0,0,3.5-2.191,7.105,7.105,0,0,0,.941-.87c.442-.515.971-1.158.717-1.788-.212-.525-.993-.205-1.512-.209-3.493-.025-6.987-.013-10.48-.013H60.114c.549-.739.993-1.339,1.44-1.937a23.857,23.857,0,0,0,4.612-9.4,31.831,31.831,0,0,0,.407-5.948c.066-3.639,4.516-8.466,8.928-7.924a1.03,1.03,0,0,0,.761-.237,7.343,7.343,0,0,1,8.328-.253c3.378,2.051,5.006,5.152,5.565,8.952.361,2.453.416,4.946.957,7.374A35.444,35.444,0,0,0,94.486,69c.123.238.234.481.354.73a1.56,1.56,0,0,1-1.016.133c-3.187.01-6.374.006-9.561.009-.947,0-1.085.219-.642,1.064A4.653,4.653,0,0,0,85,72.4c2.556,1.971,5.552,3.087,8.468,4.36,1.01.441,2.013.9,3.022,1.34a6.544,6.544,0,0,1,3.965,5.836c.12,1.216.136,2.443.2,3.664ZM64.5,67.772h.947q4.642,0,9.285.009c.351,0,.741-.106.768.492a6.577,6.577,0,0,1-1.778,5.4,17.008,17.008,0,0,1-3.507,2.5,64.52,64.52,0,0,1-8.233,3.843,4.924,4.924,0,0,0-3.539,4.333c-.1.963.119,1.094.995,1.092q18.983-.04,37.966-.018c.214,0,.429-.008.643,0,.317.011.395-.145.414-.448a4.974,4.974,0,0,0-2.781-4.889c-1.377-.665-2.789-1.259-4.195-1.863a33.525,33.525,0,0,1-8.2-4.466,4.949,4.949,0,0,1-1.868-5.218c.117-.569.327-.79.956-.78,2.757.043,5.515,0,8.273.037.722.008.825-.15.51-.8a27.069,27.069,0,0,1-2.566-8.861c-.188-1.734-.323-3.473-.618-5.2-.594-3.469-2.285-6.155-5.637-7.47a4.407,4.407,0,0,0-4.751.608,2.8,2.8,0,0,1-2.212.7,5.1,5.1,0,0,0-3.76,1.177,6.891,6.891,0,0,0-3,5.979,21.7,21.7,0,0,1-3.875,13.165.825.825,0,0,0-.239.683" transform="translate(-45.881 -35.089)" fill="#fff"/>
    <path id="Path_74429" data-name="Path 74429" d="M3.5,25.3c.968-1.355,1.846-2.532,2.668-3.746A17.657,17.657,0,0,0,9.409,10.837a8.168,8.168,0,0,1,4.571-7.892c2.084-1.139,4.512-1.443,6.765-2.1,3.748-1.1,6.486,1.069,8.64,3.994.072.1.136.2.2.308.874,1.428.849,1.457-.744,1.991-.43.144-.569.021-.752-.344a8.306,8.306,0,0,0-3.036-3.251,4.6,4.6,0,0,0-5.533.138,2.89,2.89,0,0,1-1.811.532,6.083,6.083,0,0,0-6.165,5.971,21.992,21.992,0,0,1-1.308,8.2,25.987,25.987,0,0,1-2.442,4.592c.243.332.543.2.791.2,2.789.007,5.579.025,8.368-.022.708-.012.846.222.871.881a6.221,6.221,0,0,1-2.877,5.707A46.868,46.868,0,0,1,7.137,33.8c-.644.285-1.282.591-1.945.823a4.146,4.146,0,0,0-2.941,3.726c-.095.76.045.957.8.952,4.23-.026,8.46-.012,12.691-.012a4.772,4.772,0,0,0,.735-.006c.894-.141,1.139.223,1.126,1.108-.011.8-.207,1.031-1.025,1.025-5.209-.04-10.418-.034-15.628-.01-.688,0-1.022-.128-.931-.895.1-.881.1-1.774.195-2.656.3-2.85,2.069-4.407,4.609-5.393a46.648,46.648,0,0,0,7.937-3.825,6.339,6.339,0,0,0,2.607-2.391c.4-.806.308-.94-.58-.942q-5.058-.007-10.116,0H3.5" transform="translate(0 -0.45)" fill="#fff"/>
    <path id="Path_74430" data-name="Path 74430" d="M215.963,24.713c-3.306,0-6.458,0-9.61.006-.29,0-.683-.159-.851.138-.209.37.09.714.315.989a10.025,10.025,0,0,0,2.9,2.217,49.783,49.783,0,0,0,7.437,3.375c3.5,1.3,4.857,3.863,4.889,7.388.017,1.892.033,1.9-1.89,1.9-4.565.008-9.131-.026-13.7.036-.955.013-.913-.433-.929-1.1-.017-.68.049-1.043.907-1.034,4.167.046,8.335,0,12.5.04.858.009,1.013-.246.915-1.051a4.613,4.613,0,0,0-3.031-4.006c-2.537-1.069-5.111-2.065-7.539-3.38a16.872,16.872,0,0,1-3.615-2.5,4.5,4.5,0,0,1-1.175-4.724c.128-.522.509-.435.865-.436q3.815-.006,7.63-.008c.12,0,.241-.023.411-.04a11.176,11.176,0,0,0-.827-2.128,28.141,28.141,0,0,1-1.848-8.58,24.1,24.1,0,0,0-.7-4.066,7.525,7.525,0,0,0-4.113-5.027,4.232,4.232,0,0,0-4.9.361,2.222,2.222,0,0,1-1.687.613c-2.139-.29-3.64.764-4.937,2.258-.933,1.075-.906,1.08-2.13.237-.325-.224-.393-.391-.153-.725,1.69-2.356,3.773-4.011,6.857-3.91a1.217,1.217,0,0,0,.856-.22c2.318-1.783,4.81-1.661,7.241-.4a10.17,10.17,0,0,1,5.438,8.24c.274,2.093.454,4.2.816,6.279a28,28,0,0,0,3.042,8.043c.181.348.354.7.607,1.2" transform="translate(-155.836 0)" fill="#fff"/>
  </g>
</svg>
