<svg id="Group_50157" data-name="Group 50157" xmlns="http://www.w3.org/2000/svg" xmlns:xlink="http://www.w3.org/1999/xlink" width="47.355" height="66.911" viewBox="0 0 47.355 66.911">
  <defs>
    <clipPath id="clip-path">
      <rect id="Rectangle_14408" data-name="Rectangle 14408" width="47.355" height="66.911" fill="#f2f2f2"/>
    </clipPath>
  </defs>
  <g id="Group_50156" data-name="Group 50156" clip-path="url(#clip-path)">
    <path id="Path_74431" data-name="Path 74431" d="M27.808,78.1c0,.878,0,1.756,0,2.633a1.352,1.352,0,0,1-1.476,1.486c-1.2,0-2.4.018-3.594-.008-.415-.009-.52.134-.514.526.02,1.184.009,2.369,0,3.552A1.364,1.364,0,0,1,20.731,87.8q-2.654.017-5.308.006a1.379,1.379,0,0,1-1.472-1.5c0-1.2-.015-2.4,0-3.594.006-.372-.086-.513-.486-.5-1.212.025-2.424.013-3.636.006a1.349,1.349,0,0,1-1.466-1.454q-.013-2.675,0-5.35a1.327,1.327,0,0,1,1.4-1.471c1.267-.034,2.535-.026,3.8-.019.29,0,.382-.086.38-.38q-.018-2.7,0-5.392c0-.293-.1-.406-.381-.479A17.877,17.877,0,0,1,4.2,61.748,17.108,17.108,0,0,1,.29,53.415,17.673,17.673,0,0,1,5,37.7a17.434,17.434,0,0,1,11.671-5.575,17.693,17.693,0,0,1,11.767,3.211A1.353,1.353,0,0,1,29.1,36.8,1.316,1.316,0,0,1,28,37.868a1.445,1.445,0,0,1-1.165-.344,14.007,14.007,0,0,0-4.026-1.989c-5.426-1.614-10.422-.729-14.71,2.971A14.6,14.6,0,0,0,3.057,53.275c1.189,5.792,4.807,9.587,10.364,11.539a18.408,18.408,0,0,0,2.065.512,1.355,1.355,0,0,1,1.172,1.365q.019,4.284,0,8.568a1.314,1.314,0,0,1-1.384,1.365c-1.24.02-2.48.02-3.72.005-.354,0-.5.088-.484.469.029.668.021,1.338,0,2.006-.009.307.083.413.4.409,1.184-.016,2.368-.009,3.552,0a1.429,1.429,0,0,1,1.642,1.635c0,1.184.01,2.369,0,3.552,0,.312.1.412.411.4q1.023-.028,2.048,0c.316.009.415-.112.412-.411-.01-1.184-.01-2.369-.006-3.553,0-1.125.51-1.625,1.639-1.627,1.184,0,2.369-.01,3.552.007.316,0,.417-.1.41-.406-.016-.682-.019-1.366,0-2.048.008-.33-.118-.437-.441-.434-1.226.013-2.452,0-3.678.007a1.352,1.352,0,0,1-.347-2.679,3.662,3.662,0,0,1,.624-.043q2.487,0,4.974,0a1.4,1.4,0,0,1,1.552,1.55c.007.878,0,1.756,0,2.633" transform="translate(0 -20.897)" fill="#f2f2f2"/>
    <path id="Path_74432" data-name="Path 74432" d="M83.884,9.065q0,3.719,0,7.439a1.375,1.375,0,0,1-1.534,1.552q-2.633.009-5.265,0a1.374,1.374,0,0,1-1.5-1.507c-.007-.641,0-1.282-.006-1.922,0-.09.037-.211-.082-.256s-.177.06-.242.125c-1.683,1.682-3.361,3.371-5.052,5.044-.238.235-.093.4.017.582A17.776,17.776,0,0,1,72.2,25.016a17.56,17.56,0,0,1,.174,7.7,17.838,17.838,0,0,1-8.3,11.958,17.593,17.593,0,0,1-6.279,2.4,1.377,1.377,0,0,1-1.721-1.1,1.354,1.354,0,0,1,1.213-1.562,15.174,15.174,0,0,0,8.32-4.392,15.365,15.365,0,0,0,1.637-19.518A1.348,1.348,0,0,1,67.44,18.5q4.229-4.242,8.466-8.479a1.32,1.32,0,0,1,1.514-.388,1.364,1.364,0,0,1,.868,1.389c0,1.3.01,2.591,0,3.887,0,.335.086.477.446.465.682-.023,1.365-.014,2.047,0,.282.006.394-.084.393-.382q-.011-5.934,0-11.869c0-.312-.108-.41-.412-.409q-5.913.011-11.827,0c-.347,0-.423.136-.415.447.017.668.022,1.338,0,2.006-.012.337.112.437.434.434,1.3-.011,2.591,0,3.887,0a1.554,1.554,0,0,1,.844.189A1.35,1.35,0,0,1,73.054,8.3q-2.967.024-5.934,0a1.283,1.283,0,0,1-1.271-1.253q-.034-2.9,0-5.809A1.326,1.326,0,0,1,67.145,0c.139-.008.279,0,.418,0L82.232,0a1.448,1.448,0,0,1,1.652,1.668q0,3.7,0,7.4" transform="translate(-36.53 0)" fill="#f2f2f2"/>
    <path id="Path_74433" data-name="Path 74433" d="M28.508,73.142A12.506,12.506,0,1,1,41.033,60.726,12.528,12.528,0,0,1,28.508,73.142m-.087-2.689A9.814,9.814,0,1,0,18.7,60.514a9.83,9.83,0,0,0,9.722,9.939" transform="translate(-10.424 -31.366)" fill="#f2f2f2"/>
    <path id="Path_74434" data-name="Path 74434" d="M41.6,72.144c1.392,0,2.784-.008,4.177,0a1.339,1.339,0,0,1,1.312,1.025,1.358,1.358,0,0,1-.658,1.5,1.451,1.451,0,0,1-.762.178c-2.7,0-5.4.008-8.1,0a1.37,1.37,0,0,1-1.451-.954,1.344,1.344,0,0,1,.629-1.578,1.637,1.637,0,0,1,.888-.174q1.984-.005,3.968,0" transform="translate(-23.498 -47.013)" fill="#f2f2f2"/>
    <path id="Path_74435" data-name="Path 74435" d="M41.56,90.874c-1.392,0-2.784.007-4.177,0a1.309,1.309,0,0,1-1.285-.992,1.345,1.345,0,0,1,.615-1.51,1.391,1.391,0,0,1,.76-.183c2.743,0,5.485,0,8.228,0a1.315,1.315,0,0,1,1.414,1.364,1.332,1.332,0,0,1-1.42,1.318c-1.378.006-2.757,0-4.135,0" transform="translate(-23.495 -57.468)" fill="#f2f2f2"/>
  </g>
</svg>
