<svg xmlns="http://www.w3.org/2000/svg" width="54.337" height="58.839" viewBox="0 0 54.337 58.839">
  <g id="Group_51503" data-name="Group 51503" transform="translate(-12.517 -10.221)" style="mix-blend-mode: normal;isolation: isolate">
    <g id="Group_50625" data-name="Group 50625" transform="translate(12.517 10.221)">
      <g id="Group_50208" data-name="Group 50208" transform="translate(0)">
        <path id="Path_74488" data-name="Path 74488" d="M25.765,0a23.012,23.012,0,0,1,2.611.632,10.84,10.84,0,0,1,7.213,10.607q.012,11.722-.011,23.439a.93.93,0,0,0,.633.978,5.423,5.423,0,0,0,2.757.582c1.4-.063,2.8-.036,4.193-.036a2.24,2.24,0,0,1,2.5,2.47c0,1.326,0,1.326,1.349,1.326,1.188,0,2.375-.008,3.562,0a3.563,3.563,0,0,1,3.638,4.442,6.394,6.394,0,0,1-6.357,5.313q-1.522.014-3.044,0c-.3,0-.478.017-.55.39a1.147,1.147,0,0,1-1.178.984q-2.384.04-4.768,0a1.152,1.152,0,0,1-1.127-.91c-.108-.443-.32-.471-.677-.467-1.072.013-2.146.04-3.217-.008a6.219,6.219,0,0,1-5.26-3.09c-.11-.176-.222-.351-.355-.56-1.519,1.565-3.012,3.1-4.5,4.639-.44.455-.867.92-1.321,1.359a.88.88,0,0,1-1.408-.008q-4.293-4.4-8.564-8.823a1.32,1.32,0,0,1-.106-1.828c.611-1.014.61-1.014-.518-1.431q-1.076-.4-2.151-.8c-1.237-.464-1.468-1.362-.605-2.348.1-.114.2-.231.3-.353-.178-.137-.3.013-.424.057A29.737,29.737,0,0,0,5.12,37.988a5.784,5.784,0,0,0-3.365,5.275c-.038,1.09-.006,2.183-.009,3.274a2.362,2.362,0,0,1-.03.512.8.8,0,0,1-.809.683.74.74,0,0,1-.843-.694c0-2.1-.311-4.215.407-6.264A7.479,7.479,0,0,1,4.4,36.42c.6-.3,1.2-.588,1.825-.835a.693.693,0,0,0,.48-.774q-.018-11.836,0-23.671a10.732,10.732,0,0,1,5.135-9.5A10.389,10.389,0,0,1,16.014.114c.187-.028.372-.077.558-.114h2.183a7.9,7.9,0,0,0,2.212.142A10.556,10.556,0,0,0,23.581,0Zm4.8,17.271c0-1-.01-2.356.007-3.715,0-.362-.073-.532-.475-.609A18.356,18.356,0,0,1,21.475,8.9a.41.41,0,0,0-.635-.017,18.329,18.329,0,0,1-8.671,4.066c-.394.075-.43.257-.428.579.014,2.39,0,4.785.026,7.178a8.341,8.341,0,0,0,.865,3.822A10.373,10.373,0,0,0,18.016,29.3a6.627,6.627,0,0,0,4.113.69,11.5,11.5,0,0,0,3.058-1.114c2.689-1.473,4.686-3.509,5.212-6.658a41.486,41.486,0,0,0,.162-4.95m3.3-6.048h.019c-.034-.535-.027-1.076-.108-1.6A9.142,9.142,0,0,0,23.717,1.764a31.89,31.89,0,0,1-5.163.005A9.024,9.024,0,0,0,9.8,6.054a9.813,9.813,0,0,0-1.379,5.941c.013.321-.138.731.071.94.193.193.508-.159.793-.176.134-.009.266-.03.4-.041a.372.372,0,0,0,.381-.341,1.283,1.283,0,0,1,1.13-1c.525-.1,1.056-.186,1.574-.314A16.71,16.71,0,0,0,19.99,7.343c.91-.807,1.366-.786,2.308-.011.443.365.877.743,1.343,1.075a17.208,17.208,0,0,0,7.33,2.952c.45.073.941.192,1.081.641a1.024,1.024,0,0,0,1.116.8.849.849,0,0,1,.321.118c.285.138.379.019.376-.263-.006-.479,0-.958,0-1.436m6.837,30.5H39.094c-2.793,0-5.587-.008-8.381,0a1.761,1.761,0,0,0-1.882,1.856,4.648,4.648,0,0,0,3.99,4.373,38.356,38.356,0,0,0,3.956.081c.256.009.306-.134.36-.341a1.213,1.213,0,0,1,1.257-1.029q2.3-.035,4.592,0a1.192,1.192,0,0,1,1.263,1.029c.065.308.2.353.464.351,1.071-.01,2.144.023,3.214-.013a4.707,4.707,0,0,0,4.549-3.746c.339-1.631-.41-2.556-2.074-2.557H40.7M21.161,40.89a7.731,7.731,0,0,0,1.636-.273,1,1,0,0,0,.77-.8q.74-2.8,1.549-5.576a1.549,1.549,0,0,0-.108-1.507,1.969,1.969,0,0,1-.311-1.15c0-.455-.145-.524-.576-.366a7.418,7.418,0,0,1-4.214.493,11.714,11.714,0,0,1-1.87-.542c-.289-.114-.422-.053-.415.285a2.557,2.557,0,0,1-.451,1.517.967.967,0,0,0-.094.91q.725,2.535,1.431,5.076c.461,1.65.6,1.764,2.309,1.916.114.01.228.014.345.022M8.423,27.351v.517c0,2.105,0,4.211.009,6.319,0,.147-.175.526.235.407a8.465,8.465,0,0,0,2.533-.868,8.05,8.05,0,0,1,3.846-1.334c.187-.022.411,0,.535-.163a2.789,2.789,0,0,0,.341-1.764c.01-.414-.354-.46-.591-.616-3.021-1.992-5.015-4.622-5.235-8.365a2.219,2.219,0,0,0-.114-.953c-.165-.272-.6-.124-.9-.237a1.052,1.052,0,0,1-.162-.057c-.4-.235-.5-.1-.5.337.016,2.26.007,4.519.007,6.779M33.87,27.4V20.9c0-.806,0-.805-.8-.6a2.181,2.181,0,0,1-.452.081c-.3.011-.373.165-.377.444a10.454,10.454,0,0,1-.324,2.614,10.834,10.834,0,0,1-5.046,6.436.876.876,0,0,0-.512.96c.034.228.051.455.072.683a.885.885,0,0,0,.958.9,5.568,5.568,0,0,1,2.949.838,11.546,11.546,0,0,0,2.983,1.263c.443.166.554.067.55-.4-.019-2.241-.009-4.482-.009-6.722M19.346,48.349c-.429-1.53-.854-3.036-1.273-4.542q-1.28-4.584-2.57-9.167c-.057-.2,0-.575-.39-.517a4.257,4.257,0,0,0-2.875,1.1c-.62.7-1.23,1.417-1.865,2.109-.265.288-.291.427.13.569.959.326,1.906.689,2.852,1.049a1.276,1.276,0,0,1,.7,2.1,6.316,6.316,0,0,1-.494.773c-.271.325-.185.534.093.815,1.761,1.787,3.5,3.594,5.252,5.391.114.118.2.285.44.321m3.7-.023a.638.638,0,0,0,.146-.084q1.878-1.934,3.763-3.869a.611.611,0,0,0,.184-.512,3.673,3.673,0,0,1,.846-2.662.468.468,0,0,0,.088-.507,1.238,1.238,0,0,1,.891-1.743c.929-.352,1.859-.7,2.8-1.032.37-.13.512-.237.166-.586a12.779,12.779,0,0,1-1.361-1.553,4.207,4.207,0,0,0-3.09-1.636c-.4-.057-.565.035-.677.44C25.577,39,24.337,43.415,23.1,47.831c-.044.158-.151.31-.062.5m-1.955-.163h.123q.774-2.749,1.546-5.5c.048-.171-.011-.261-.2-.217a7.475,7.475,0,0,1-3.076-.033l1.61,5.747M31.4,39.883c.005.039.01.077.015.114,1.3,0,2.6-.01,3.9.007.333,0,.419-.114.423-.431a5.9,5.9,0,0,1,.136-1.992.195.195,0,0,0-.134-.27q-1.1-.448-2.206-.9a1.3,1.3,0,0,0,.285.472,1.314,1.314,0,0,1-.61,2.319l-1.809.683m8.692-1.959a7.092,7.092,0,0,1,.9,1.218,1.383,1.383,0,0,0,1.559.875c1.416-.064,1.4-.018,1.391-1.413,0-.508-.235-.683-.7-.683-1.012,0-2.025,0-3.154,0M10.031,16.589h-.006V15.042c0-.7-.151-.785-.777-.442a1.515,1.515,0,0,0-.512.451,3.482,3.482,0,0,0-.014,2.969,1.536,1.536,0,0,0,.872.611c.3.086.46.057.444-.322-.025-.572-.007-1.146-.007-1.719m22.253-.013h-.021c0,.421-.016.842.006,1.261.014.273-.162.675.114.791.341.144.695-.108.971-.358a1.353,1.353,0,0,0,.464-.834,6.373,6.373,0,0,0,0-1.771,1.516,1.516,0,0,0-1.152-1.211c-.274-.061-.389-.005-.384.292.011.611,0,1.223,0,1.835m8.365,32.847c.455,0,.916-.023,1.37.007.419.028.605-.065.6-.548,0-.455-.174-.53-.569-.52-.91.025-1.828.032-2.742,0-.443-.017-.529.138-.541.55-.012.461.171.547.569.52.436-.03.876-.007,1.313-.007M39.535,40A5.576,5.576,0,0,0,37.46,38.16c0,.585.006,1.076,0,1.567,0,.248.141.273.333.272.532,0,1.065,0,1.744,0" transform="translate(0.003)" fill="#fff"/>
        <path id="Path_74489" data-name="Path 74489" d="M1.8,431.646a2.554,2.554,0,0,1-1.738-2.821c.061-1.644.008-3.294.019-4.939,0-.706.431-1.108,1.024-.984.556.114.7.529.7,1.034q0,2.527,0,5.054c0,.86.069.931.9.932,1.11,0,2.219-.015,3.331.009.381.009.481-.114.478-.484-.017-2.029-.007-4.059-.008-6.089a1.134,1.134,0,0,1,.2-.815.811.811,0,0,1,.876-.285.827.827,0,0,1,.632.8c.03.534.014,1.071.015,1.607,0,1.589.009,3.178-.007,4.767,0,.353.064.5.463.5q9.275-.02,18.55-.01c.092,0,.183-.015.333-.028-.683-1.405-.394-2.877-.436-4.315-.033-1.148-.021-2.3.007-3.445a.873.873,0,0,1,.9-.917.884.884,0,0,1,.808.943c.01.153.005.306.005.459v5.054c0,1.629.626,2.25,2.261,2.251H50.468c1.516,0,2.162-.644,2.162-2.162q0-2.584,0-5.169a4.263,4.263,0,0,1,.038-.626.784.784,0,0,1,.871-.734.774.774,0,0,1,.8.817c.014,2.219.139,4.447-.057,6.658a3.18,3.18,0,0,1-2.254,2.725l-.583.219Z" transform="translate(-0.052 -372.81)" fill="#fff"/>
        <path id="Path_74490" data-name="Path 74490" d="M151.242,206.337a4.923,4.923,0,0,1-3.983-1.782c-.422-.525-.419-1.037-.023-1.376.413-.353.906-.307,1.325.258a3.6,3.6,0,0,0,5.27.013c.422-.569.906-.626,1.326-.287s.434.823.009,1.366a4.845,4.845,0,0,1-3.926,1.808" transform="translate(-130.054 -179.63)" fill="#fff"/>
        <path id="Path_74491" data-name="Path 74491" d="M174.932,153.325c0-.4-.018-.8,0-1.2a.834.834,0,0,1,1.663-.044c.043.473.036.952.036,1.428,0,.247.011.423.334.473a.789.789,0,0,1,.74.967c-.083.554-.483.733-1,.723-.228,0-.46.007-.686-.018a1.138,1.138,0,0,1-1.075-1.071c-.039-.415-.007-.838-.007-1.258h-.011" transform="translate(-154.822 -133.937)" fill="#fff"/>
        <path id="Path_74492" data-name="Path 74492" d="M222.176,134.157c0-.134-.005-.269,0-.4a.86.86,0,1,1,1.716-.039,8.1,8.1,0,0,1,0,.861.9.9,0,0,1-.843.979c-.512.013-.854-.378-.877-1,0-.134,0-.268,0-.4" transform="translate(-196.642 -117.555)" fill="#fff"/>
        <path id="Path_74493" data-name="Path 74493" d="M132.729,134.206a2.422,2.422,0,0,1-.087.8.79.79,0,0,1-.838.564.766.766,0,0,1-.779-.706,7.427,7.427,0,0,1-.019-1.147.819.819,0,0,1,.8-.868.83.83,0,0,1,.888.79,5.23,5.23,0,0,1,.03.572" transform="translate(-115.939 -117.577)" fill="#fff"/>
      </g>
    </g>
  </g>
</svg>
