<svg xmlns="http://www.w3.org/2000/svg" xmlns:xlink="http://www.w3.org/1999/xlink" width="77.626" height="72.741" viewBox="0 0 77.626 72.741">
  <defs>
    <clipPath id="clip-path">
      <rect id="Rectangle_14067" data-name="Rectangle 14067" width="77.626" height="72.741" transform="translate(-3 -7)" fill="#fff"/>
    </clipPath>
  </defs>
  <g id="Group_51511" data-name="Group 51511" transform="translate(-884 -4567.422)">
    <g id="Group_50627" data-name="Group 50627" transform="translate(887 4574.422)">
      <g id="Group_49831" data-name="Group 49831" clip-path="url(#clip-path)">
        <path id="Path_74035" data-name="Path 74035" d="M20.681,51.062,5.691,36.605l.432-1.214.032-.062a19.345,19.345,0,0,1,5.719-6.195,18.457,18.457,0,0,1,7.533-3.1,23.025,23.025,0,0,1,10.727.913l16.616.048.06.007a5.744,5.744,0,0,1,4.158,2.63l9.684-10.005.076-.054a7.009,7.009,0,0,1,2.218-.971,5.333,5.333,0,0,1,4.776,1.008l.052.042.046.048a6.581,6.581,0,0,1,1.586,2.517,5.509,5.509,0,0,1-.429,4.153c-1.353,2.8-12.53,15.088-13.8,16.48l-.026.028-.028.026a14.568,14.568,0,0,1-10.369,3.947c-5.915-.047-17.055,0-18.018,0a8.005,8.005,0,0,0-5.382,3.269ZM8.027,36.08,20.448,48.058a10.016,10.016,0,0,1,6.087-3.2l.064-.008h.064c.119,0,11.954-.049,18.118,0h.02a12.568,12.568,0,0,0,8.926-3.379c3.417-3.747,12.415-13.834,13.451-15.975a3.5,3.5,0,0,0-.758-4.37,3.358,3.358,0,0,0-3-.585,5.246,5.246,0,0,0-1.475.619L51.767,31.678a5.811,5.811,0,0,1,.091,1.131,5.3,5.3,0,0,1-4.679,5.354H30.617v-2H47.1A3.307,3.307,0,0,0,49.859,32.8v-.018A3.75,3.75,0,0,0,46.62,28.99l-16.8-.048-.146-.046a21.166,21.166,0,0,0-9.881-.9,16.468,16.468,0,0,0-6.707,2.731A17.989,17.989,0,0,0,8.027,36.08Z" transform="translate(2.075 5.882)" fill="#fff"/>
        <path id="Path_74036" data-name="Path 74036" d="M17.119,51.334a10.452,10.452,0,0,1-7.294-2.947L.006,38.913A1,1,0,0,1-.02,37.5l6.6-6.84a1,1,0,0,1,1.414-.025L24.655,46.708a1,1,0,0,1,.025,1.414,10.477,10.477,0,0,1-7.561,3.211ZM2.114,38.168l9.1,8.78a8.507,8.507,0,0,0,11.291.466L7.324,32.767Z" transform="translate(0.212 9.498)" fill="#fff"/>
        <path id="Path_74037" data-name="Path 74037" d="M32.894-.3A15.1,15.1,0,0,1,43.573,25.482,15.1,15.1,0,1,1,22.215,4.124,15,15,0,0,1,32.894-.3v0Zm0,28.206A13.1,13.1,0,0,0,42.159,5.538,13.016,13.016,0,0,0,32.894,1.7h0a13.1,13.1,0,0,0-9.266,22.368A13.018,13.018,0,0,0,32.894,27.906Z" transform="translate(5.693 0.212)" fill="#fff"/>
        <path id="Path_74038" data-name="Path 74038" d="M42.5,19.65a13.1,13.1,0,0,0-20.512-.2l-1.553-1.26a15.1,15.1,0,0,1,23.643.236Z" transform="translate(6.426 4.12)" fill="#fff"/>
        <path id="Path_74039" data-name="Path 74039" d="M30.563,3.317h0A5.08,5.08,0,1,1,25.483,8.4,5.085,5.085,0,0,1,30.564,3.317Zm0,8.16a3.08,3.08,0,0,0,0-6.16v0a3.08,3.08,0,1,0,0,6.16Z" transform="translate(8.023 1.308)" fill="#fff"/>
      </g>
    </g>
  </g>
</svg>
