<svg id="Group_49815" data-name="Group 49815" xmlns="http://www.w3.org/2000/svg" xmlns:xlink="http://www.w3.org/1999/xlink" width="66.786" height="53.746" viewBox="0 0 66.786 53.746">
  <defs>
    <clipPath id="clip-path">
      <rect id="Rectangle_13890" data-name="Rectangle 13890" width="66.786" height="53.746" fill="#fff"/>
    </clipPath>
  </defs>
  <g id="Group_49720" data-name="Group 49720" clip-path="url(#clip-path)">
    <path id="Path_73922" data-name="Path 73922" d="M14.835,155.291c-.072.232-.152.537-.261.831a2.218,2.218,0,0,1-2.762,1.527c-3.293-.813-6.585-1.633-9.864-2.5a2.822,2.822,0,0,1-1.222-4.57,1.1,1.1,0,0,1,1.024-.2,1.391,1.391,0,0,1,.523,1c.032.576-.392,1.416-.138,1.685a3.981,3.981,0,0,0,1.838.658c2.6.671,5.217,1.288,7.806,2,.768.211,1-.037,1.172-.713q2.156-8.588,4.362-17.164c.191-.737.005-1-.711-1.171-2.987-.727-5.967-1.481-8.934-2.285-.793-.215-1.059.019-1.241.763-.885,3.6-1.815,7.2-2.729,10.794-.044.171-.092.341-.135.513-.161.638-.577,1.111-1.2.808a1.442,1.442,0,0,1-.571-1.238c.324-1.662.792-3.3,1.21-4.941.566-2.227,1.122-4.456,1.7-6.679a2.316,2.316,0,0,1,3.175-1.887c3.053.755,6.1,1.547,9.147,2.32,1.978.5,2.534,1.387,2.125,3.4-.026.13-.059.258-.149.649.78-.582,1.365-1.012,1.943-1.45a6.724,6.724,0,0,1,6.4-1.143c4.891,1.527,9.791,3.023,14.682,4.551a3.888,3.888,0,1,1-2.29,7.412c-4.3-1.3-8.584-2.622-12.876-3.932-.649-.2-1.293-.468-1.032-1.3s.955-.688,1.6-.494q6.392,1.933,12.784,3.869c1.457.44,2.442.02,2.835-1.183.375-1.15-.251-2.152-1.67-2.591q-7.444-2.3-14.9-4.578a4.563,4.563,0,0,0-4.218.746l-.086.062c-3.964,2.874-3.957,2.876-5.139,7.661-.541,2.191-1.115,4.375-1.744,6.835a51.737,51.737,0,0,0,6.552,1.354c7.3.575,14.613.972,21.923,1.388a2.922,2.922,0,0,0,1.666-.523q9.176-6.225,18.306-12.517a2.058,2.058,0,0,0,.835-2.908c-.634-.994-1.754-1.181-2.988-.478q-6.131,3.489-12.257,6.987a3.165,3.165,0,0,1-1.021.539,3.881,3.881,0,0,1-1.212-.243,5.418,5.418,0,0,1,.4-1.26c.142-.239.524-.337.8-.5,3.426-1.986,6.859-3.961,10.272-5.968a7.046,7.046,0,0,0,1.478-1.183,2.027,2.027,0,0,0,.084-2.864,1.984,1.984,0,0,0-2.929.089c-2.313,2.29-4.6,4.61-6.892,6.918-.324.326-.657.645-.97.981-.472.506-1.007.9-1.637.336s-.3-1.13.167-1.653c1.036-1.162,2.058-2.336,3.081-3.51.792-.909.853-1.7.195-2.334-.63-.607-1.491-.5-2.322.32-.732.719-1.453,1.45-2.169,2.184-.471.482-1,.78-1.553.209s-.235-1.1.239-1.564c.655-.646,1.3-1.3,1.949-1.954,2.329-2.323,4.729-1.931,6.286,1.251.739-.818,1.4-1.593,2.1-2.319a3.843,3.843,0,0,1,4.509-1.135,3.754,3.754,0,0,1,2.377,3.888,2.88,2.88,0,0,0,.04.374c.158.029.32.071.485.088a3.876,3.876,0,0,1,1.828,7.185q-4.673,3.222-9.365,6.418c-3.181,2.178-6.348,4.378-9.559,6.511a3.28,3.28,0,0,1-1.856.551c-7.135-.4-14.273-.772-21.4-1.338-2.617-.208-5.2-.9-7.906-1.4" transform="translate(0 -104.284)" fill="#fff"/>
    <path id="Path_73923" data-name="Path 73923" d="M75.908,14.674c-1.109-5.362-.6-10.075,4.4-13.188A10.289,10.289,0,0,1,92.637,2.878c3.9-3.187,8.157-3.945,12.515-1.164,4.764,3.041,5.513,7.642,4.194,12.959,1.057,0,2.029,0,3,0,.354,0,.77-.111,1.046.037a4.791,4.791,0,0,1,.965.919c-.333.3-.649.824-1,.851-1.336.1-2.687.013-4.029.07a1.19,1.19,0,0,0-.883.5,19.5,19.5,0,0,1-4.759,5.915,47.413,47.413,0,0,1-9.372,6.54,3.052,3.052,0,0,1-3.112.035,42.833,42.833,0,0,1-11.49-8.437,25.621,25.621,0,0,1-2.728-3.886c-.3-.47-.533-.74-1.128-.706a26.571,26.571,0,0,1-2.864,0c-.779-.039-2,.378-2.008-.885-.008-1.349,1.261-.893,2.064-.943.912-.057,1.83-.013,2.862-.013M92.689,5.8c-.251-.276-.419-.456-.581-.64s-.312-.386-.486-.562a8.1,8.1,0,0,0-8.246-2.34,7.651,7.651,0,0,0-5.821,5.854,12.034,12.034,0,0,0,.137,5.78c.15.651.486.806,1.112.8,2.583-.032,5.166-.014,7.749-.014,1.842,0,1.842,0,2.561,1.761.106-.264.193-.44.247-.625.741-2.545,1.45-5.1,2.243-7.628.119-.38.623-.64.949-.955.31.33.764.61.9,1a20.413,20.413,0,0,1,.561,2.478l1.906,8.9a19.878,19.878,0,0,0,1.2-3.649,1.449,1.449,0,0,1,1.709-1.3c2.582.044,5.166-.007,7.749.028.619.008.938-.2,1-.791a27.182,27.182,0,0,0,.4-4.413,8.29,8.29,0,0,0-9.249-7.459,8.759,8.759,0,0,0-6.04,3.77m6.2,10.766c-.138.453-.28.887-.4,1.326-.554,1.973-1.069,3.959-1.684,5.912-.12.379-.626.637-.953.951-.31-.335-.78-.621-.9-1.014-.324-1.079-.5-2.2-.736-3.31-.577-2.7-1.155-5.4-1.795-8.4-.189.557-.287.816-.364,1.08-.647,2.24-1.254,4.493-1.965,6.712-.142.444-.681.76-1.037,1.135-.323-.37-.782-.689-.943-1.119-.4-1.074-.67-2.2-.973-3.241H78.557c.976,1.255,1.712,2.373,2.617,3.331a36.473,36.473,0,0,0,8.529,6.6c3.645,2.08,2.392,2.106,6.084-.055a36.076,36.076,0,0,0,8.662-6.941c.782-.868,1.414-1.87,2.237-2.975Z" transform="translate(-55.911 -0.001)" fill="#fff"/>
  </g>
</svg>
