<svg xmlns="http://www.w3.org/2000/svg" width="57.518" height="56.389" viewBox="0 0 57.518 56.389">
  <g id="Group_51512" data-name="Group 51512" transform="translate(-1010.346 -4353.001)">
    <path id="Path_75135" data-name="Path 75135" d="M-19492.885,4105.2l-1.309-1.769,28.988-21.432.652.477,27.877,20.357-1.3,1.776-27.225-19.88Z" transform="translate(20504.539 271)" fill="#fff"/>
    <path id="Path_75136" data-name="Path 75136" d="M-19440.146,4138.39h-50.094V4101.4h2.2v34.786h45.7v-35.258h2.2Z" transform="translate(20504.539 271)" fill="#fff"/>
    <path id="Rectangle_15093" data-name="Rectangle 15093" d="M2.2,2.2V8.8H13.8V2.2H2.2M0,0H16V11H0Z" transform="translate(1031.539 4367)" fill="#fff"/>
    <path id="Rectangle_15094" data-name="Rectangle 15094" d="M2.2,2.2V6.8H32.8V2.2H2.2M0,0H35V9H0Z" transform="translate(1021.539 4390)" fill="#fff"/>
    <path id="Path_75137" data-name="Path 75137" d="M-19481.295,4131.57h-2.2V4106.08h2.2Z" transform="translate(20504.539 271)" fill="#fff"/>
    <path id="Path_75138" data-name="Path 75138" d="M-19481.295,4118.839h-2.2V4106.08h2.2Z" transform="translate(20538.539 284.652)" fill="#fff"/>
    <path id="Path_75139" data-name="Path 75139" d="M-19444.182,4098.22h-2.2V4087.3h-4.561v5.66h-2.2v-7.86h8.959Z" transform="translate(20504.539 271)" fill="#fff"/>
  </g>
</svg>
