<svg xmlns="http://www.w3.org/2000/svg" width="41.728" height="52.225" viewBox="0 0 41.728 52.225">
  <g id="Group_51505" data-name="Group 51505" transform="translate(-21.703 -15.559)">
    <g id="Group_50626" data-name="Group 50626" transform="translate(21.703 15.559)">
      <path id="Path_74485" data-name="Path 74485" d="M21.448,34.951a1.271,1.271,0,0,1-.9-.374L13.5,27.533l1.8-1.8,6.143,6.143,9.064-9.063,1.8,1.8L22.35,34.578A1.272,1.272,0,0,1,21.448,34.951Z" transform="translate(-0.678 -1.626)" fill="#fff"/>
      <g id="Group_50203" data-name="Group 50203" transform="translate(0 0)">
        <g id="Group_50205" data-name="Group 50205" transform="translate(0)">
          <path id="Path_74486" data-name="Path 74486" d="M20.044,51.422a2.549,2.549,0,0,1-.691-.1l-.033-.01A29.315,29.315,0,0,1,7.184,44.277,28.567,28.567,0,0,1,.085,32.16l0-.015A21.891,21.891,0,0,1-.8,25.706V18.142a1.285,1.285,0,0,1,.016-.205V9.151A1.988,1.988,0,0,1-.372,7.678a1.987,1.987,0,0,1,1.42-.57A33.557,33.557,0,0,0,18.8-.3L18.8-.309a1.821,1.821,0,0,1,2.506.01l.011.009a33.542,33.542,0,0,0,8.469,5.041,33.542,33.542,0,0,0,9.568,2.364h0a1.72,1.72,0,0,1,1.184.569,1.742,1.742,0,0,1,.379,1.164V28.332H38.374V9.576A36.088,36.088,0,0,1,28.82,7.111a36.089,36.089,0,0,1-8.77-5.148A36.089,36.089,0,0,1,1.766,9.594v8.547a1.285,1.285,0,0,1-.016.205v7.367q0,.008,0,.017a19.341,19.341,0,0,0,.777,5.689A26.047,26.047,0,0,0,8.98,42.465a26.783,26.783,0,0,0,11.065,6.4c.026-.009.051-.017.077-.025A25.126,25.126,0,0,0,30.192,43.3L31.9,45.187a27.69,27.69,0,0,1-11.064,6.106A2.541,2.541,0,0,1,20.044,51.422Z" transform="translate(0.803 0.803)" fill="#fff"/>
        </g>
      </g>
    </g>
  </g>
</svg>
