<svg id="Group_49814" data-name="Group 49814" xmlns="http://www.w3.org/2000/svg" xmlns:xlink="http://www.w3.org/1999/xlink" width="62.517" height="58.502" viewBox="0 0 62.517 58.502">
  <defs>
    <clipPath id="clip-path">
      <rect id="Rectangle_13889" data-name="Rectangle 13889" width="62.517" height="58.503" fill="#fff"/>
    </clipPath>
  </defs>
  <g id="Group_49718" data-name="Group 49718" clip-path="url(#clip-path)">
    <path id="Path_73918" data-name="Path 73918" d="M0,79.133c.073-.229.149-.456.22-.686a4.874,4.874,0,0,1,9.538,1.306c.033,3.045.01,6.09.011,9.135,0,.22,0,.44,0,.722a5.592,5.592,0,0,1,4.21,2.179c.506.555,1.1,1.033,1.585,1.6a10.493,10.493,0,0,0,6.815,3.414,9.617,9.617,0,0,1,3.949,1.12A7.353,7.353,0,0,1,30,104.172c.1,5.276.04,10.555.034,15.833a1.2,1.2,0,0,1-1.308,1.287q-6.377.013-12.754,0a1.212,1.212,0,0,1-1.314-1.344c-.01-1.949-.02-3.9.009-5.846a.814.814,0,0,0-.55-.865c-1.881-.912-3.775-1.8-5.61-2.8A15.6,15.6,0,0,1,.111,98.247,4.792,4.792,0,0,0,0,97.778V79.133m27.521,39.713c.035-.084.063-.12.063-.155,0-4.832.053-9.666-.021-14.5a4.994,4.994,0,0,0-4.31-4.811c-.582-.089-1.166-.171-1.747-.269a12.224,12.224,0,0,1-7.5-3.828c-.765-.867-1.628-1.648-2.453-2.461a2.38,2.38,0,0,0-2.282-.716,2.333,2.333,0,0,0-1.833,1.685,2.368,2.368,0,0,0,.686,2.5q3.017,3.019,6.038,6.034a1.221,1.221,0,0,1,.133,1.831,1.248,1.248,0,0,1-1.84-.1c-2.047-2.034-4.1-4.059-6.124-6.121a4.855,4.855,0,0,1,.625-7.455.974.974,0,0,0,.351-.673q.034-4.934.012-9.868a2.439,2.439,0,1,0-4.877-.017c-.007,5.564-.086,11.129.024,16.69A12.843,12.843,0,0,0,9.521,108.2c2.164,1.2,4.416,2.246,6.64,3.337a1.517,1.517,0,0,1,.943,1.541c-.028,1.705-.009,3.411-.009,5.117v.652Z" transform="translate(0 -62.796)" fill="#fff"/>
    <path id="Path_73919" data-name="Path 73919" d="M229.511,97.9c-.2.987-.335,2-.632,2.956a26.989,26.989,0,0,1-1.233,3.1,1.214,1.214,0,1,1-2.173-1.062,15.331,15.331,0,0,0,1.61-7.47c-.049-5.1-.01-10.2-.017-15.293a2.442,2.442,0,0,0-3.206-2.457,2.393,2.393,0,0,0-1.668,2.248q-.024,5.057,0,10.114a.777.777,0,0,0,.286.529,4.864,4.864,0,0,1,.537,7.661q-2.927,2.938-5.874,5.857a1.914,1.914,0,0,1-.684.486,1.129,1.129,0,0,1-1.356-.418,1.142,1.142,0,0,1,.024-1.465,4.335,4.335,0,0,1,.419-.442q2.891-2.888,5.781-5.776a2.446,2.446,0,1,0-3.456-3.443c-.813.8-1.657,1.568-2.41,2.418a12.173,12.173,0,0,1-7.452,3.791c-.6.1-1.206.183-1.808.279a4.994,4.994,0,0,0-4.257,4.795c-.073,4.832-.023,9.666-.021,14.5a.53.53,0,0,0,.053.14h10.437v-.631c0-1.726.015-3.453-.007-5.179a1.435,1.435,0,0,1,.887-1.449c1.425-.692,2.836-1.412,4.257-2.113a1.236,1.236,0,1,1,1.1,2.174c-1.124.568-2.248,1.137-3.385,1.678a.651.651,0,0,0-.422.7c.017,1.929.011,3.859.007,5.788,0,1.08-.433,1.5-1.526,1.506q-6.166,0-12.332,0c-1.092,0-1.524-.426-1.525-1.507,0-5.057-.015-10.114,0-15.171a7.606,7.606,0,0,1,5.771-7.521c1.307-.294,2.639-.478,3.946-.773a8.038,8.038,0,0,0,4.181-2.363c.849-.9,1.768-1.74,2.623-2.638a5.254,5.254,0,0,1,3.743-1.723v-.642c0-3.067-.019-6.134.01-9.2A4.876,4.876,0,0,1,229.076,78c.179.4.292.835.435,1.253Z" transform="translate(-166.994 -62.914)" fill="#fff"/>
    <path id="Path_73920" data-name="Path 73920" d="M136.6,14.649c.53.108,1.064.2,1.588.328a10.961,10.961,0,0,1,8.286,10.483c.017,1.6.009,3.208,0,4.812a1.25,1.25,0,0,1-1.427,1.419q-9.551.005-19.1,0c-.972,0-1.452-.455-1.442-1.4.021-2.049-.077-4.112.13-6.143a10.855,10.855,0,0,1,9.331-9.4,1.229,1.229,0,0,0,.418-.133,7.589,7.589,0,0,1-4.916-3.147,6.967,6.967,0,0,1-1.118-5.739A7.325,7.325,0,0,1,142.8,6.786a7.517,7.517,0,0,1-6.2,7.863m7.436,14.583c0-1.271.01-2.486,0-3.7a8.545,8.545,0,0,0-16.753-2.293c-.576,1.97-.245,3.977-.348,5.993ZM130.6,7.3a4.882,4.882,0,1,0,4.919-4.85A4.892,4.892,0,0,0,130.6,7.3" transform="translate(-104.228 -0.001)" fill="#fff"/>
    <path id="Path_73921" data-name="Path 73921" d="M337.99,271.025a1.214,1.214,0,1,1,1.218-1.182,1.228,1.228,0,0,1-1.218,1.182" transform="translate(-281.947 -224.959)" fill="#fff"/>
  </g>
</svg>
