<svg xmlns="http://www.w3.org/2000/svg" xmlns:xlink="http://www.w3.org/1999/xlink" width="66.665" height="60.653" viewBox="0 0 66.665 60.653">
  <defs>
    <clipPath id="clip-path">
      <rect id="Rectangle_13891" data-name="Rectangle 13891" width="66.665" height="60.653" fill="#fff"/>
    </clipPath>
  </defs>
  <g id="Group_49816" data-name="Group 49816" transform="translate(0)" opacity="0.999">
    <g id="Group_49722" data-name="Group 49722" transform="translate(0 0)" clip-path="url(#clip-path)">
      <path id="Path_73924" data-name="Path 73924" d="M50.961,137.647c0-.286,0-.454,0-.622.018-1.318-.059-2.645.074-3.951a5.282,5.282,0,0,1,5.6-4.616,5.336,5.336,0,0,1,5.047,5.182c.017,1.389,0,2.779,0,4.236h1.792c.237,0,.475-.008.711,0a1.025,1.025,0,1,1,0,2.048c-.637.016-1.274,0-1.911,0h-.559v3.287h1.269c.43,0,.86-.014,1.289.006a1,1,0,0,1,.983,1.037.98.98,0,0,1-.982.987c-.681.021-1.363.007-2.045.008h-.513v3.308c.847,0,1.673-.012,2.5,0a1.014,1.014,0,1,1-.016,2.027c-.813.009-1.627,0-2.491,0-.009.181-.023.335-.024.489,0,1.392.009,2.784-.009,4.175a.711.711,0,0,0,.362.671c3.541,2.482,5.15,5.886,4.464,10.116a9.778,9.778,0,0,1-7.677,8.307,10.291,10.291,0,0,1-11.4-4.684l-.295-.49a23.711,23.711,0,0,1-17.7,5.358,23.193,23.193,0,0,1-12.521-5.18,22.728,22.728,0,0,1-6.181-7.729,23.1,23.1,0,0,1-.558-19.313c-.236,0-.406,0-.576,0-1.392-.021-2.8.067-4.173-.085a6.152,6.152,0,0,1-5.417-6.53,6.239,6.239,0,0,1,6.16-5.777c.192,0,.383,0,.579,0,1.018-3.2,3.126-5.06,6.594-4.881,3.069.159,4.911,1.986,5.749,4.754.9.163,1.765.329,2.633.467a.912.912,0,0,0,.454-.125,23.78,23.78,0,0,1,28.427,7.076c.087.11.179.217.352.427M26.95,149.487c.1.405.2.756.283,1.111a3.463,3.463,0,0,1-3.089,4.4,4.847,4.847,0,0,1-4.242-1.46,3.251,3.251,0,0,0-1.851-.937,25.308,25.308,0,0,0-6.116-.117c-.495.033-.988.085-1.555.135.837,7.963,4.591,13.97,11.758,17.662,5.566,2.867,11.372,3.023,17.375.979-.456-.263-.806-.453-1.143-.663a4.225,4.225,0,0,0-2.444-.675c-.576.022-1.151.09-1.726.138-1.636.135-3.27.3-4.909.39a3.852,3.852,0,0,1-2.242-.605,2.2,2.2,0,0,1-.7-3.241,3.4,3.4,0,0,1,1.151-1.064,12.688,12.688,0,0,1,2.2-.78c.822-.24,1.673-.38,2.489-.637.637-.2.8-.536.577-1.159a16.218,16.218,0,0,0-.808-1.7c-.189-.38-.429-.739-.59-1.129a2.858,2.858,0,0,1,1.743-4.063,5.026,5.026,0,0,1,.588-.2,11.342,11.342,0,0,1,4.891-.2,20.008,20.008,0,0,0,7.332.185c1.676-.328,3.317-.831,5.007-1.264V147.25c-.579.513-1.1.986-1.635,1.444a16.467,16.467,0,0,1-4.023,2.712,6.478,6.478,0,0,1-5.741-.26,2.256,2.256,0,0,1-.968-3.476,6.285,6.285,0,0,1,1.049-1.3c.874-.811,1.8-1.567,2.7-2.345l.78-.672c-.028-.077-.03-.11-.048-.129-.131-.139-.261-.28-.4-.413a10.407,10.407,0,0,1-2.827-4.8,5.277,5.277,0,0,1,.8-4.643c.242-.348.522-.671.81-1.039a21.476,21.476,0,0,0-8.816-2.192c.058.261.1.459.146.657.365,1.546.31,2.96-1.116,4.043-.5.376-.5.631-.149,1.142a19.562,19.562,0,0,0,1.287,1.621,4.712,4.712,0,0,1,.847,5.51,36.834,36.834,0,0,1-2.553,4.21,4.861,4.861,0,0,1-3.443,2.049c-.2.031-.4.072-.676.121M10.417,150.5a1.039,1.039,0,0,0,.184.032c.266-.016.532-.038.8-.056a31.053,31.053,0,0,1,6.564.042,5.234,5.234,0,0,1,3.444,1.619,2.725,2.725,0,0,0,2.379.855,1.454,1.454,0,0,0,1.438-1.941c-.084-.356-.2-.706-.269-1.064a1.9,1.9,0,0,1,1.774-2.532c.219-.036.439-.067.658-.105a2.832,2.832,0,0,0,1.8-.965,17.587,17.587,0,0,0,2.7-4.421,2.563,2.563,0,0,0-.373-2.617c-.264-.352-.585-.663-.845-1.018a13.294,13.294,0,0,1-1.18-1.745,2.432,2.432,0,0,1,.383-2.862,5.082,5.082,0,0,1,.645-.665.878.878,0,0,0,.356-.885c-.092-.547-.207-1.091-.3-1.637-.051-.287-.2-.388-.494-.334-1.379.259-2.766.484-4.138.777a20.2,20.2,0,0,0-1.962.626c.077.1.107.152.146.195a5.916,5.916,0,0,1,1.221,6.833,6.063,6.063,0,0,1-5.988,3.7c-2.148,0-4.3.007-6.444-.007-.322,0-.52.063-.632.387-.378,1.093-.823,2.165-1.156,3.27a17.939,17.939,0,0,0-.7,4.525m49.211-5.524q0-5.472,0-10.944a5.652,5.652,0,0,0-.051-.788,3.294,3.294,0,0,0-6.537.736q0,10.944.013,21.889a1.526,1.526,0,0,1-.865,1.519,8.088,8.088,0,0,0-3.684,9.709,8.3,8.3,0,0,0,15.943-1.046,8.115,8.115,0,0,0-4.076-8.727,1.3,1.3,0,0,1-.749-1.27c.014-3.692.007-7.384.007-11.076m-46.68-4.7v0c2.236,0,4.472.021,6.708-.006a4.157,4.157,0,1,0-1.062-8.172c-.869.2-1.4-.181-1.443-1.046a4.2,4.2,0,0,0-8.387-.133c-.09,1.068-.508,1.371-1.587,1.148a4.159,4.159,0,1,0-.848,8.209c2.206.019,4.413,0,6.619,0m35.971,17a1.5,1.5,0,0,0-.232.026,20.18,20.18,0,0,1-9.619.509,11.491,11.491,0,0,0-4.628-.017c-1.419.336-1.638.873-.909,2.122a17.082,17.082,0,0,1,.93,1.7c1.026,2.334.273,3.941-2.193,4.656-.864.251-1.766.371-2.637.6a5.711,5.711,0,0,0-1.288.553.712.712,0,0,0-.323.52c0,.11.286.282.467.321a4.624,4.624,0,0,0,1.312.167c1.563-.124,3.122-.294,4.68-.468a7.506,7.506,0,0,1,4.889.847c.732.44,1.5.819,2.276,1.186a.766.766,0,0,0,.636-.028c1.252-.829,2.481-1.693,3.721-2.541a.577.577,0,0,0,.247-.7,10.042,10.042,0,0,1,2.391-9.118c.083-.094.161-.193.278-.333m-5.538-23.947c-.315.328-.549.552-.76.8a3.49,3.49,0,0,0-.756,3.56,8.494,8.494,0,0,0,2.086,3.527,10.668,10.668,0,0,1,.869.939,1.714,1.714,0,0,1,.024,2.267,8.737,8.737,0,0,1-1.129,1.111c-.8.7-1.636,1.354-2.419,2.067a9.343,9.343,0,0,0-.994,1.174c-.183.233-.116.44.157.562a4.9,4.9,0,0,0,2.966.517,6.025,6.025,0,0,0,2.694-1.29c1.586-1.294,3.121-2.651,4.665-4a.684.684,0,0,0,.168-.459c.018-.717.025-1.436,0-2.153a1.732,1.732,0,0,0-.194-.744,20.055,20.055,0,0,0-4.495-5.623c-.909-.788-1.9-1.489-2.881-2.257" transform="translate(0 -114.043)" fill="#fff"/>
      <path id="Path_73925" data-name="Path 73925" d="M185.462,13c-1.614,0-3.228.012-4.842,0a4.731,4.731,0,0,1-1.009-9.36c.386-.087.877.008,1.155-.2s.313-.705.516-1.04a4.82,4.82,0,0,1,8.671.7.563.563,0,0,0,.582.434,4.729,4.729,0,0,1,.519,9.4A9.456,9.456,0,0,1,189.5,13c-1.347.008-2.7,0-4.042,0m-.011-2.035c1.6,0,3.2.016,4.8-.005A2.6,2.6,0,0,0,192.7,9.431a2.522,2.522,0,0,0-.328-2.847,2.653,2.653,0,0,0-2.741-.948c-.9.172-1.367-.151-1.458-1.036a2.733,2.733,0,0,0-5.46.041c-.068.822-.569,1.155-1.4,1.018a3.583,3.583,0,0,0-1.315,0,2.672,2.672,0,0,0-2.066,2.845,2.714,2.714,0,0,0,2.678,2.455c1.614.019,3.229,0,4.844.006" transform="translate(-160.215 0.001)" fill="#fff"/>
      <path id="Path_73926" data-name="Path 73926" d="M569.31,272.459a6.323,6.323,0,1,1-2.059-.015v-.558q0-10.106,0-20.212a4.186,4.186,0,0,1,.01-.483,1.027,1.027,0,0,1,2.036-.007,4.05,4.05,0,0,1,.011.483q0,10.128,0,20.256v.537m3.272,6.243a4.3,4.3,0,1,0-4.3,4.25,4.3,4.3,0,0,0,4.3-4.25" transform="translate(-511.954 -228.293)" fill="#fff"/>
    </g>
  </g>
</svg>
