<svg xmlns="http://www.w3.org/2000/svg" xmlns:xlink="http://www.w3.org/1999/xlink" width="140" height="140" viewBox="0 0 140 140">
  <defs>
    <clipPath id="clip-path">
      <rect id="Rectangle_14725" data-name="Rectangle 14725" width="140" height="140" fill="#fff"/>
    </clipPath>
    <clipPath id="clip-path-2">
      <rect id="Rectangle_14183" data-name="Rectangle 14183" width="133.027" height="114.164" fill="#dbdbdb"/>
    </clipPath>
    <clipPath id="clip-Icon_03">
      <rect width="140" height="140"/>
    </clipPath>
  </defs>
  <g id="Icon_03" data-name="Icon 03" clip-path="url(#clip-Icon_03)">
    <g id="Mask_Group_50090" data-name="Mask Group 50090" clip-path="url(#clip-path)">
      <g id="Group_50658" data-name="Group 50658" transform="translate(3.259 13.223)" style="isolation: isolate">
        <g id="Group_49902" data-name="Group 49902" transform="translate(0 0)" clip-path="url(#clip-path-2)">
          <path id="Path_74122" data-name="Path 74122" d="M45.133,88.746c0-7-.035-14,.014-20.992a26.624,26.624,0,0,0-1.7-9.653,75.96,75.96,0,0,1-5.214-28.5c.03-1.429-.455-1.827-1.841-1.646q-4.262.554-8.552.877c-1.055.08-1.206,1.052-1.814,1.454-3.279,2.166-1.862,4.848-1.039,7.515,2.455,7.945,4.929,15.885,7.3,23.856.43,1.45,1.05,2.185,2.6,1.946a6.973,6.973,0,0,1,1.048-.011c4.542-.014,4.542-.014,4.08,4.624-1.039,10.423-10.787,18.461-21.41,17.656C7.927,85.063-.462,75.713.021,65.241c.059-1.3.532-1.613,1.75-1.681,1.846-.1,4.14.885,5.422-.479,1.125-1.2,1.27-3.331,1.8-5.067,2.394-7.819,4.759-15.645,7.17-23.457a2.44,2.44,0,0,0-.6-2.936A6.657,6.657,0,1,1,25.725,23.1,2.4,2.4,0,0,0,28.3,24.292c2.845-.341,5.7-.651,8.552-.889,1.129-.094,1.6-.528,1.6-1.683-.005-1.678.072-3.359.2-5.032.409-5.167,4.269-8.318,9.327-7.413,1.4.252,1.736-.091,2.136-1.3A7.534,7.534,0,0,1,60.373,3.169a1.881,1.881,0,0,0,2.458-.579c3.744-3.832,9.243-3.361,12.23,1.074a1.565,1.565,0,0,0,2.14.808c5.163-1.506,9.793,1.9,10.092,7.287.08,1.447-.639,3.436.346,4.176.8.6,2.308-1.076,3.613-1.526a18.8,18.8,0,0,1,5.361-.854c1.288-.058,1.737.472,1.669,1.734-.114,2.094-.075,4.2-.182,6.293-.063,1.225.352,1.816,1.632,1.841a28.953,28.953,0,0,1,3.34.318c2.175.3,3.975.313,5.711-1.741,2.287-2.71,6.726-2.318,9.194.282a6.442,6.442,0,0,1-.051,9.233c-1.4,1.254-1.3,2.238-.812,3.777q4.144,13.2,8.08,26.47c.4,1.338.957,2.049,2.453,1.846a19.665,19.665,0,0,1,2.726-.021c2.726.007,2.726.009,2.621,2.826a20.05,20.05,0,0,1-40.09-.842c.005-1.548.423-2.035,2.009-2.024,5.195.035,5.231-.016,6.776-5,2.479-8.012,4.882-16.044,7.375-24.051.374-1.2-.147-1.9-.605-2.95-1.552-3.561-4.621-3.188-7.5-3.5-.416-.045-.845-.012-1.255-.091-1.3-.252-1.734.29-1.711,1.573.047,2.588.021,5.179-.049,7.767A13.649,13.649,0,0,1,93.277,47.47c-1.4,1.261-2.7,2.638-4.015,3.991-5.618,5.772-7.254,12.949-7.683,20.719-.728,13.208-1.1,26.421-1.223,39.643-.007.756.478,1.925-.581,2.175a10.1,10.1,0,0,1-3.531-.014c-.569-.073-.4-.808-.4-1.27.2-16.368.157-32.75,2.135-49.036C78.789,57.037,82.772,52.024,87,47.2a6.123,6.123,0,0,1,1.029-1.045c4.567-3.191,5.825-7.649,5.482-13.009-.273-4.246-.023-8.533.108-12.8.052-1.748-.488-1.989-1.9-1.158a11.167,11.167,0,0,0-5.875,9.555c-.094,1.879.527,4.134-.313,5.541-.8,1.34-3.3.934-5.023,1.45A32.474,32.474,0,0,0,69.086,41.3c-1.968,1.589-2.324-.929-3.342-1.589-1.213-.787-.037-1.41.527-1.893a33.027,33.027,0,0,1,12.648-6.344c.537-.157,1.074-.311,1.615-.451a.95.95,0,0,0,.733-1.106c-.028-.709-.525-.723-1.038-.681a7.668,7.668,0,0,1-4.267-.831c-.758-.4-1.111.012-1.592.478-3.842,3.723-7.809,3.846-11.623.324a1.466,1.466,0,0,0-1.979-.385,7.208,7.208,0,0,1-8.076-.8,1.555,1.555,0,0,0-2.185.037A6.747,6.747,0,0,1,44.5,29.065c-1.806-.555-1.806.276-1.792,1.6a69.183,69.183,0,0,0,4.255,23.622,42.918,42.918,0,0,1,2.766,16c-.259,13.992-.385,27.986-.45,41.977-.01,1.953-.947,1.919-2.327,1.893-1.344-.024-2.338.079-2.3-1.907.126-7.833.052-15.67.052-23.5h.432m-24.9-20.62c-4.616,0-9.231.024-13.847-.018-1.309-.01-1.688.3-1.333,1.7a15.555,15.555,0,0,0,29.989.283c.443-1.641.058-2.042-1.592-2.007-4.4.1-8.811.033-13.217.037m92.6.012c-4.407,0-8.816.107-13.219-.049-2.01-.072-1.993.707-1.564,2.2a15.553,15.553,0,0,0,29.933-.476c.355-1.373.065-1.711-1.3-1.694-4.616.059-9.233.023-13.848.019m-92.488-30.1c-.168,0-.336,0-.5,0Q16.109,50.222,12.378,62.4c-.317,1.038.318,1.178,1.122,1.176q6.6-.005,13.2.007c1,0,1.431-.266,1.041-1.365-.537-1.51-.959-3.06-1.426-4.593q-2.984-9.795-5.965-19.587m92.714-.355a6.256,6.256,0,0,0-.476.845c-2.411,7.87-4.785,15.752-7.245,23.608-.486,1.55.381,1.449,1.352,1.449,4.12,0,8.241-.052,12.359.03,1.622.031,1.895-.444,1.412-1.954-1.659-5.182-3.191-10.4-4.785-15.605-.833-2.712-1.692-5.415-2.617-8.372M71.651,15.847h.066c0-2.509.017-5.02-.007-7.529-.021-2.206-1.247-3.678-3.076-3.763-1.865-.087-3.342,1.471-3.366,3.72q-.087,7.635-.054,15.269c.005,2.206,1.3,3.624,3.179,3.636,1.853.014,3.207-1.433,3.246-3.594.047-2.579.012-5.158.012-7.739m-11,.409H60.7c0-1.954.047-3.91-.012-5.863A3.222,3.222,0,0,0,57.6,7.083a3.161,3.161,0,0,0-3.305,3.293c-.1,3.767-.135,7.537-.084,11.3a3.152,3.152,0,0,0,3.183,3.414A3.278,3.278,0,0,0,60.637,21.7c.07-1.813.014-3.631.014-5.445m15.6.31h-.044c0,1.671-.1,3.349.024,5.013a3.152,3.152,0,0,0,3.291,3.1,2.98,2.98,0,0,0,3.111-3.02c.124-3.268.177-6.545.086-9.814a3.076,3.076,0,0,0-3.163-3.2,3.231,3.231,0,0,0-3.288,3.326c-.089,1.527-.017,3.064-.017,4.595M49.723,19.042a19.057,19.057,0,0,0-.206-2.918,2.9,2.9,0,0,0-3.155-2.46,2.869,2.869,0,0,0-3.008,2.39,17.355,17.355,0,0,0-.185,6.026,2.9,2.9,0,0,0,3.013,2.654,3.034,3.034,0,0,0,3.3-2.588,22.075,22.075,0,0,0,.245-3.1m65.57,7.942a2.05,2.05,0,0,0-2.149-2.185,1.963,1.963,0,0,0-2.119,2.275,2.139,2.139,0,0,0,4.267-.089M22.454,26.9a2.091,2.091,0,0,0-2.124-2.114,2.01,2.01,0,0,0-2.171,2.252,1.942,1.942,0,0,0,2.184,2c1.312-.012,1.986-.829,2.112-2.138" transform="translate(0 0)" fill="#dbdbdb"/>
        </g>
      </g>
    </g>
  </g>
</svg>
