<svg xmlns="http://www.w3.org/2000/svg" xmlns:xlink="http://www.w3.org/1999/xlink" width="140" height="140" viewBox="0 0 140 140">
  <defs>
    <clipPath id="clip-path">
      <rect id="Rectangle_14725" data-name="Rectangle 14725" width="140" height="140" fill="#fff"/>
    </clipPath>
    <clipPath id="clip-Icon_01">
      <rect width="140" height="140"/>
    </clipPath>
  </defs>
  <g id="Icon_01" data-name="Icon 01" clip-path="url(#clip-Icon_01)">
    <g id="Mask_Group_50088" data-name="Mask Group 50088" clip-path="url(#clip-path)">
      <g id="Group_50656" data-name="Group 50656" transform="translate(-533.058 -1456.677)" style="isolation: isolate">
        <g id="Group_49894" data-name="Group 49894" transform="translate(549 1459.6)">
          <g id="Group_49895" data-name="Group 49895" transform="translate(0 0)">
            <path id="Path_74110" data-name="Path 74110" d="M41.905,113.83c-2.955,1.137-6.123,2.253-9.479,3.3C10.994,123.8,10.47,110.8,10.47,110.8V88.213L1,88.5,4.4,53.172a52.358,52.358,0,0,1,104.715,0s-1.038,18.962-14.451,30.9c0,0-7.316,12.8,5.979,38.432" transform="translate(-1 -1)" fill="none" stroke="#dbdbdb" stroke-linejoin="round" stroke-width="3"/>
            <line id="Line_144" data-name="Line 144" y1="21.325" transform="translate(41.594 112.829)" fill="none" stroke="#dbdbdb" stroke-linejoin="round" stroke-width="3"/>
          </g>
        </g>
        <g id="Group_49897" data-name="Group 49897" transform="translate(580.647 1484.486)">
          <path id="Path_74114" data-name="Path 74114" d="M64.388,33.84A26.1,26.1,0,1,0,20.216,52.663a10.05,10.05,0,0,1,2.994,7.27v10.6A5.671,5.671,0,0,0,28.882,76.2H47.543a5.672,5.672,0,0,0,5.673-5.673v-10.7a10.02,10.02,0,0,1,3.172-7.2A26.007,26.007,0,0,0,64.388,33.84Z" transform="translate(-12.187 -7.739)" fill="none" stroke="#dbdbdb" stroke-miterlimit="10" stroke-width="2"/>
          <path id="Path_74115" data-name="Path 74115" d="M44.267,68.858a7.93,7.93,0,0,1-15.86,0Z" transform="translate(-10.237 -0.394)" fill="none" stroke="#dbdbdb" stroke-miterlimit="10" stroke-width="2"/>
          <path id="Path_74116" data-name="Path 74116" d="M52.883,30.736H51.028A2,2,0,0,1,49.176,29.5l-.019-.047a1.928,1.928,0,0,1,.418-2.1L50.922,26a.934.934,0,0,0,0-1.322l-3.853-3.852a.935.935,0,0,0-1.321,0L44.4,22.175a1.929,1.929,0,0,1-2.1.418l-.094-.039a1.928,1.928,0,0,1-1.19-1.781V18.866a.934.934,0,0,0-.934-.934H34.632a.935.935,0,0,0-.934.934v1.856a2,2,0,0,1-1.236,1.851h0a2.007,2.007,0,0,1-2.187-.435l-1.312-1.312a.935.935,0,0,0-1.321,0L23.79,24.68a.934.934,0,0,0,0,1.322L25.1,27.313a2,2,0,0,1-1.417,3.422H21.829a.934.934,0,0,0-.934.934v5.447a.934.934,0,0,0,.934.934h1.905a1.927,1.927,0,0,1,1.781,1.19l.039.094a1.928,1.928,0,0,1-.418,2.1L23.79,42.785a.934.934,0,0,0,0,1.322l3.867,3.867a.942.942,0,0,0,1.294,0l1.325-1.326a2.007,2.007,0,0,1,2.187-.435l.047.02A1.929,1.929,0,0,1,33.7,48.014v1.907a.935.935,0,0,0,.934.934h5.447a.934.934,0,0,0,.934-.934V48.065a2.005,2.005,0,0,1,3.422-1.417l1.326,1.326a.915.915,0,0,0,1.294,0l3.866-3.867a.934.934,0,0,0,0-1.322l-1.348-1.348a1.927,1.927,0,0,1-.418-2.1l.02-.048a2,2,0,0,1,1.851-1.236h1.856a.934.934,0,0,0,.934-.934V31.67A.934.934,0,0,0,52.883,30.736Z" transform="translate(-11.14 -6.514)" fill="none" stroke="#dbdbdb" stroke-miterlimit="10" stroke-width="2"/>
          <ellipse id="Ellipse_205" data-name="Ellipse 205" cx="5.405" cy="5.405" rx="5.405" ry="5.405" transform="translate(20.811 22.474)" fill="none" stroke="#dbdbdb" stroke-miterlimit="10" stroke-width="2"/>
        </g>
        <line id="Line_149" data-name="Line 149" y1="9.125" transform="translate(606.47 1470.199)" fill="none" stroke="#dbdbdb" stroke-miterlimit="10" stroke-width="2"/>
        <line id="Line_152" data-name="Line 152" x1="4.485" y1="7.89" transform="translate(588.29 1474.92)" fill="none" stroke="#dbdbdb" stroke-miterlimit="10" stroke-width="2"/>
        <line id="Line_153" data-name="Line 153" y1="7.506" x2="4.082" transform="translate(620.436 1474.792)" fill="none" stroke="#dbdbdb" stroke-miterlimit="10" stroke-width="2"/>
      </g>
    </g>
  </g>
</svg>
