<svg xmlns="http://www.w3.org/2000/svg" width="58.027" height="58.187" viewBox="0 0 58.027 58.187">
  <g id="Group_50328" data-name="Group 50328" transform="translate(0.263)">
    <g id="Group_50329" data-name="Group 50329" transform="translate(0 0)">
      <path id="Path_74613" data-name="Path 74613" d="M41.544,34.9l8.327-8.6s2.454-1.735,4.612,0a3.583,3.583,0,0,1,.782,4.417C54.209,32.91,44.4,43.661,44.4,43.661a10.8,10.8,0,0,1-7.7,2.931c-4.965-.038-14.426,0-14.426,0a7.148,7.148,0,0,0-4.882,2.937L6.482,39.009l.152-.431s5.4-10.32,18.276-6.254l13.31.04a3.792,3.792,0,0,1,3.323,3.831,3.423,3.423,0,0,1-2.971,3.479H25.419" transform="translate(1.052 4.145)" fill="none" stroke="#f40f34" stroke-width="2"/>
      <path id="Path_74614" data-name="Path 74614" d="M19.521,49h0a7.572,7.572,0,0,1-10.706.193L.99,41.641l5.257-5.449Z" transform="translate(0.161 5.875)" fill="none" stroke="#f40f34" stroke-width="2"/>
      <path id="Path_74615" data-name="Path 74615" d="M27.708,10.429A5.039,5.039,0,1,1,22.66,15.46,5.039,5.039,0,0,1,27.708,10.429Z" transform="translate(3.678 1.693)" fill="none" stroke="#f40f34" stroke-width="2"/>
      <path id="Path_74616" data-name="Path 74616" d="M38.433,31.576V28.657a6.985,6.985,0,0,0-6.972-7h0l-6.472-.012a6.986,6.986,0,0,0-7,6.973h0v3.071" transform="translate(2.92 3.514)" fill="none" stroke="#f40f34" stroke-width="2"/>
      <path id="Path_74617" data-name="Path 74617" d="M16.255,11.093a4.307,4.307,0,1,1-4.315,4.3A4.307,4.307,0,0,1,16.255,11.093Z" transform="translate(1.938 1.801)" fill="none" stroke="#f40f34" stroke-width="2"/>
      <path id="Path_74618" data-name="Path 74618" d="M19.463,20.691h0l-5.532-.009a5.97,5.97,0,0,0-5.98,5.959h0v.637" transform="translate(1.29 3.357)" fill="none" stroke="#f40f34" stroke-width="2"/>
      <path id="Path_74619" data-name="Path 74619" d="M38.556,10.873a4.307,4.307,0,1,0,4.315,4.3A4.307,4.307,0,0,0,38.556,10.873Z" transform="translate(5.561 1.765)" fill="none" stroke="#f40f34" stroke-width="2"/>
      <path id="Path_74620" data-name="Path 74620" d="M35.753,20.47h0l5.532-.009a5.97,5.97,0,0,1,5.98,5.959h0v.637" transform="translate(5.804 3.321)" fill="none" stroke="#f40f34" stroke-width="2"/>
      <line id="Line_194" data-name="Line 194" y1="7.098" transform="translate(30.915 0)" fill="none" stroke="#f40f34" stroke-width="2"/>
      <line id="Line_195" data-name="Line 195" y1="6.535" x2="2.772" transform="translate(35.743 0.972)" fill="none" stroke="#f40f34" stroke-width="2"/>
      <line id="Line_196" data-name="Line 196" x1="3.554" y1="6.144" transform="translate(23.407 1.72)" fill="none" stroke="#f40f34" stroke-width="2"/>
    </g>
  </g>
</svg>
