<svg xmlns="http://www.w3.org/2000/svg" width="71.007" height="63.9" viewBox="0 0 71.007 63.9">
  <g id="Group_50354" data-name="Group 50354" transform="translate(0.8 0.826)">
    <path id="Path_74653" data-name="Path 74653" d="M26.485,12.859,30.628,17l5.858-5.86" transform="translate(4.421 1.79)" fill="none" stroke="#f40f34" stroke-linejoin="round" stroke-width="3"/>
    <g id="Group_50353" data-name="Group 50353" transform="translate(0.7 0.7)">
      <g id="Group_50355" data-name="Group 50355">
        <path id="Path_74654" data-name="Path 74654" d="M38.215,26.432a15.449,15.449,0,0,1-6.224,3.429.743.743,0,0,1-.449.014A15.442,15.442,0,0,1,20.727,19.109a12.132,12.132,0,0,1-.488-3.571q0-2.226,0-4.453h.009V5.8c0-.411,0-.411.409-.456A20.525,20.525,0,0,0,31.485.823c.219-.176.332-.153.534.008A20.491,20.491,0,0,0,43.027,5.349c.2.02.244.083.242.273,0,.959,0,3.25,0,4.209v7.247" transform="translate(2.65 -0.7)" fill="none" stroke="#f40f34" stroke-linejoin="round" stroke-width="3"/>
        <path id="Path_74655" data-name="Path 74655" d="M50.235,35.408,60.418,24.892s3-2.121,5.64,0a4.384,4.384,0,0,1,.957,5.4c-1.292,2.677-13.29,15.821-13.29,15.821A13.215,13.215,0,0,1,44.308,49.7c-6.07-.048-17.638,0-17.638,0a8.744,8.744,0,0,0-5.97,3.593L7.363,40.429l.186-.527s6.6-12.62,22.348-7.648l16.276.048a4.635,4.635,0,0,1,4.063,4.685A4.186,4.186,0,0,1,46.6,41.239H30.518" transform="translate(0.442 3.286)" fill="none" stroke="#f40f34" stroke-width="3"/>
        <path id="Path_74656" data-name="Path 74656" d="M23.359,52.54h0a9.258,9.258,0,0,1-13.092.235L.7,43.546l6.428-6.664Z" transform="translate(-0.7 5.503)" fill="none" stroke="#f40f34" stroke-linejoin="round" stroke-width="3"/>
        <line id="Line_197" data-name="Line 197" x1="2.141" y1="2.141" transform="translate(13.51 55.05)" fill="#fff" stroke="#f40f34" stroke-width="3"/>
        <line id="Line_198" data-name="Line 198" x1="2.141" y1="2.141" transform="translate(13.51 55.05)" fill="none" stroke="#f40f34" stroke-linejoin="round" stroke-width="3"/>
      </g>
    </g>
  </g>
</svg>
