<svg id="Group_50351" data-name="Group 50351" xmlns="http://www.w3.org/2000/svg" xmlns:xlink="http://www.w3.org/1999/xlink" width="91.678" height="76.575" viewBox="0 0 91.678 76.575">
  <defs>
    <clipPath id="clip-path">
      <rect id="Rectangle_14571" data-name="Rectangle 14571" width="91.678" height="76.576" fill="#f40f34"/>
    </clipPath>
  </defs>
  <g id="Group_50350" data-name="Group 50350" clip-path="url(#clip-path)">
    <path id="Path_74648" data-name="Path 74648" d="M61.935,36.552a20.05,20.05,0,0,1,.854,2.5,9.84,9.84,0,0,1,.336,2.466V75.4a1.053,1.053,0,1,0,2.107,0V56.248h4.041c.153.182.312.358.48.526a8.1,8.1,0,0,0,11.452,0c.168-.168.327-.343.48-.526h4.042V75.339a1.053,1.053,0,0,0,2.107,0V39.791a17.5,17.5,0,0,0,2.091-2.4,14.032,14.032,0,0,0,5.22-11.113,19.18,19.18,0,0,0-.988-5.915,18.419,18.419,0,0,0-.883-2.222V6.881a5.054,5.054,0,0,0-8.53-3.675,5.053,5.053,0,0,0-8.119-1.359c-.1.1-.2.208-.289.318a4.98,4.98,0,0,0-.568-.683,5.061,5.061,0,0,0-8.241,1.612A5.056,5.056,0,0,0,59.119,6.88V26.944a14.288,14.288,0,0,0,.672,4.193c.6,1.955,1.46,3.719,2.144,5.416m3.3,17.589V47.953h2.763a8.1,8.1,0,0,0,0,6.188Zm15.162.332-3.862-3.862V45.15a5.99,5.99,0,0,1,3.862,9.323m-5.968-3.862-3.861,3.862a5.99,5.99,0,0,1,3.861-9.323Zm0,2.98v3.354a5.947,5.947,0,0,1-2.372-.982Zm2.107,3.354V53.591L78.9,55.963a5.94,5.94,0,0,1-2.372.982m6.432-2.8a8.106,8.106,0,0,0,0-6.188h2.764v6.188Zm9.129-23.02a12.411,12.411,0,0,1-3.621,4.738.878.878,0,0,0-.075.076l-.017-.017a15.407,15.407,0,0,1-2.307,2.644,1.055,1.055,0,0,0-.345.78v6.505H81.685c-.152-.183-.312-.359-.48-.526a8.1,8.1,0,0,0-11.452,0c-.168.168-.327.343-.48.526H65.232v-4.33a12.807,12.807,0,0,0-.676-3.933c-.6-1.859-1.454-3.589-2.135-5.323a14.382,14.382,0,0,1-1.195-5.317v-5.2a5.037,5.037,0,0,0,6.32-.335,5.057,5.057,0,0,0,8.22,1.569,4.9,4.9,0,0,0,.429-.5,4.952,4.952,0,0,0,.428.5,5.047,5.047,0,0,0,6.541.517,1.045,1.045,0,0,0,.351.7,10.941,10.941,0,0,0-2.291,1.271,8.6,8.6,0,0,0-1.881,1.8A1.051,1.051,0,0,0,80.95,28.6a1.075,1.075,0,0,0,.108-.123h0a6.9,6.9,0,0,1,1.5-1.381,9.276,9.276,0,0,1,4.5-1.628,1.053,1.053,0,0,0,.567-1.863l-8.832-7.243a2.953,2.953,0,0,1,3.885-4.447l.024.02,8.678,7.118a16.486,16.486,0,0,1,.8,2.022,17.092,17.092,0,0,1,.862,5.2,12.349,12.349,0,0,1-.945,4.846M77.248,17.8c.055.052.1.108.162.158l.024.021,4.574,3.751a2.95,2.95,0,0,1-4.76-2.33ZM88.214,3.928a2.952,2.952,0,0,1,2.953,2.953V16.16l-5.9-4.843V6.88a2.953,2.953,0,0,1,2.953-2.952M80.2,2.471a2.953,2.953,0,0,1,2.953,2.953v2.41c0,.006,0,.012,0,.018V9.705a5.028,5.028,0,0,0-5.905.779V7.853h0V5.424A2.953,2.953,0,0,1,80.2,2.471M69.238,5.06a2.953,2.953,0,1,1,5.905,0V7.83c0,.008,0,.014,0,.022V19.4a2.953,2.953,0,0,1-5.905,0V7.853h0V5.06ZM61.226,6.88a2.952,2.952,0,1,1,5.9,0v.957c0,.005,0,.009,0,.015v9.816a2.952,2.952,0,0,1-5.9-.03V6.88Z" transform="translate(-31.302 -0.001)" fill="#f40f34"/>
    <path id="Path_74649" data-name="Path 74649" d="M2.051,71.15a14.177,14.177,0,0,1,.6,1.764,6.8,6.8,0,0,1,.233,1.7V99.034a1.053,1.053,0,1,0,2.107,0V74.618a9.524,9.524,0,0,0-.5-2.924c-.441-1.368-1.061-2.619-1.546-3.854a10.064,10.064,0,0,1-.84-3.723V60.9a3.923,3.923,0,0,0,4.159-.31,3.94,3.94,0,0,0,6.233.879c.035-.035.067-.074.1-.111.034.037.065.075.1.111a3.925,3.925,0,0,0,3.881,1c-.19.116-.37.233-.53.349a6.481,6.481,0,0,0-1.423,1.363A1.053,1.053,0,0,0,16.342,65.4h0l.015-.019a4.964,4.964,0,0,1,1.127-1,6.416,6.416,0,0,1,2.972-1.031,1.053,1.053,0,0,0,.566-1.863l-6.36-5.216a1.822,1.822,0,0,1-.466-.63,1.843,1.843,0,0,1-.159-.748,1.819,1.819,0,0,1,.452-1.2h0a1.833,1.833,0,0,1,2.587-.176l.024.02,6.2,5.088a11.813,11.813,0,0,1,.547,1.408,11.994,11.994,0,0,1,.592,3.607,8.318,8.318,0,0,1-3.184,6.679.963.963,0,0,0-.075.077l-.017-.016a10.782,10.782,0,0,1-1.647,1.9,1.055,1.055,0,0,0-.345.78V98.993a1.053,1.053,0,0,0,2.107,0V73.5a12.913,12.913,0,0,0,1.437-1.665,10.391,10.391,0,0,0,3.831-8.2,14.13,14.13,0,0,0-.727-4.355A13.655,13.655,0,0,0,25.2,57.7V49.657a3.936,3.936,0,0,0-6.358-3.107,3.933,3.933,0,0,0-6.121-.748c-.071-.084-.144-.167-.222-.244a3.942,3.942,0,0,0-6.252.91A3.937,3.937,0,0,0,0,49.657V64.116a10.6,10.6,0,0,0,.5,3.108c.44,1.437,1.066,2.717,1.554,3.926M16.287,60.326a1.832,1.832,0,0,1-2.633-1.648v-.512Zm4.975-12.5A1.833,1.833,0,0,1,23.1,49.657v6.065l-3.667-3.008V49.657a1.834,1.834,0,0,1,1.834-1.834m-5.774-1.05a1.834,1.834,0,0,1,1.833,1.834v1.75h0v.873a3.878,3.878,0,0,0-3.667.411V50.358h0v-1.75a1.835,1.835,0,0,1,1.834-1.834M7.881,48.345a1.834,1.834,0,1,1,3.667,0V50.34c0,.006,0,.012,0,.018v8.321a1.833,1.833,0,1,1-3.667,0V50.358h0V48.345ZM2.107,49.657a1.834,1.834,0,0,1,3.667,0v.69s0,.007,0,.01v7.075a1.833,1.833,0,0,1-3.666-.022V50.631h0Z" transform="translate(0 -23.512)" fill="#f40f34"/>
    <path id="Path_74650" data-name="Path 74650" d="M140.468,71.15a14.248,14.248,0,0,1,.6,1.764,6.778,6.778,0,0,1,.233,1.7V99.034a1.053,1.053,0,1,0,2.106,0V74.618a9.538,9.538,0,0,0-.5-2.924c-.441-1.368-1.061-2.619-1.546-3.854a10.054,10.054,0,0,1-.84-3.723V60.9a3.924,3.924,0,0,0,4.159-.31,3.939,3.939,0,0,0,6.232.879c.035-.035.067-.074.1-.111.034.037.065.076.1.111a3.926,3.926,0,0,0,3.881,1c-.19.116-.37.233-.53.349a6.46,6.46,0,0,0-1.422,1.363,1.051,1.051,0,0,0,1.607,1.346,1,1,0,0,0,.105-.121h0l.014-.019a4.98,4.98,0,0,1,1.127-1,6.416,6.416,0,0,1,2.972-1.031,1.053,1.053,0,0,0,.566-1.863l-6.361-5.217a1.834,1.834,0,0,1-.172-2.582h0a1.834,1.834,0,0,1,2.588-.176l.024.02,6.2,5.088a11.6,11.6,0,0,1,.548,1.407,11.985,11.985,0,0,1,.592,3.608,8.317,8.317,0,0,1-3.183,6.679.831.831,0,0,0-.076.077l-.016-.016a10.8,10.8,0,0,1-1.648,1.9,1.052,1.052,0,0,0-.345.78V98.993a1.053,1.053,0,0,0,2.106,0V73.5a12.88,12.88,0,0,0,1.437-1.665,10.394,10.394,0,0,0,3.831-8.2,14.118,14.118,0,0,0-.726-4.355,13.9,13.9,0,0,0-.622-1.576V49.657a3.937,3.937,0,0,0-6.359-3.107,3.932,3.932,0,0,0-6.121-.748c-.071-.084-.144-.167-.222-.244a3.942,3.942,0,0,0-6.252.91,3.937,3.937,0,0,0-6.249,3.189V64.116a10.591,10.591,0,0,0,.5,3.107c.44,1.438,1.067,2.717,1.554,3.927M154.7,60.326a1.831,1.831,0,0,1-2.633-1.648v-.512Zm4.975-12.5a1.835,1.835,0,0,1,1.835,1.834v6.065l-3.667-3.008V49.657a1.835,1.835,0,0,1,1.833-1.834m-5.774-1.05a1.833,1.833,0,0,1,1.834,1.834v1.734c0,.006,0,.01,0,.016v.873a3.878,3.878,0,0,0-3.667.411V50.358h0v-1.75a1.835,1.835,0,0,1,1.834-1.834M146.3,48.345a1.834,1.834,0,0,1,3.668,0v2s0,.008,0,.013v8.321a1.833,1.833,0,1,1-3.667,0V50.358h0V48.345Zm-5.773,1.312a1.834,1.834,0,1,1,3.667,0v.685c0,.006,0,.01,0,.016V57.44a1.833,1.833,0,0,1-3.666-.03V49.657Z" transform="translate(-73.289 -23.512)" fill="#f40f34"/>
  </g>
</svg>
