<svg id="Group_50357" data-name="Group 50357" xmlns="http://www.w3.org/2000/svg" width="71.978" height="63.409" viewBox="0 0 71.978 63.409">
  <g id="Group_50358" data-name="Group 50358">
    <path id="Path_74657" data-name="Path 74657" d="M88.378,0a6.855,6.855,0,1,0,6.855,6.855A6.862,6.862,0,0,0,88.378,0m0,10.283a3.428,3.428,0,1,1,3.428-3.428,3.432,3.432,0,0,1-3.428,3.428" transform="translate(-52.389)" fill="#f40f34"/>
    <path id="Path_74658" data-name="Path 74658" d="M75.706,46.587h6.855A5.146,5.146,0,0,1,87.7,51.728h3.428a8.578,8.578,0,0,0-8.569-8.569H75.706c-5.205,0-8.569,3.363-8.569,8.569h3.428c0-1.92.668-5.141,5.141-5.141" transform="translate(-43.144 -27.735)" fill="#f40f34"/>
    <path id="Path_74659" data-name="Path 74659" d="M17.3,65.77a4.284,4.284,0,1,1-4.284,4.284A4.288,4.288,0,0,1,17.3,65.77m0,12a7.712,7.712,0,1,0-7.712-7.712A7.72,7.72,0,0,0,17.3,77.766" transform="translate(-6.163 -40.063)" fill="#f40f34"/>
    <path id="Path_74660" data-name="Path 74660" d="M156.372,65.77a4.284,4.284,0,1,1-4.284,4.284,4.288,4.288,0,0,1,4.284-4.284m0,12a7.712,7.712,0,1,0-7.712-7.712,7.72,7.72,0,0,0,7.712,7.712" transform="translate(-95.534 -40.063)" fill="#f40f34"/>
    <path id="Path_74661" data-name="Path 74661" d="M41.13,95.579v1.714c0,4.725,3.076,8.569,6.855,8.569H58.268v3.428H13.71v-3.428H23.993c3.781,0,6.855-3.844,6.855-8.569V95.579H19.708l-.163-.218,5.641-15.206H46.793l5.641,15.2-.164.219Zm23.993-6.855H57.411L54.88,92.1l-5.7-15.372H22.8L17.1,92.1l-2.532-3.376H6.855A6.862,6.862,0,0,0,0,95.579v17.138H3.428V95.579a3.432,3.432,0,0,1,3.428-3.428h6l5.141,6.855h9.222c-.482,1.975-1.765,3.428-3.224,3.428H12.914L9.995,98.056l-2.852,1.9,3.139,4.709v8.05H61.7v-8.05l3.14-4.709-2.852-1.9-2.918,4.378H47.985c-1.459,0-2.741-1.453-3.222-3.428h9.22l5.141-6.855h6a3.432,3.432,0,0,1,3.428,3.428v17.138h3.428V95.579a6.861,6.861,0,0,0-6.855-6.855" transform="translate(0 -49.308)" fill="#f40f34"/>
  </g>
</svg>
