<svg id="Group_50349" data-name="Group 50349" xmlns="http://www.w3.org/2000/svg" xmlns:xlink="http://www.w3.org/1999/xlink" width="88.072" height="88.072" viewBox="0 0 88.072 88.072">
  <defs>
    <clipPath id="clip-path">
      <rect id="Rectangle_14570" data-name="Rectangle 14570" width="88.072" height="88.072" fill="#f40f34"/>
    </clipPath>
  </defs>
  <g id="Group_50348" data-name="Group 50348" clip-path="url(#clip-path)">
    <path id="Path_74647" data-name="Path 74647" d="M44.036,0a7.339,7.339,0,0,0-5.955,11.633,11.108,11.108,0,0,0-4.32,8.922v1.462a4.4,4.4,0,0,0,4.4,4.4c4.035,0,8,0,11.748,0a4.4,4.4,0,0,0,4.4-4.4V20.557a11.108,11.108,0,0,0-4.32-8.922A7.339,7.339,0,0,0,44.036,0m0,2.935a4.405,4.405,0,1,1-4.4,4.4,4.406,4.406,0,0,1,4.4-4.4m-3.73,10.723a7.31,7.31,0,0,0,7.46,0,8.121,8.121,0,0,1,3.609,6.9v1.462a1.46,1.46,0,0,1-1.465,1.468c-4.035,0-8,.007-11.748,0A1.459,1.459,0,0,1,36.7,22.019V20.557a8.12,8.12,0,0,1,3.609-6.9M27.76,18.65a1.455,1.455,0,0,0-.659.172A36.688,36.688,0,0,0,8.982,40.516a1.47,1.47,0,0,0,2.807.877A33.767,33.767,0,0,1,28.454,21.422a1.471,1.471,0,0,0-.694-2.772m32.6,0a1.72,1.72,0,0,0-.219.008,1.465,1.465,0,0,0-.521,2.761,33.758,33.758,0,0,1,16.665,19.96,1.469,1.469,0,0,0,2.807-.866A36.7,36.7,0,0,0,60.974,18.822a1.358,1.358,0,0,0-.616-.169m-31,16.573A5.874,5.874,0,0,0,23.48,41.1V63.119a1.468,1.468,0,0,0,2.514,1.041l5.418-5.439h.877a5.873,5.873,0,0,0,5.868,5.872h18.5l5.416,5.439a1.469,1.469,0,0,0,2.515-1.041V46.973A5.872,5.872,0,0,0,58.715,41.1H55.782a5.875,5.875,0,0,0-5.872-5.871Zm0,2.938H49.91A2.926,2.926,0,0,1,52.846,41.1V52.847a2.933,2.933,0,0,1-2.936,2.936h-19.1a1.465,1.465,0,0,0-1.038.433l-3.349,3.36V41.1a2.93,2.93,0,0,1,2.936-2.936m26.427,5.872h2.933a2.929,2.929,0,0,1,2.935,2.936V65.447L58.3,62.087a1.47,1.47,0,0,0-1.041-.433h-19.1a2.929,2.929,0,0,1-2.93-2.933H49.91a5.875,5.875,0,0,0,5.872-5.874ZM10.275,45.5A7.339,7.339,0,0,0,4.321,57.136,11.107,11.107,0,0,0,0,66.058V67.52a4.4,4.4,0,0,0,4.4,4.4c4.035,0,8,0,11.749,0a4.4,4.4,0,0,0,4.4-4.4V66.058a11.107,11.107,0,0,0-4.32-8.922A7.339,7.339,0,0,0,10.275,45.5m67.522,0a7.339,7.339,0,0,0-5.955,11.634,11.107,11.107,0,0,0-4.32,8.922V67.52a4.4,4.4,0,0,0,4.4,4.4c4.035,0,8,0,11.749,0a4.4,4.4,0,0,0,4.4-4.4V66.058a11.107,11.107,0,0,0-4.32-8.922A7.339,7.339,0,0,0,77.8,45.5m-44.036,0a1.468,1.468,0,1,0,1.468,1.468A1.468,1.468,0,0,0,33.761,45.5m5.872,0A1.468,1.468,0,1,0,41.1,46.973,1.468,1.468,0,0,0,39.633,45.5m5.871,0a1.468,1.468,0,1,0,1.468,1.468A1.468,1.468,0,0,0,45.5,45.5M10.275,48.438a4.4,4.4,0,1,1-4.4,4.4,4.406,4.406,0,0,1,4.4-4.4m67.522,0a4.4,4.4,0,1,1-4.4,4.4,4.406,4.406,0,0,1,4.4-4.4M6.545,59.16a7.309,7.309,0,0,0,7.459,0,8.122,8.122,0,0,1,3.61,6.9V67.52a1.46,1.46,0,0,1-1.465,1.468c-4.035,0-8,.007-11.749,0A1.459,1.459,0,0,1,2.936,67.52V66.058a8.122,8.122,0,0,1,3.609-6.9m67.521,0a7.31,7.31,0,0,0,7.46,0,8.122,8.122,0,0,1,3.61,6.9V67.52a1.46,1.46,0,0,1-1.465,1.468c-4.035,0-8,.007-11.749,0a1.459,1.459,0,0,1-1.465-1.468V66.058a8.121,8.121,0,0,1,3.609-6.9M20.088,75.73h-.074a1.481,1.481,0,0,0-.932,2.557,36.7,36.7,0,0,0,49.855.043,1.467,1.467,0,1,0-1.989-2.156,33.774,33.774,0,0,1-45.873-.043,1.466,1.466,0,0,0-.987-.4" transform="translate(0 -0.001)" fill="#f40f34"/>
  </g>
</svg>
