<svg xmlns="http://www.w3.org/2000/svg" width="72.346" height="63.644" viewBox="0 0 72.346 63.644">
  <g id="Group_50325" data-name="Group 50325" transform="translate(0.673 0.51)">
    <g id="Group_50326" data-name="Group 50326" transform="translate(0.491 0.49)">
      <path id="Path_74607" data-name="Path 74607" d="M79.168,1a13.532,13.532,0,0,1,1.707.533,5.475,5.475,0,0,1-.705,10.213,5.479,5.479,0,0,1-6.443-7.829A5.276,5.276,0,0,1,77.694,1.1a.644.644,0,0,0,.331-.1Z" transform="translate(-40.299 -1)" fill="none" stroke="#f40f34" stroke-width="2"/>
      <path id="Path_74608" data-name="Path 74608" d="M49.578,33a14.962,14.962,0,0,0,2.358-5.335c.048-.293.084-.39.392-.234a6.639,6.639,0,0,1,1.2.729,3.048,3.048,0,0,1,.947,3.668q-2.748,6.8-5.506,13.6c-.147.36-.075.493.254.662,2.058,1.056,4.127,2.092,6.145,3.221a5.67,5.67,0,0,1,3.023,5.122c.053,3.134.021,6.27,0,9.4a3.278,3.278,0,0,1-6.555-.045q-.02-4.262.005-8.525a.571.571,0,0,0-.367-.6c-3.947-2.054-7.9-4.106-11.828-6.188a5.945,5.945,0,0,1-2.771-7.687c1.29-3.22,2.559-6.449,3.853-9.667.142-.354.072-.416-.282-.412q-2.527.02-5.054,0a.48.48,0,0,0-.521.336c-1.164,2.59-2.351,5.17-3.517,7.76a2.873,2.873,0,0,1-1.569,1.628,2.7,2.7,0,0,1-2.989-.634,2.668,2.668,0,0,1-.545-2.967c.807-1.8,1.635-3.6,2.454-5.4q.627-1.379,1.254-2.758a5.4,5.4,0,0,1,5.2-3.438c3.325-.03,6.65-.007,9.975-.006a4.059,4.059,0,0,1,1.249.22c.849.275,1.689.582,2.549.817a.9.9,0,0,1,.706.822,13.276,13.276,0,0,1,.16,2.932C49.759,31.016,49.66,32,49.578,33Z" transform="translate(-14.641 -14.211)" fill="none" stroke="#f40f34" stroke-width="2"/>
      <path id="Path_74609" data-name="Path 74609" d="M99.237,112.854H85.043a2.239,2.239,0,0,1-2.254-2.262c0-.659-.007-1.319,0-1.977a2.2,2.2,0,0,1,2.172-2.3c1.33-.061,2.665-.025,4-.028,1.494,0,2.988-.01,4.482.005.3,0,.367-.1.365-.379-.012-1.23,0-2.461,0-3.692a2.289,2.289,0,0,1,2.562-2.539c2.666,0,5.332-.008,8,.009.37,0,.463-.1.457-.46-.023-1.245-.025-2.491-.012-3.735a2.269,2.269,0,0,1,2.426-2.416q3.1-.008,6.2.006a2.217,2.217,0,0,1,2.343,2.347q.013,7.45.01,14.9a2.276,2.276,0,0,1-2.528,2.523H99.237Z" transform="translate(-45.601 -51.215)" fill="none" stroke="#f40f34" stroke-width="2"/>
      <path id="Path_74610" data-name="Path 74610" d="M18,65.941a2.183,2.183,0,0,1-.266,1.1c-.953,1.829-1.9,3.665-2.873,5.481a2.635,2.635,0,0,1-3.617,1.11q-4.424-2.29-8.83-4.618a2.68,2.68,0,0,1-1.108-3.6c.9-1.741,1.822-3.471,2.725-5.212a2.719,2.719,0,0,1,2.681-1.623,2.879,2.879,0,0,1,1.248.385q4.257,2.229,8.513,4.463A2.67,2.67,0,0,1,18,65.941Z" transform="translate(-1 -32.403)" fill="none" stroke="#f40f34" stroke-width="2"/>
      <path id="Path_74611" data-name="Path 74611" d="M52.294,88.1c0,1.1.029,2.2-.008,3.3a5.875,5.875,0,0,1-1.23,3.416c-2,2.635-4.015,5.259-6.017,7.892a3.289,3.289,0,0,1-4.4.753,3.169,3.169,0,0,1-1-4.429c1.042-1.519,2.2-2.958,3.316-4.426.823-1.084,1.657-2.161,2.488-3.239a1.414,1.414,0,0,0,.339-.917c-.025-2.988-.032-5.976-.044-8.963a1.622,1.622,0,0,0,0-.176c-.043-.356.05-.44.394-.256,1.446.772,2.9,1.524,4.356,2.284.519.271,1.029.558,1.555.814a.452.452,0,0,1,.28.481c-.009,1.157,0,2.314,0,3.471Z" transform="translate(-21.783 -44.605)" fill="none" stroke="#f40f34" stroke-width="2"/>
      <path id="Path_74612" data-name="Path 74612" d="M90.6,40.834c1.255,1.874,2.469,3.685,3.68,5.5.334.5.674.993.986,1.506.145.238.341.231.564.23,2.271-.006,4.541-.016,6.811-.009a2.7,2.7,0,0,1,2.646,1.931A2.749,2.749,0,0,1,104.275,53a2.4,2.4,0,0,1-1.471.5c-2.636,0-5.275.048-7.908-.036A4.967,4.967,0,0,1,90.886,51.1c-.846-1.231-1.655-2.486-2.495-3.721a.777.777,0,0,1-.1-.835C89.068,44.667,89.817,42.779,90.6,40.834Z" transform="translate(-48.56 -22.723)" fill="none" stroke="#f40f34" stroke-width="2"/>
    </g>
  </g>
</svg>
