<svg xmlns="http://www.w3.org/2000/svg" width="55.726" height="43.716" viewBox="0 0 55.726 43.716">
  <g id="Group_50316" data-name="Group 50316" transform="translate(0.299 0.3)">
    <g id="Group_50317" data-name="Group 50317">
      <path id="Path_74595" data-name="Path 74595" d="M40.739,24.893l8.044-8.309s2.371-1.676,4.457,0a3.464,3.464,0,0,1,.755,4.268c-1.02,2.115-10.5,12.5-10.5,12.5a10.441,10.441,0,0,1-7.44,2.832c-4.8-.038-13.936,0-13.936,0A6.906,6.906,0,0,0,17.4,39.024L6.867,28.859l.147-.416s5.213-9.97,17.656-6.043l12.859.038a3.663,3.663,0,0,1,3.21,3.7,3.307,3.307,0,0,1-2.87,3.361H25.161" fill="none" stroke="#f40f34" stroke-width="2"/>
      <path id="Path_74596" data-name="Path 74596" d="M18.6,40.179h0a7.314,7.314,0,0,1-10.343.186L.7,33.074l5.078-5.265Z" fill="none" stroke="#f40f34" stroke-linejoin="round" stroke-width="2"/>
      <line id="Line_186" data-name="Line 186" x1="1.692" y1="1.692" transform="translate(11.374 37.815)" fill="#fff" stroke="#f40f34" stroke-width="2"/>
      <line id="Line_187" data-name="Line 187" x1="1.692" y1="1.692" transform="translate(11.374 37.815)" fill="none" stroke="#f40f34" stroke-linejoin="round" stroke-width="2"/>
      <path id="Path_74597" data-name="Path 74597" d="M36.088,6.6h-5.9V.7h-5.77V6.6h-5.9v5.771h5.9v5.9h5.77v-5.9h5.9Z" fill="none" stroke="#f40f34" stroke-width="2"/>
    </g>
  </g>
</svg>
