<svg id="Group_50310" data-name="Group 50310" xmlns="http://www.w3.org/2000/svg" width="48.027" height="58.112" viewBox="0 0 48.027 58.112">
  <g id="Group_50311" data-name="Group 50311" transform="translate(1 1)">
    <path id="Path_74584" data-name="Path 74584" d="M29.347,43.534a56.5,56.5,0,0,1-10.933,5.5c-1.258.484-2.607.959-4.035,1.4-9.124,2.842-9.348-2.7-9.348-2.7V38.128L1,38.252,2.448,23.21a22.29,22.29,0,0,1,44.579,0s-.442,8.073-6.152,13.156c0,0-3.114,5.448,2.545,16.361" transform="translate(-1 -1)" fill="none" stroke="#f40f34" stroke-linejoin="round" stroke-width="2"/>
    <line id="Line_185" data-name="Line 185" y1="9.078" transform="translate(17.707 48.033)" fill="none" stroke="#f40f34" stroke-linejoin="round" stroke-width="2"/>
    <path id="Path_74585" data-name="Path 74585" d="M37.735,24.694H31.352V18.311H25.1v6.383H18.721v6.248H25.1v6.383h6.248V30.942h6.383Z" transform="translate(-5.167 -5.071)" fill="none" stroke="#f40f34" stroke-linejoin="round" stroke-width="2"/>
  </g>
</svg>
