<svg xmlns="http://www.w3.org/2000/svg" width="60.591" height="60.684" viewBox="0 0 60.591 60.684">
  <g id="Group_50344" data-name="Group 50344" transform="translate(0)">
    <g id="Group_50345" data-name="Group 50345" transform="translate(0 0)">
      <path id="Path_74631" data-name="Path 74631" d="M19.835,20.1c0-1.636-.047-3.274.018-4.907a1.575,1.575,0,0,0-1.211-1.856c-1.99-.685-3.914-1.556-5.871-2.339-.555-.222-1.133-.435-1.1-1.162.032-.649.6-.815,1.094-.991Q25.055,4.49,37.34.124a2.5,2.5,0,0,1,1.824.125Q50.82,4.5,62.476,8.743c1.09.4,1.868.84.893,2.135-.211.28-.1.819-.1,1.238-.008,2.164.008,4.328-.008,6.491-.008,1.1-.073,2.129.979,2.952A1.646,1.646,0,0,1,64.6,23.74c-.942,1.317-.5,2.581-.173,3.895a17.576,17.576,0,0,1,.4,1.853A2.611,2.611,0,0,1,62.4,32.414,2.5,2.5,0,0,1,59.774,29.7a13.06,13.06,0,0,1,.438-2.327c.313-1.215.657-2.328-.211-3.564a1.894,1.894,0,0,1,.6-2.555,2.03,2.03,0,0,0,.781-1.9c-.025-2.164-.063-4.329.013-6.49.04-1.152-.353-1.27-1.239-.781a1.226,1.226,0,0,1-.145.062c-3.755,1.481-3.755,1.481-3.755,5.512,0,2.216-.081,4.437.023,6.648a4.418,4.418,0,0,1-2.64,4.452,23.5,23.5,0,0,1-8.013,2.3,51.394,51.394,0,0,1-19.175-.781,20.228,20.228,0,0,1-2.114-.647c-3.776-1.373-4.5-2.4-4.5-6.359q0-1.583,0-3.166M60.142,10.032c-.624-.292-.886-.439-1.166-.541C52.343,7.071,45.7,4.668,39.08,2.222A3.1,3.1,0,0,0,36.8,2.33C30.151,4.7,23.49,7.047,16.839,9.417c-.359.128-.826.133-1.064.6a1.686,1.686,0,0,0,.357.282Q26.763,14.585,37.4,18.857a1.479,1.479,0,0,0,1.207.055c7.054-2.921,14.116-5.824,21.537-8.879M21.729,14.654v8.74c0,3.015.183,3.29,3.019,4.357a19.378,19.378,0,0,0,1.954.629,48.056,48.056,0,0,0,16.188,1.09,28.927,28.927,0,0,0,9.37-2.111,3.039,3.039,0,0,0,2.14-3.272c-.158-2.577-.038-5.171-.042-7.758,0-1.854-.009-1.862-1.668-1.18-4.435,1.825-8.876,3.634-13.291,5.508a3.07,3.07,0,0,1-2.561.036c-3.753-1.542-7.522-3.046-11.289-4.555-1.208-.485-2.427-.943-3.822-1.483M62.177,27.206c-.217,1.116-.385,1.828-.483,2.549a.57.57,0,0,0,.63.706c.336-.015.656-.237.6-.589a6.725,6.725,0,0,0-.745-2.666" transform="translate(-7.973 -0.001)" fill="#f40f34"/>
      <path id="Path_74632" data-name="Path 74632" d="M16.177,111.835c4.533.409,4.531.409,4.52,4.989-.005,2.2.012,4.4-.005,6.6-.015,2.051-.622,2.69-2.621,2.7q-7.759.024-15.518,0c-1.916-.007-2.526-.641-2.541-2.6C-.009,120.683,0,117.843.008,115c0-2.606.442-3.045,3.018-3.06.451,0,.9,0,1.471,0C.446,106.468.45,101.628,4.381,98.152a8.968,8.968,0,0,1,12.219.276c3.676,3.567,3.557,8.645-.423,13.407m1.228-6.976a7.057,7.057,0,1,0-14.114,0,7.057,7.057,0,1,0,14.114,0m-7.236,13.15H16.18c2.662,0,2.6,0,2.656-2.7.025-1.181-.305-1.52-1.5-1.5-4.217.075-8.435.029-12.653.029-2.928,0-2.894,0-2.809,3,.025.877.268,1.2,1.178,1.185,2.371-.052,4.745-.017,7.118-.017m.211,6.228c1.948,0,3.9.022,5.845-.005,2.954-.04,2.476.472,2.609-2.587.06-1.371-.454-1.668-1.717-1.647-4.159.068-8.32,0-12.48.033-3.1.024-2.653-.51-2.77,2.769-.044,1.249.437,1.5,1.562,1.46,2.314-.077,4.633-.023,6.95-.023" transform="translate(0 -65.498)" fill="#f40f34"/>
      <path id="Path_74633" data-name="Path 74633" d="M91.658,137.495c-5.751,0-11.5-.034-17.253.028-1.2.013-1.52-.338-1.513-1.512.048-7.387.038-14.773.009-22.16,0-.98.213-1.367,1.311-1.363q17.411.063,34.823,0c1.042,0,1.348.3,1.344,1.327q-.053,11.159,0,22.318c.007,1.155-.418,1.388-1.472,1.38-5.751-.044-11.5-.021-17.253-.021m.155-23.086c-5.174,0-10.349.038-15.522-.029-1.182-.015-1.524.294-1.513,1.489q.088,9.107,0,18.215c-.009,1.131.241,1.55,1.478,1.544q15.364-.077,30.729,0c1.2.006,1.517-.346,1.508-1.513q-.077-9.107,0-18.215c.009-1.139-.245-1.541-1.478-1.522-5.067.076-10.137.032-15.205.032" transform="translate(-49.792 -76.839)" fill="#f40f34"/>
      <path id="Path_74634" data-name="Path 74634" d="M26.343,116.472a.976.976,0,0,0-.825-1.262A1.875,1.875,0,0,1,24,113.256c.019-1.1.779-1.519,1.546-2.152,1.425-1.176,2.248.253,3.333.454.4.074.382.454.187.76-.167.263-.321.478-.747.329-.379-.133-1.036-.822-1.166.2-.077.607-.33,1.381.684,1.664a2.057,2.057,0,0,1,1.751,2.133,2,2,0,0,1-1.793,2.082c-.642.092-.868,1.14-1.121.787-.685-.956-1.871-.851-2.626-1.555-.335-.313-.192-.524.01-.795.364-.485.692-.251,1.074-.005.811.522,1.4.574,1.211-.691" transform="translate(-16.29 -75.58)" fill="#f40f34"/>
      <path id="Path_74635" data-name="Path 74635" d="M14.387,156.69c.157.82-.2,1.08-1.034,1.087-1.077.01-.79-.71-.851-1.293-.077-.733.18-1,.961-1.019.978-.021,1,.517.924,1.225" transform="translate(-8.531 -106.197)" fill="#f40f34"/>
      <path id="Path_74636" data-name="Path 74636" d="M25.719,156.534c.042.689.082,1.26-.9,1.253-.922-.006-1-.476-.983-1.185.018-.608-.015-1.113.866-1.127.846-.013,1.155.285,1.02,1.059" transform="translate(-16.278 -106.203)" fill="#f40f34"/>
      <path id="Path_74637" data-name="Path 74637" d="M36.4,155.524c1.039-.154.875.566.928,1.2.071.849-.3,1.075-1.1,1.07-1.078-.006-.742-.759-.808-1.321-.089-.749.217-1.09.975-.947" transform="translate(-24.19 -106.215)" fill="#f40f34"/>
      <path id="Path_74638" data-name="Path 74638" d="M48.573,156.535c.125.844-.051,1.256-.96,1.245-1-.012-.885-.612-.914-1.255-.031-.693.132-1.037.939-1.058.937-.025,1.09.407.935,1.069" transform="translate(-31.897 -106.197)" fill="#f40f34"/>
      <path id="Path_74639" data-name="Path 74639" d="M14.389,175.99c.073.8.046,1.327-.907,1.336-.921.008-.994-.452-.978-1.16.015-.658-.041-1.228.929-1.206.864.019,1.136.362.955,1.031" transform="translate(-8.541 -119.512)" fill="#f40f34"/>
      <path id="Path_74640" data-name="Path 74640" d="M37.319,176.124c.09.738-.044,1.195-.968,1.2-1.016.01-.9-.61-.918-1.249s.031-1.113.893-1.115c.883,0,1.113.4.993,1.16" transform="translate(-24.202 -119.516)" fill="#f40f34"/>
      <path id="Path_74641" data-name="Path 74641" d="M48.589,176.17c.1.744-.077,1.166-.987,1.154-1.015-.013-.864-.652-.9-1.28-.042-.7.14-1.059.941-1.082.951-.028,1.027.493.947,1.207" transform="translate(-31.897 -119.515)" fill="#f40f34"/>
      <path id="Path_74642" data-name="Path 74642" d="M25.723,175.994c-.006.69.125,1.331-.888,1.334-.906,0-1.01-.449-1.013-1.173s.093-1.2,1-1.187c.828.01.964.434.9,1.027" transform="translate(-16.273 -119.519)" fill="#f40f34"/>
      <path id="Path_74643" data-name="Path 74643" d="M100.028,124.518c2.8,0,5.6.021,8.394-.013.768-.009,1.078.145,1.132,1.024a4.087,4.087,0,0,0,4.062,4.214c1.026.108,1.231.506,1.168,1.382-.049.683-.007,1.372-.01,2.058a10.942,10.942,0,0,1-.07,2.837c-.333,1.176-1.63.453-2.435.87a4.309,4.309,0,0,0-2.71,3.769c-.033.921-.222,1.285-1.237,1.277-5.649-.048-11.3-.029-16.947-.016-.7,0-1.13-.024-1.2-.967-.2-2.678-1.515-4.017-4.154-4.306-.794-.087-1.121-.276-1.094-1.108.05-1.529.04-3.062,0-4.593-.018-.764.186-1.073,1.035-1.184,2.825-.369,3.933-1.524,4.211-4.409.087-.91.554-.835,1.143-.835q4.356,0,8.711,0m-.139,1.9c-2.217,0-4.435.025-6.652-.014-.775-.013-1.222.128-1.48.99a5.461,5.461,0,0,1-3.844,3.88c-1.18.329-1.11,1.046-1.088,1.9.02.816-.174,1.589,1.044,1.931a5.477,5.477,0,0,1,3.871,3.859c.277.93.756,1.073,1.6,1.067q6.572-.049,13.145,0c.793.006,1.226-.17,1.475-1.007a5.492,5.492,0,0,1,3.834-3.9c1.187-.339,1.116-1.042,1.1-1.892-.016-.816.18-1.6-1.032-1.933a5.447,5.447,0,0,1-3.872-3.853c-.281-.946-.782-1.06-1.6-1.045-2.164.041-4.329.014-6.493.014" transform="translate(-58.01 -85.048)" fill="#f40f34"/>
      <path id="Path_74644" data-name="Path 74644" d="M117.306,146.54a4.445,4.445,0,0,1-4.192-2.6c-.389-.784-.725-1.344-1.706-1.181-.641.106-.941-.156-.943-.87,0-.744.242-1.114,1-1,.886.132,1.264-.293,1.624-1.076a4.679,4.679,0,0,1,8.445.021c.369.8.78,1.172,1.641,1.053.771-.106.984.282.986,1.014s-.318.964-.95.86c-.974-.16-1.318.38-1.709,1.174a4.443,4.443,0,0,1-4.193,2.6m-.066-7.494a2.765,2.765,0,0,0-2.727,2.868,2.791,2.791,0,1,0,2.727-2.868" transform="translate(-75.458 -93.695)" fill="#f40f34"/>
      <path id="Path_74645" data-name="Path 74645" d="M127.877,148.566c.225-.677.958.313,1.143-.393.174-.661-.447-.72-.778-1.007a.9.9,0,0,1-.123-1.392,1.352,1.352,0,0,1,2.236-.026c-.61.409-1.887.691-.228,1.484a.872.872,0,0,1,.351,1.35c-.365.487-.837,1.068-1.638.6-.337-.2-.819-.167-.963-.619" transform="translate(-87.328 -99.163)" fill="#f40f34"/>
    </g>
  </g>
</svg>
