<svg xmlns="http://www.w3.org/2000/svg" xmlns:xlink="http://www.w3.org/1999/xlink" width="66.792" height="55.408" viewBox="0 0 66.792 55.408">
  <defs>
    <clipPath id="clip-path">
      <rect id="Rectangle_14529" data-name="Rectangle 14529" width="66.792" height="55.408" fill="#f40f34"/>
    </clipPath>
  </defs>
  <g id="Group_50320" data-name="Group 50320" transform="translate(0 0)">
    <path id="Path_74598" data-name="Path 74598" d="M60.441,35.5h8.07V27.436h5.807V35.5h8.069v5.807H74.317v8.07H68.51v-8.07h-8.07Zm5.979-10.16v8.07H58.35V43.4h8.07v8.07h9.988V43.4h8.069V33.415H76.408v-8.07Z" transform="translate(-17.685 -7.682)" fill="#f40f34"/>
    <g id="Group_50319" data-name="Group 50319" transform="translate(0 0)">
      <g id="Group_50318" data-name="Group 50318" clip-path="url(#clip-path)">
        <path id="Path_74599" data-name="Path 74599" d="M30.956,38.378a3.749,3.749,0,0,0,1.477.713c4.547,1.025,6.717,4.478,7.208,8.611a16.015,16.015,0,0,1-.118,4.225,1.887,1.887,0,0,1-1.16,1.538,13.648,13.648,0,0,1-3.795,1,97.6,97.6,0,0,1-15.483.937A93.281,93.281,0,0,1,5.154,54.47a16.805,16.805,0,0,1-3.414-.832A2.185,2.185,0,0,1,.172,51.743c-.431-3.3-.131-6.445,1.821-9.26a8.292,8.292,0,0,1,4.961-3.3A4.708,4.708,0,0,0,8.742,38.4c-.1-.255-.35-.272-.534-.362A11.405,11.405,0,0,1,1.977,24.9Q4.006,16.7,6.195,8.543A11.423,11.423,0,0,1,17.358.037c2.089,0,4.184-.122,6.268.068A11.448,11.448,0,0,1,33.687,8.679q2.079,8.033,4.141,16.069a11.472,11.472,0,0,1-6.39,13.385c-.14.065-.276.139-.482.244M20.184,1.8H17.5a9.776,9.776,0,0,0-9.7,7.51Q5.753,17.226,3.721,25.145A9.723,9.723,0,0,0,9.7,36.768a.614.614,0,0,0,.9-.3,15.859,15.859,0,0,0,1.827-5.023,1.029,1.029,0,0,0-.311-1.05A14.662,14.662,0,0,1,8.26,22.47c-.139-.8.066-1.079.827-1.328,1.02-.335,2.045-.661,3.05-1.037a32.432,32.432,0,0,0,8.027-4.029,5.914,5.914,0,0,0,2.142-2.435c.179-.432.385-.811.906-.814.544,0,.764.386.965.832a19.137,19.137,0,0,0,3.869,5.908,5.52,5.52,0,0,0,2.68,1.6c.783.174.987.492.853,1.277a14.888,14.888,0,0,1-4.088,8.2.585.585,0,0,0-.234.566,15.284,15.284,0,0,0,1.934,5.356.543.543,0,0,0,.771.269,9.674,9.674,0,0,0,4.949-3.951A9.923,9.923,0,0,0,36,24.681c-1.4-5.246-2.629-10.541-4.109-15.764C30.743,4.88,27.91,2.558,23.761,1.89A27.966,27.966,0,0,0,20.184,1.8m-.839,51.85a109,109,0,0,0,13.686-.728A22.81,22.81,0,0,0,37.12,52.1a.942.942,0,0,0,.735-.875,12.438,12.438,0,0,0-.187-4.625,7.329,7.329,0,0,0-4.179-5.336.92.92,0,0,0-1.075.127,19.841,19.841,0,0,1-11.061,3.988,20.638,20.638,0,0,1-14.188-4.1A.683.683,0,0,0,6.4,41.2a6.612,6.612,0,0,0-3.07,2.47,10.806,10.806,0,0,0-1.476,7.388,1.113,1.113,0,0,0,.932,1.1,23.248,23.248,0,0,0,3.151.652,102.18,102.18,0,0,0,13.407.834m3.809-37.971A19.024,19.024,0,0,1,16.775,20.1a47.519,47.519,0,0,1-6.107,2.39c-.351.112-.61.2-.483.684a13.136,13.136,0,0,0,3.65,6.458,8.473,8.473,0,0,0,9.928,1.559c3.3-1.721,5.027-4.634,5.9-8.143.074-.293-.059-.382-.288-.476a8.315,8.315,0,0,1-2.763-1.943A18.332,18.332,0,0,1,23.844,16.9c-.227-.392-.447-.788-.691-1.217m7.591,24.766c-.064-.078-.091-.138-.137-.163a9.351,9.351,0,0,1-3.962-4.846,16.688,16.688,0,0,1-.889-2.842c-.08-.364-.2-.413-.509-.212a8.808,8.808,0,0,1-1.767.859,9.954,9.954,0,0,1-8.879-.854c-.451-.266-.549-.178-.659.295a18.619,18.619,0,0,1-.7,2.341,9.587,9.587,0,0,1-3.639,4.963c-.689.445-.7.461-.008.869a19.9,19.9,0,0,0,16.041,1.99,16.77,16.77,0,0,0,5.106-2.4" transform="translate(0 0)" fill="#f40f34"/>
      </g>
    </g>
  </g>
</svg>
