<svg xmlns="http://www.w3.org/2000/svg" width="51.673" height="59.262" viewBox="0 0 51.673 59.262">
  <g id="Group_50313" data-name="Group 50313" transform="translate(-3.06 -3.152)">
    <g id="Group_50314" data-name="Group 50314" transform="translate(4.153 4.152)">
      <path id="Path_74586" data-name="Path 74586" d="M233.407,232.4l10.258-10.172a2.446,2.446,0,0,1,3.459,3.459l-10.258,10.172" transform="translate(-208.641 -198.062)" fill="none" stroke="#f40f34" stroke-linecap="round" stroke-linejoin="round" stroke-width="2"/>
      <path id="Path_74587" data-name="Path 74587" d="M155.218,224.987l13.161-13.161a2.446,2.446,0,1,1,3.459,3.459l-7.952,7.866" transform="translate(-139.119 -188.815)" fill="none" stroke="#f40f34" stroke-linecap="round" stroke-linejoin="round" stroke-width="2"/>
      <path id="Path_74588" data-name="Path 74588" d="M264.605,282.09l7.952-7.866a2.446,2.446,0,0,1,3.459,3.459l-7.952,7.866" transform="translate(-236.38 -244.296)" fill="none" stroke="#f40f34" stroke-linecap="round" stroke-linejoin="round" stroke-width="2"/>
      <path id="Path_74589" data-name="Path 74589" d="M87.832,253.731l3.524-3.438a2.487,2.487,0,0,1,3.107-.371,2.449,2.449,0,0,1,.4,3.783l-6.936,6.936L81.9,266.666c-3.553,3.553-9.1,4.47-13.217.352l-3.775-3.775a9.142,9.142,0,0,1-2.28-10.3l4.915-12.04c.746-1.677,2.382-3.686,4.253-3.06a2.891,2.891,0,0,1,1.811,3.734l-1.361,7.076" transform="translate(-56.149 -212.479)" fill="none" stroke="#f40f34" stroke-linecap="round" stroke-linejoin="round" stroke-width="2"/>
      <path id="Path_74590" data-name="Path 74590" d="M187.546,114.926l9.587-9.632a2.446,2.446,0,1,1,3.459,3.459L191,118.384" transform="translate(-167.864 -94.093)" fill="none" stroke="#f40f34" stroke-linecap="round" stroke-linejoin="round" stroke-width="2"/>
      <path id="Path_74591" data-name="Path 74591" d="M103.31,108.056l13.161-13.161a2.446,2.446,0,0,1,3.459,3.459l-7.282,7.326" transform="translate(-92.966 -84.847)" fill="none" stroke="#f40f34" stroke-linecap="round" stroke-linejoin="round" stroke-width="2"/>
      <path id="Path_74592" data-name="Path 74592" d="M218.745,164.618l7.282-7.326a2.446,2.446,0,0,1,3.459,3.459l-2.029,2.029" transform="translate(-195.604 -140.327)" fill="none" stroke="#f40f34" stroke-linecap="round" stroke-linejoin="round" stroke-width="2"/>
      <path id="Path_74593" data-name="Path 74593" d="M16.253,149.537l-3.248-3.248a9.149,9.149,0,0,1-2.283-10.3l4.917-12.039c.744-1.683,2.38-3.691,4.252-3.065a2.9,2.9,0,0,1,1.813,3.737L20.342,131.7" transform="translate(-10 -108.491)" fill="none" stroke="#f40f34" stroke-linecap="round" stroke-linejoin="round" stroke-width="2"/>
      <path id="Path_74594" data-name="Path 74594" d="M375.94,19.3c0-2.862-5.068-9.3-5.068-9.3s-5.068,6.437-5.068,9.3a5.07,5.07,0,1,0,10.137,0Z" transform="translate(-326.359 -9.999)" fill="none" stroke="#f40f34" stroke-linecap="round" stroke-linejoin="round" stroke-width="2"/>
    </g>
  </g>
</svg>
