<svg id="Group_50323" data-name="Group 50323" xmlns="http://www.w3.org/2000/svg" xmlns:xlink="http://www.w3.org/1999/xlink" width="45.256" height="63.99" viewBox="0 0 45.256 63.99">
  <defs>
    <clipPath id="clip-path">
      <rect id="Rectangle_14548" data-name="Rectangle 14548" width="45.256" height="63.99" fill="none" stroke="#f40f34" stroke-width="1"/>
    </clipPath>
  </defs>
  <line id="Line_188" data-name="Line 188" x2="17.375" transform="translate(13.94 53.596)" fill="none" stroke="#f40f34" stroke-width="2"/>
  <line id="Line_189" data-name="Line 189" x2="17.375" transform="translate(13.94 58.211)" fill="none" stroke="#f40f34" stroke-width="2"/>
  <g id="Group_50322" data-name="Group 50322" transform="translate(0 0)">
    <g id="Group_50321" data-name="Group 50321" clip-path="url(#clip-path)">
      <path id="Path_74602" data-name="Path 74602" d="M40.352,31.9H38.479a1.873,1.873,0,0,1-1.722-1.182l-.009-.024a1.874,1.874,0,0,1,.38-2.056l1.325-1.325a.883.883,0,0,0,0-1.248L34.7,22.316a.882.882,0,0,0-1.248,0L32.131,23.64a1.873,1.873,0,0,1-2.056.38l-.024-.01a1.873,1.873,0,0,1-1.182-1.721V20.416a.882.882,0,0,0-.883-.883h-5.3a.882.882,0,0,0-.883.883v1.872a1.873,1.873,0,0,1-1.182,1.722l-.024.01a1.874,1.874,0,0,1-2.056-.38l-1.324-1.324a.882.882,0,0,0-1.248,0L12.22,26.064a.883.883,0,0,0,0,1.249l1.325,1.323a1.874,1.874,0,0,1,.381,2.056l-.01.024A1.873,1.873,0,0,1,12.194,31.9H10.321a.884.884,0,0,0-.883.883v5.3a.884.884,0,0,0,.883.883h1.872a1.874,1.874,0,0,1,1.722,1.182l.009.024a1.874,1.874,0,0,1-.38,2.056L12.22,43.55a.884.884,0,0,0,0,1.249l3.748,3.748a.909.909,0,0,0,1.249,0l1.324-1.325a1.874,1.874,0,0,1,2.056-.38l.024.009A1.874,1.874,0,0,1,21.8,48.573v1.873a.882.882,0,0,0,.883.883h5.3a.883.883,0,0,0,.883-.883V48.573a1.873,1.873,0,0,1,1.183-1.721l.024-.01a1.871,1.871,0,0,1,2.055.381l1.325,1.324a.883.883,0,0,0,1.249,0L38.451,44.8a.883.883,0,0,0,0-1.249l-1.323-1.324a1.873,1.873,0,0,1-.381-2.056l.01-.024a1.873,1.873,0,0,1,1.721-1.182h1.873a.884.884,0,0,0,.883-.883v-5.3a.884.884,0,0,0-.883-.883" transform="translate(-2.709 -5.605)" fill="none" stroke="#f40f34" stroke-width="1"/>
      <path id="Path_74603" data-name="Path 74603" d="M40.352,31.9H38.479a1.873,1.873,0,0,1-1.722-1.182l-.009-.024a1.874,1.874,0,0,1,.38-2.056l1.325-1.325a.883.883,0,0,0,0-1.248L34.7,22.316a.882.882,0,0,0-1.248,0L32.131,23.64a1.873,1.873,0,0,1-2.056.38l-.024-.01a1.873,1.873,0,0,1-1.182-1.721V20.416a.882.882,0,0,0-.883-.883h-5.3a.882.882,0,0,0-.883.883v1.872a1.873,1.873,0,0,1-1.182,1.722l-.024.01a1.874,1.874,0,0,1-2.056-.38l-1.324-1.324a.882.882,0,0,0-1.248,0L12.22,26.064a.883.883,0,0,0,0,1.249l1.325,1.323a1.874,1.874,0,0,1,.381,2.056l-.01.024A1.873,1.873,0,0,1,12.194,31.9H10.321a.884.884,0,0,0-.883.883v5.3a.884.884,0,0,0,.883.883h1.872a1.874,1.874,0,0,1,1.722,1.182l.009.024a1.874,1.874,0,0,1-.38,2.056L12.22,43.55a.884.884,0,0,0,0,1.249l3.748,3.748a.909.909,0,0,0,1.249,0l1.324-1.325a1.874,1.874,0,0,1,2.056-.38l.024.009A1.874,1.874,0,0,1,21.8,48.573v1.873a.882.882,0,0,0,.883.883h5.3a.883.883,0,0,0,.883-.883V48.573a1.873,1.873,0,0,1,1.183-1.721l.024-.01a1.871,1.871,0,0,1,2.055.381l1.325,1.324a.883.883,0,0,0,1.249,0L38.451,44.8a.883.883,0,0,0,0-1.249l-1.323-1.324a1.873,1.873,0,0,1-.381-2.056l.01-.024a1.873,1.873,0,0,1,1.721-1.182h1.873a.884.884,0,0,0,.883-.883v-5.3A.884.884,0,0,0,40.352,31.9Z" transform="translate(-2.709 -5.605)" fill="none" stroke="#f40f34" stroke-width="2"/>
      <path id="Path_74604" data-name="Path 74604" d="M36.546,38.589a8.052,8.052,0,1,1-8.052-8.052,8.052,8.052,0,0,1,8.052,8.052" transform="translate(-5.867 -8.763)" fill="none" stroke="#f40f34" stroke-width="1"/>
      <path id="Path_74605" data-name="Path 74605" d="M36.546,38.589a8.052,8.052,0,1,1-8.052-8.052A8.052,8.052,0,0,1,36.546,38.589Z" transform="translate(-5.867 -8.763)" fill="none" stroke="#f40f34" stroke-width="2"/>
      <line id="Line_190" data-name="Line 190" y1="4.078" x2="0.67" transform="translate(26.093 0.116)" fill="none" stroke="#f40f34" stroke-width="2"/>
      <line id="Line_191" data-name="Line 191" y1="3.504" x2="2.191" transform="translate(34.155 3.608)" fill="none" stroke="#f40f34" stroke-width="2"/>
      <line id="Line_192" data-name="Line 192" x1="2.069" y1="3.578" transform="translate(9.625 3.45)" fill="none" stroke="#f40f34" stroke-width="2"/>
      <line id="Line_193" data-name="Line 193" x1="0.819" y1="4.051" transform="translate(17.432 0.393)" fill="none" stroke="#f40f34" stroke-width="2"/>
      <path id="Path_74606" data-name="Path 74606" d="M44.83,32.555a21.915,21.915,0,1,0-30.6,20.121V62.6a3.733,3.733,0,0,0,3.733,3.733h9.909A3.734,3.734,0,0,0,31.6,62.6V52.676A21.918,21.918,0,0,0,44.83,32.555Z" transform="translate(-0.287 -3.053)" fill="none" stroke="#f40f34" stroke-width="2"/>
    </g>
  </g>
</svg>
