<svg xmlns="http://www.w3.org/2000/svg" xmlns:xlink="http://www.w3.org/1999/xlink" width="54.254" height="57.336" viewBox="0 0 54.254 57.336">
  <defs>
    <clipPath id="clip-path">
      <rect id="Rectangle_14550" data-name="Rectangle 14550" width="54.254" height="57.336" fill="#f40f34"/>
    </clipPath>
  </defs>
  <g id="Group_50335" data-name="Group 50335" transform="translate(-19.602 -19.297)">
    <g id="Group_50336" data-name="Group 50336" transform="translate(19.602 19.297)">
      <g id="Group_50333" data-name="Group 50333">
        <g id="Group_50332" data-name="Group 50332" clip-path="url(#clip-path)">
          <g id="Group_50331" data-name="Group 50331">
            <g id="Group_50330" data-name="Group 50330" clip-path="url(#clip-path)">
              <path id="Path_74621" data-name="Path 74621" d="M22.693.479a3.411,3.411,0,0,1,.675.491q4.647,4.656,9.3,9.309a3.188,3.188,0,0,1,.227,4.483,3.124,3.124,0,0,1-4.378.332c-.857-.746-1.637-1.581-2.441-2.386a4.863,4.863,0,0,1-.358-.5.528.528,0,0,0-.2.564c-.006,2.743,0,5.487-.009,8.23,0,.353.015.579.474.624s.559-.141.647-.524c.275-1.2.586-2.388.888-3.58.274-1.083,1.05-1.341,1.908-.633.716.592,1.427,1.19,2.178,1.815a16.027,16.027,0,0,1,1.926-3.528A15.14,15.14,0,0,1,46.665,8.7a15.326,15.326,0,0,1,3.043,30.194c-.479.118-.65.3-.642.811.033,2.108.025,4.218,0,6.326,0,.422.123.547.538.532a14.149,14.149,0,0,1,1.844.046,3.043,3.043,0,0,1-.163,6.065c-.6.03-1.194.028-1.791.012-.317-.008-.425.1-.424.418a16.924,16.924,0,0,1-.043,2.013,3.048,3.048,0,0,1-6.067-.124,11.555,11.555,0,0,1-.01-1.678c.048-.546-.175-.665-.664-.632a13.423,13.423,0,0,1-1.567-.008,3.042,3.042,0,0,1-.178-6.065,18.44,18.44,0,0,1,1.956-.05c.342,0,.448-.114.446-.453q-.018-3.3,0-6.606c0-.309-.071-.473-.4-.536a8.428,8.428,0,0,1-1.235-.352c-.322-.114-.439-.045-.433.3.014.765,0,1.53.006,2.3a1.125,1.125,0,0,1-.565,1.132,1.093,1.093,0,0,1-1.2-.173c-.323-.221-.66-.424-.975-.655s-.409-.138-.429.213a12.1,12.1,0,0,1-.693,3.443c-2.109,5.83-6.18,9.466-12.328,10.377-6.2.918-11.2-1.4-14.875-6.448a15.335,15.335,0,0,1,9.1-23.6c.316-.077.473-.175.472-.541-.012-4.106-.007-8.211-.01-12.317,0-.1.04-.225-.133-.346-.816.818-1.643,1.642-2.463,2.471a3.19,3.19,0,0,1-2.385,1.056A3.041,3.041,0,0,1,11.5,13.97a3.032,3.032,0,0,1,.437-3.353,6.974,6.974,0,0,1,.532-.575Q16.8,5.705,21.143,1.374c.314-.314.659-.6.99-.895ZM23.477,18V10.27c0-.131,0-.261,0-.392a1.054,1.054,0,0,1,.657-1.123,1.039,1.039,0,0,1,1.207.333q2.078,2.079,4.159,4.155a1.327,1.327,0,0,0,1.176.515,1.091,1.091,0,0,0,.926-.791,1.275,1.275,0,0,0-.471-1.344q-4.161-4.154-8.31-8.318c-.295-.3-.441-.3-.739,0q-4.1,4.137-8.226,8.245a3.1,3.1,0,0,0-.43.512,1.113,1.113,0,0,0,.167,1.386,1.071,1.071,0,0,0,1.337.177,2.763,2.763,0,0,0,.555-.464q1.925-1.915,3.843-3.838a4.2,4.2,0,0,1,.409-.382,1.006,1.006,0,0,1,1.681.671,3.181,3.181,0,0,1,.022.5q0,7.839,0,15.678c0,1.058-.233,1.357-1.281,1.54A13.306,13.306,0,0,0,9.479,43.359,13.229,13.229,0,0,0,21.088,53.636,12.984,12.984,0,0,0,32.53,49.081a13.293,13.293,0,0,0-7.791-21.75c-1.047-.194-1.262-.47-1.262-1.551q0-3.891,0-7.783m21.5,24.9c0,1.456,0,2.911,0,4.367,0,.973-.375,1.343-1.359,1.35-.8.006-1.6,0-2.407,0-.864,0-1.338.36-1.344,1s.488,1.029,1.325,1.032,1.679,0,2.519,0c.877.007,1.258.388,1.265,1.267.007.84,0,1.679,0,2.519s.392,1.331,1.034,1.323,1-.475,1-1.29c.005-.84-.006-1.679,0-2.519.011-.912.4-1.3,1.3-1.3s1.792.01,2.687-.006A1.021,1.021,0,1,0,51,48.618c-.84-.014-1.679,0-2.519,0-1.118,0-1.459-.349-1.46-1.484q0-4.2,0-8.4c0-1.178.213-1.413,1.367-1.638a12.878,12.878,0,0,0,9.162-6.536A12.928,12.928,0,0,0,55.28,14.54a12.626,12.626,0,0,0-13.6-3.052,13.254,13.254,0,0,0-4.153,22.763,12.753,12.753,0,0,0,6.221,2.867c.978.165,1.226.48,1.227,1.467q0,2.155,0,4.31M29.259,19.419c-.163.1-.16.238-.191.363-.238.956-.473,1.914-.719,2.869-.235.912-.583,1.147-1.528,1.057-1.34-.128-1.332-.128-1.313,1.236,0,.3.067.464.4.539a14.932,14.932,0,0,1,4.9,2.1,1.863,1.863,0,0,0,.254.115.763.763,0,0,0,.016-.2,14.27,14.27,0,0,1-.127-6.368.393.393,0,0,0-.162-.434c-.517-.424-1.026-.857-1.528-1.279M38.8,39.429c.122-1.858-.058-2.192-1.434-2.637a5.069,5.069,0,0,1,.2,1.041,1.59,1.59,0,0,0,1.235,1.6" transform="translate(-7.107 -0.479)" fill="#f40f34"/>
              <path id="Path_74622" data-name="Path 74622" d="M47.067,134.387a11.261,11.261,0,1,1-11.255-11.246,11.267,11.267,0,0,1,11.255,11.246m-2.258,1.378c-.67.56-1.334,1.126-2.011,1.677-.864.7-1.647.449-1.917-.62-.306-1.21-.62-2.417-.9-3.634-.089-.391-.241-.491-.64-.454-1.244.115-2.491.194-3.738.256-1.132.057-1.581-.584-1.166-1.631.481-1.211.963-2.422,1.462-3.626.114-.276.127-.454-.146-.656-.584-.432-1.144-.9-1.7-1.368a.739.739,0,0,0-.761-.159A9.2,9.2,0,1,0,39,143.03a8.755,8.755,0,0,0,5.81-7.265m-2.268-.784c.781-.654,1.488-1.253,2.205-1.841.187-.153.136-.317.094-.5a9.1,9.1,0,0,0-6.073-6.947,6.487,6.487,0,0,0-1.982-.413c.308.254.505.419.7.582.929.759.981.955.544,2.042l-1.185,2.951c1.112-.075,2.15-.155,3.19-.211,1.25-.067,1.433.081,1.734,1.293.245.988.5,1.975.769,3.047" transform="translate(-20.469 -94.47)" fill="#f40f34"/>
              <path id="Path_74623" data-name="Path 74623" d="M147.892,64.406a11.259,11.259,0,1,1-11.128-11.323,11.313,11.313,0,0,1,11.128,11.323m-13.631,8.765a8.541,8.541,0,0,0,4.371.153,8.906,8.906,0,0,0,6.932-6.917,8.8,8.8,0,0,0-2.98-9.072,9.215,9.215,0,0,0-13.1,1.179,1.634,1.634,0,0,0-.389,1.809,5.132,5.132,0,0,1,.3,1.188c.056.358.211.447.561.416,1.244-.111,2.491-.192,3.738-.283,1.143-.083,1.646.583,1.229,1.642-.458,1.161-.909,2.325-1.406,3.469-.166.382-.083.539.251.739,1.1.662,2.189,1.351,3.271,2.047a1.025,1.025,0,0,1,.334,1.609,2.561,2.561,0,0,1-.533.4c-.843.534-1.691,1.061-2.585,1.621m-6.681-10.3a1.256,1.256,0,0,0-.052.152,9.225,9.225,0,0,0,4.124,9.048.392.392,0,0,0,.46.035c.831-.526,1.664-1.047,2.579-1.622l-2.75-1.724c-.943-.591-1.046-.909-.634-1.935.393-.98.784-1.961,1.207-3.018-1.086.067-2.088.122-3.088.191-1.24.086-1.405-.008-1.845-1.128" transform="translate(-97.728 -40.786)" fill="#f40f34"/>
            </g>
          </g>
        </g>
      </g>
    </g>
  </g>
</svg>
