<svg xmlns="http://www.w3.org/2000/svg" width="51.253" height="67.545" viewBox="0 0 51.253 67.545">
  <g id="Group_50341" data-name="Group 50341" transform="translate(0 0.004)">
    <g id="Group_50342" data-name="Group 50342" transform="translate(0 -0.004)">
      <path id="Path_74625" data-name="Path 74625" d="M51.252,36.428q0,12.615,0,25.23a5.787,5.787,0,0,1-3.717,5.5,5.641,5.641,0,0,1-2.043.379q-17.716,0-35.432,0a5.767,5.767,0,0,1-5.712-5.3c-.016-.214-.025-.429-.025-.644q0-12.459,0-24.917a.465.465,0,0,0-.172-.382,12.41,12.41,0,0,1-.01-18.523.487.487,0,0,0,.182-.4c-.006-2.065-.018-4.13,0-6.2A5.666,5.666,0,0,1,7.051,6.22a5.549,5.549,0,0,1,3.1-.876c1.42,0,2.84,0,4.26,0,.169,0,.22-.039.221-.215a13.177,13.177,0,0,1,.041-1.815A3.9,3.9,0,0,1,18.455,0q9.332-.01,18.664,0a3.9,3.9,0,0,1,3.827,3.823c0,.443.008.886,0,1.329,0,.16.05.194.2.194q2.12-.008,4.241,0a5.775,5.775,0,0,1,5.868,5.873q0,12.605,0,25.21M41.988,20.323c-.09.016-.122.079-.165.124q-4.045,4.3-8.088,8.6a1.143,1.143,0,0,1-1.562.244q-1.941-1.093-3.879-2.189a.257.257,0,0,0-.3,0c-1.023.611-2.048,1.219-3.08,1.816a.584.584,0,0,0-.31.447A12.431,12.431,0,0,1,6.795,38.111c-.219-.112-.219-.112-.219.135q0,11.707,0,23.413a3.977,3.977,0,0,0,.027.546A3.528,3.528,0,0,0,10.217,65.3H45.279a4.313,4.313,0,0,0,.932-.082A3.53,3.53,0,0,0,49,61.658q0-21.019,0-42.038c0-2.814,0-5.629,0-8.443A3.523,3.523,0,0,0,45.4,7.59c-1.407,0-2.814,0-4.221,0-.166,0-.232.031-.244.217A2.96,2.96,0,0,1,38,10.565q-10.221,0-20.443,0a2.962,2.962,0,0,1-2.925-2.773c-.009-.158-.055-.207-.217-.206-1.427.006-2.853,0-4.28.006a3.551,3.551,0,0,0-.6.05,3.508,3.508,0,0,0-2.958,3.51c-.006,1.57,0,3.14,0,4.71a.267.267,0,0,0,.021.17c.071.007.121-.042.177-.07a12.261,12.261,0,0,1,7.475-1.213A12.426,12.426,0,0,1,24.8,26.172c.011.162.038.187.185.1.815-.489,1.641-.961,2.453-1.455a1.246,1.246,0,0,1,1.379-.01c1.209.694,2.427,1.37,3.639,2.058.113.064.18.075.279-.031q3.543-3.777,7.092-7.548c.032-.034.092-.059.063-.136-.421,0-.844,0-1.267,0a1.121,1.121,0,0,1-1.165-1.093A1.107,1.107,0,0,1,38.577,16.9c1.335-.014,2.671-.01,4.006,0a1.08,1.08,0,0,1,1.047.8c.318,1.189.63,2.379.925,3.574a1.109,1.109,0,0,1-.8,1.318,1.121,1.121,0,0,1-1.373-.76c-.029-.093-.052-.188-.076-.283l-.319-1.222M12.4,37.2A10.168,10.168,0,1,0,2.239,27.031,10.187,10.187,0,0,0,12.4,37.2M27.783,8.319H37.825a.77.77,0,0,0,.879-.873q0-1.719,0-3.439a2.02,2.02,0,0,0-.052-.484,1.684,1.684,0,0,0-1.759-1.279H18.666a1.68,1.68,0,0,0-1.8,1.8q0,1.7,0,3.4c0,.6.279.879.888.879H27.783" transform="translate(0 0.003)" fill="#f40f34"/>
      <path id="Path_74626" data-name="Path 74626" d="M339.609,1288.105h13.856a1.14,1.14,0,0,1,1.188.848,1.125,1.125,0,0,1-1.055,1.4c-.11.006-.221,0-.332,0q-13.768,0-27.537,0a1.146,1.146,0,0,1-1.124-.631,1.122,1.122,0,0,1,.952-1.621c.078,0,.156,0,.234,0h13.817" transform="translate(-311.8 -1237.756)" fill="#f40f34"/>
      <path id="Path_74627" data-name="Path 74627" d="M339.689,1459.2H353.58a1.127,1.127,0,1,1,.13,2.25c-.065,0-.13,0-.2,0H325.83a1.139,1.139,0,0,1-1.224-.9,1.123,1.123,0,0,1,1.075-1.354c.15-.005.3,0,.449,0h13.559" transform="translate(-311.894 -1402.161)" fill="#f40f34"/>
      <path id="Path_74628" data-name="Path 74628" d="M339.623,1117.086h13.915a1.123,1.123,0,0,1,.249,2.229,2.186,2.186,0,0,1-.331.021H325.9a1.905,1.905,0,0,1-.6-.059,1.124,1.124,0,0,1,.291-2.192c.065,0,.13,0,.2,0h13.837" transform="translate(-311.835 -1073.421)" fill="#f40f34"/>
      <path id="Path_74629" data-name="Path 74629" d="M652.287,948.233q-3.85,0-7.7,0a1.124,1.124,0,0,1-.14-2.243c.065-.005.13,0,.2,0h15.281a1.129,1.129,0,0,1,1.208.939,1.116,1.116,0,0,1-.99,1.3c-.1.01-.208.007-.312.007h-7.543" transform="translate(-618.263 -909.009)" fill="#f40f34"/>
      <path id="Path_74630" data-name="Path 74630" d="M207.681,488.745a1.18,1.18,0,0,1,.685-1.272,1.12,1.12,0,0,1,1.255.271.98.98,0,0,1,.3.7,1.98,1.98,0,0,0,2.324,1.871,2.122,2.122,0,0,0,1.1-.466,1.7,1.7,0,0,0-.071-2.743,2.361,2.361,0,0,0-1.392-.434,4.209,4.209,0,0,1-3.484-1.819,3.952,3.952,0,0,1,1.426-5.782,3.5,3.5,0,0,1,.827-.345.214.214,0,0,0,.192-.272,1.206,1.206,0,0,1,.006-.273,1.126,1.126,0,0,1,1.146-1.012,1.1,1.1,0,0,1,1.087,1.086c0,.322.105.431.4.544a4.022,4.022,0,0,1,2.769,3.566,1.227,1.227,0,0,1-.266.969,1.124,1.124,0,0,1-1.207.333,1.07,1.07,0,0,1-.763-1.009,1.892,1.892,0,0,0-1.4-1.79,2.167,2.167,0,0,0-2.337.716,1.668,1.668,0,0,0,.114,2.169,2.1,2.1,0,0,0,1.57.674,4.289,4.289,0,0,1,3.329,1.5,3.955,3.955,0,0,1-1.182,6.106,3.57,3.57,0,0,1-.827.345c-.149.038-.185.107-.188.256a1.121,1.121,0,0,1-1.431,1.094,1.1,1.1,0,0,1-.813-1.072c0-.181-.069-.236-.224-.289a4.085,4.085,0,0,1-2.9-3.256c-.028-.147-.035-.3-.043-.375" transform="translate(-199.555 -458.522)" fill="#f40f34"/>
    </g>
  </g>
</svg>
