<svg xmlns="http://www.w3.org/2000/svg" xmlns:xlink="http://www.w3.org/1999/xlink" width="100" height="100" viewBox="0 0 100 100">
  <defs>
    <clipPath id="clip-path">
      <rect id="Rectangle_14407" data-name="Rectangle 14407" width="95.752" height="77.102" fill="#f2f2f2"/>
    </clipPath>
    <clipPath id="clip-Agency_Building">
      <rect width="100" height="100"/>
    </clipPath>
  </defs>
  <g id="Agency_Building" data-name="Agency Building" clip-path="url(#clip-Agency_Building)">
    <rect width="100" height="100" fill="#fff"/>
    <g id="Group_50618" data-name="Group 50618" transform="translate(2.124 11.449)" opacity="0.7">
      <g id="Group_50154" data-name="Group 50154" clip-path="url(#clip-path)">
        <path id="Path_74428" data-name="Path 74428" d="M56.366,108.488a17.372,17.372,0,0,1,1.34-9.468,7.535,7.535,0,0,1,3.744-3.551c4-1.946,8.206-3.446,12.127-5.567a33.142,33.142,0,0,0,5.137-3.216A10.433,10.433,0,0,0,80.1,85.408c.65-.756,1.425-1.7,1.052-2.625-.311-.771-1.458-.3-2.22-.307-5.129-.037-10.258-.019-15.388-.019H61.936c.806-1.085,1.458-1.966,2.114-2.844,3.123-4.178,5.693-8.623,6.772-13.806a46.735,46.735,0,0,0,.6-8.734c.1-5.343,6.631-12.43,13.109-11.634a1.513,1.513,0,0,0,1.117-.348,10.781,10.781,0,0,1,12.228-.371c4.96,3.011,7.35,7.565,8.171,13.145.53,3.6.611,7.262,1.4,10.826A52.043,52.043,0,0,0,112.4,81.18c.18.349.343.707.52,1.072a2.29,2.29,0,0,1-1.491.2c-4.679.015-9.359.009-14.038.013-1.39,0-1.594.321-.942,1.562a6.833,6.833,0,0,0,2.019,2.146c3.754,2.894,8.152,4.533,12.433,6.4,1.483.647,2.955,1.318,4.437,1.968,3.738,1.637,5.438,4.676,5.822,8.569.176,1.786.2,3.586.293,5.38ZM68.378,79.372h1.39q6.816.005,13.632.013c.516,0,1.088-.156,1.127.722.135,2.982-.344,5.733-2.611,7.927A24.972,24.972,0,0,1,76.768,91.7,94.732,94.732,0,0,1,64.68,97.344c-2.987,1.178-4.844,3.015-5.2,6.361-.149,1.414.175,1.606,1.461,1.6q27.872-.058,55.744-.026c.315,0,.63-.012.945,0,.466.016.579-.213.607-.657a7.3,7.3,0,0,0-4.083-7.179c-2.022-.976-4.095-1.849-6.159-2.735-4.217-1.811-8.425-3.62-12.037-6.558a7.267,7.267,0,0,1-2.742-7.661c.172-.836.481-1.159,1.4-1.145,4.048.064,8.1.006,12.147.054,1.061.012,1.211-.221.749-1.182a39.744,39.744,0,0,1-3.767-13.011c-.276-2.546-.475-5.1-.907-7.628-.872-5.093-3.355-9.037-8.276-10.968a6.471,6.471,0,0,0-6.976.892,4.117,4.117,0,0,1-3.249,1.028,7.493,7.493,0,0,0-5.52,1.729c-2.861,2.211-4.559,5.015-4.4,8.779a31.862,31.862,0,0,1-5.689,19.329,1.211,1.211,0,0,0-.351,1" transform="translate(-41.039 -31.386)" fill="#f2f2f2"/>
        <path id="Path_74429" data-name="Path 74429" d="M5.142,36.892c1.421-1.99,2.711-3.717,3.918-5.5a25.925,25.925,0,0,0,4.754-15.738A11.993,11.993,0,0,1,20.525,4.066C23.584,2.394,27.15,1.947,30.458.978c5.5-1.612,9.524,1.569,12.686,5.864.106.144.2.3.294.452,1.283,2.1,1.246,2.14-1.093,2.924-.631.212-.835.031-1.1-.505a12.2,12.2,0,0,0-4.458-4.774,6.746,6.746,0,0,0-8.123.2A4.244,4.244,0,0,1,26,5.921a8.932,8.932,0,0,0-9.051,8.767c-.047,4.122-.346,8.173-1.921,12.04a38.156,38.156,0,0,1-3.585,6.742c.357.488.8.29,1.162.291,4.1.011,8.192.036,12.286-.032,1.039-.017,1.243.327,1.279,1.293a9.134,9.134,0,0,1-4.224,8.38A68.814,68.814,0,0,1,10.48,49.37c-.946.418-1.882.868-2.856,1.208A6.087,6.087,0,0,0,3.3,56.048c-.139,1.115.066,1.4,1.168,1.4,6.211-.038,12.422-.018,18.633-.018a7.007,7.007,0,0,0,1.079-.009c1.312-.207,1.672.327,1.654,1.627-.016,1.177-.3,1.514-1.5,1.5-7.648-.058-15.3-.05-22.945-.015-1.01,0-1.5-.188-1.367-1.314.153-1.293.151-2.6.286-3.9.436-4.185,3.038-6.471,6.767-7.918a68.492,68.492,0,0,0,11.653-5.616c1.487-.93,3.009-1.856,3.828-3.511.585-1.183.452-1.381-.852-1.383q-7.427-.01-14.853,0H5.142" transform="translate(0 -0.403)" fill="#f2f2f2"/>
        <path id="Path_74430" data-name="Path 74430" d="M227.67,36.285c-4.854,0-9.482-.005-14.11.009-.425,0-1-.233-1.249.2-.307.543.132,1.049.462,1.452a14.719,14.719,0,0,0,4.263,3.255,73.093,73.093,0,0,0,10.92,4.955c5.134,1.914,7.131,5.672,7.178,10.848.025,2.777.049,2.79-2.775,2.8-6.7.012-13.407-.038-20.109.053-1.4.019-1.34-.636-1.365-1.61-.025-1,.073-1.532,1.331-1.518,6.118.068,12.238,0,18.357.058,1.259.013,1.488-.362,1.344-1.543a6.774,6.774,0,0,0-4.451-5.882c-3.725-1.57-7.5-3.032-11.07-4.963a24.773,24.773,0,0,1-5.308-3.671c-2.079-1.96-2.367-4.313-1.725-6.936.188-.767.747-.639,1.27-.64q5.6-.009,11.2-.012c.177,0,.353-.033.6-.058a16.408,16.408,0,0,0-1.214-3.125,41.319,41.319,0,0,1-2.713-12.6,35.386,35.386,0,0,0-1.033-5.97,11.049,11.049,0,0,0-6.04-7.38c-2.381-1.182-4.917-1.363-7.193.531a3.262,3.262,0,0,1-2.476.9c-3.14-.425-5.345,1.122-7.248,3.315-1.37,1.579-1.33,1.586-3.128.348-.478-.329-.577-.574-.225-1.064,2.481-3.459,5.539-5.889,10.069-5.741a1.787,1.787,0,0,0,1.257-.324c3.4-2.617,7.063-2.438,10.632-.583,4.843,2.518,7.286,6.773,7.985,12.1.4,3.073.667,6.169,1.2,9.22a41.11,41.11,0,0,0,4.466,11.809c.266.512.519,1.03.891,1.769" transform="translate(-139.387 0)" fill="#f2f2f2"/>
      </g>
    </g>
  </g>
</svg>
